<?xml version="1.0" encoding="UTF-8" standalone="no"?>
<svg
   xmlns:dc="http://purl.org/dc/elements/1.1/"
   xmlns:cc="http://creativecommons.org/ns#"
   xmlns:rdf="http://www.w3.org/1999/02/22-rdf-syntax-ns#"
   xmlns:svg="http://www.w3.org/2000/svg"
   xmlns="http://www.w3.org/2000/svg"
   xmlns:sodipodi="http://sodipodi.sourceforge.net/DTD/sodipodi-0.dtd"
   xmlns:inkscape="http://www.inkscape.org/namespaces/inkscape"
   width="1920"
   height="1080"
   viewBox="0 0 507.99999 285.75001"
   version="1.1"
   id="svg8"
   sodipodi:docname="freifunk.svg"
   inkscape:version="0.92.3 (2405546, 2018-03-11)">
  <sodipodi:namedview
     pagecolor="#ffffff"
     bordercolor="#666666"
     borderopacity="1"
     objecttolerance="10"
     gridtolerance="10"
     guidetolerance="10"
     inkscape:pageopacity="0"
     inkscape:pageshadow="2"
     inkscape:window-width="1869"
     inkscape:window-height="1025"
     id="namedview866"
     showgrid="false"
     inkscape:pagecheckerboard="true"
     showguides="true"
     inkscape:guide-bbox="true"
     inkscape:zoom="0.57760417"
     inkscape:cx="384.43166"
     inkscape:cy="155.05485"
     inkscape:window-x="51"
     inkscape:window-y="27"
     inkscape:window-maximized="1"
     inkscape:current-layer="svg8">
    <sodipodi:guide
       position="-27.02615,57.029757"
       orientation="0,1"
       id="guide983"
       inkscape:locked="false" />
    <sodipodi:guide
       position="16.719567,110.85302"
       orientation="1,0"
       id="guide985"
       inkscape:locked="false" />
  </sodipodi:namedview>
  <defs
     id="defs2">
    <linearGradient
       id="linearGradient30"
       spreadMethod="pad"
       gradientTransform="matrix(0,-46.513853,-46.513853,0,26.250064,37.547485)"
       gradientUnits="userSpaceOnUse"
       y2="0"
       x2="1"
       y1="0"
       x1="0">
      <stop
         id="stop24"
         offset="0"
         style="stop-opacity:1;stop-color:#f14531" />
      <stop
         id="stop26"
         offset="0.330076"
         style="stop-opacity:1;stop-color:#d23128" />
      <stop
         id="stop28"
         offset="1"
         style="stop-opacity:1;stop-color:#98131a" />
    </linearGradient>
  </defs>
  <metadata
     id="metadata5">
    <rdf:RDF>
      <cc:Work
         rdf:about="">
        <dc:format>image/svg+xml</dc:format>
        <dc:type
           rdf:resource="http://purl.org/dc/dcmitype/StillImage" />
        <dc:title></dc:title>
      </cc:Work>
    </rdf:RDF>
  </metadata>
  <path
     inkscape:connector-curvature="0"
     d="m 343.06126,179.78203 26.40885,15.24716 v 30.49431 l -26.40885,15.24716 -26.40885,-15.24716 v -30.49431 z"
     id="path23"
     style="opacity:1;fill:#ffffff;fill-opacity:1;stroke:none;stroke-width:0.69300276;stroke-linecap:butt;stroke-linejoin:miter;stroke-miterlimit:3.79999995;stroke-dasharray:none;stroke-opacity:1;paint-order:markers stroke fill" />
  <rect
     y="179.78218"
     x="0"
     height="60.988667"
     width="343.06125"
     id="rect21"
     style="opacity:1;fill:#ffffff;fill-opacity:1;stroke:none;stroke-width:0.70996273;stroke-linecap:butt;stroke-linejoin:miter;stroke-miterlimit:3.79999995;stroke-dasharray:none;stroke-opacity:1;paint-order:markers stroke fill" />
  <g
     id="g10"
     transform="matrix(0.6594572,0,0,-0.6594572,325.87335,227.63218)">
    <path
       inkscape:connector-curvature="0"
       style="fill:#ffffff;stroke:none;stroke-width:0.99017888px;stroke-linecap:butt;stroke-linejoin:miter;stroke-opacity:1"
       d="M -3.0094223,43.967414 26.133028,61.28313 55.960901,44.322183 56.896678,32.391033 47.187997,24.904821 57.949425,18.705303 55.726956,7.0080987 28.706414,-8.7831285 -5.4494237,6.4232377 Z"
       id="path33" />
    <path
       inkscape:connector-curvature="0"
       id="path32"
       style="fill:url(#linearGradient30);fill-opacity:1;fill-rule:nonzero;stroke:none;stroke-width:0.13202386"
       d="m 26.261813,-13.008806 -0.01189,0.0072 -0.01228,-0.0072 -0.01188,0.02115 -33.7259426,19.4554097 h -0.05724 l 0.01084,39.5468203 33.8140806,19.494239 33.78992,-19.492661 V 30.444071 h -0.06509 l 0.06509,-0.112484 -6.97152,-4.021578 6.97152,-4.021975 -0.0021,-0.0037 0.0021,-0.0011 V 6.5575257 h -0.033 l 0.033,-0.05677 -33.783715,-19.4884177 -0.01188,-0.02115 m 3.360402,41.496813 v 0 l 0.05518,-31.3412863 23.37799,13.3983213 v 7.698707 l -6.976007,4.024087 -7.107108,-4.099869 v 8.083293 l 14.083115,8.124087 v 7.59652 L 26.256672,57.431595 -0.55549667,41.96421 V 10.545041 L 22.62034,-2.8120226 V 24.438571 l -5.585269,-3.230491 -7.002413,4.039665 20.93621,12.112133 7.00545,-4.041778 -8.352094,-4.830093" />
  </g>
  <style
     type="text/css"
     id="style2">
	.st0{fill:#E9502D;}
</style>
  <style
     id="style1648"
     type="text/css">
	.st0{fill:#F14531;}
	.st1{fill:#616364;}
	.st2{fill:#393536;}
</style>
  <g
     aria-label="Freifunk &amp; Freies Internet für alle"
     style="font-style:italic;font-variant:normal;font-weight:900;font-stretch:normal;font-size:16.93333435px;line-height:1;font-family:'Exo 2';-inkscape-font-specification:'Exo 2, Heavy Italic';font-variant-ligatures:normal;font-variant-caps:normal;font-variant-numeric:normal;font-feature-settings:normal;text-align:start;letter-spacing:0px;word-spacing:0px;writing-mode:lr-tb;text-anchor:start;fill:#616364;fill-opacity:1;stroke:none;stroke-width:0.52786458"
     id="text946">
    <path
       d="m 23.551007,200.29731 h -3.894666 q -0.457201,0 -0.660401,0.1524 -0.2032,0.1524 -0.254,0.52494 l -0.186266,1.30386 h 4.080933 l -0.3048,2.4384 h -4.1148 l -0.626533,4.5212 h -3.691467 l 1.286933,-9.16093 q 0.169334,-1.20227 0.9652,-1.89653 0.8128,-0.69427 2.015067,-0.69427 4.1148,0 5.7912,0.254 z"
       style=""
       id="path1714" />
    <path
       d="m 31.316529,200.53438 -0.728134,3.2512 h -0.795866 q -0.8636,0 -2.252134,0.22013 l -0.7112,5.2324 h -3.572933 l 1.185333,-8.46666 h 2.777067 l 0.118533,1.15146 q 1.6764,-1.38853 3.369734,-1.38853 z"
       style=""
       id="path1716" />
    <path
       d="m 39.515174,206.52878 0.237066,2.16747 q -1.608666,0.74506 -4.0132,0.74506 -1.4224,0 -2.370667,-0.28786 -0.948267,-0.28787 -1.456267,-0.88054 -0.508,-0.59266 -0.677333,-1.38853 -0.1524,-0.8128 -0.03387,-1.94733 0.135467,-1.33774 0.524934,-2.21827 0.389466,-0.88053 1.0668,-1.33773 0.694267,-0.47414 1.524,-0.6604 0.846667,-0.18627 2.048933,-0.18627 2.540001,0 3.488267,0.77893 0.948267,0.77894 0.7112,2.37067 -0.1524,1.10067 -0.982133,1.54093 -0.8128,0.42334 -2.624667,0.5588 l -2.116667,0.1524 q 0.01693,0.47414 0.270934,0.62654 0.270933,0.1524 0.931333,0.1524 1.845733,0 3.471334,-0.18627 z m -4.453467,-2.31987 0.9652,-0.1016 q 0.6096,-0.0508 0.846666,-0.18626 0.254,-0.1524 0.3048,-0.59267 0.03387,-0.28787 -0.135466,-0.4064 -0.1524,-0.11853 -0.643467,-0.1016 -0.626533,0.0169 -0.897467,0.28787 -0.270933,0.27093 -0.440266,1.10066 z"
       style=""
       id="path1718" />
    <path
       d="m 43.695062,196.89371 h 1.3716 q 1.134533,0 1.016,1.1176 l -0.118533,0.8636 q -0.118534,0.98214 -1.168401,0.98214 h -1.388533 q -1.1176,0 -0.999067,-1.1176 l 0.118534,-0.8636 q 0.1016,-0.98214 1.1684,-0.98214 z m 0.795866,12.3444 h -3.539066 l 1.1684,-8.46666 h 3.539067 z"
       style=""
       id="path1720" />
    <path
       d="m 54.019105,199.34905 h -1.354667 q -0.508,0 -0.728133,0.2032 -0.220134,0.2032 -0.3048,0.74506 l -0.06773,0.47414 h 1.981201 l -0.287867,2.1336 h -2.015067 l -1.016,6.87493 q -0.4064,2.6924 -3.217334,2.6924 -0.846666,0 -2.624666,-0.254 l 0.541866,-2.11667 h 0.829734 q 0.524933,0 0.762,-0.2032 0.237066,-0.2032 0.321733,-0.74506 l 0.897467,-6.2484 h -1.3716 l 0.254,-2.04894 1.439333,-0.0847 0.1524,-1.10067 q 0.4064,-2.6924 3.217334,-2.6924 1.8796,0 3.132667,0.254 z"
       style=""
       id="path1722" />
    <path
       d="m 63.295661,200.77145 -1.1684,8.46666 h -2.777067 l -0.06773,-1.43933 q -1.7272,1.6764 -3.4544,1.6764 -1.320801,0 -1.930401,-0.62653 -0.592666,-0.64347 -0.423333,-1.81187 l 0.8636,-6.26533 h 3.572934 l -0.762,5.26626 q -0.06773,0.4572 0.389466,0.4572 0.6604,0 1.507067,-0.62653 l 0.728133,-5.09693 z"
       style=""
       id="path1724" />
    <path
       d="m 67.550689,200.77145 0.08467,1.49013 q 0.8128,-0.8128 1.794933,-1.27 0.982134,-0.4572 1.913467,-0.4572 1.100667,0 1.7272,0.64347 0.643467,0.62653 0.474134,1.79493 l -0.880534,6.26533 h -3.572933 l 0.728133,-5.11386 q 0.0508,-0.3556 -0.0508,-0.49107 -0.08467,-0.13547 -0.4064,-0.1016 -0.694267,0.0677 -1.490133,0.67733 l -0.7112,5.0292 h -3.556001 l 1.1684,-8.46666 z"
       style=""
       id="path1726" />
    <path
       d="m 80.608672,200.77145 h 3.6576 q -0.575733,2.57386 -2.8956,4.09786 0.626533,0.44027 0.948266,1.1684 l 1.540934,3.2004 h -3.640667 l -1.439333,-3.13266 q -0.372534,0.1524 -0.762,0.254 0,0.22013 -0.03387,0.52493 l -0.338667,2.35373 h -3.556 l 1.659467,-11.85333 h 3.556 l -0.643467,4.60587 q -0.169333,1.03293 -0.728133,2.06586 0.999067,-0.54186 1.7272,-1.4224 0.728133,-0.89746 0.948267,-1.86266 z"
       style=""
       id="path1728" />
    <path
       d="m 100.51063,204.36131 h -1.286933 q -0.169333,0.89747 -0.541867,1.71027 -1.524,3.4036 -6.265333,3.4036 -2.404534,0 -3.420534,-0.82973 -0.999067,-0.82974 -0.795867,-2.52307 0.1524,-1.25307 0.8128,-2.032 0.6604,-0.79587 1.862667,-0.8636 l 0.01693,-0.1016 q -0.846666,-0.0677 -1.286933,-0.9144 -0.423333,-0.84667 -0.237067,-1.91347 0.135467,-0.762 0.4572,-1.30386 0.321734,-0.5588 0.728134,-0.88054 0.4064,-0.32173 1.016,-0.49106 0.626533,-0.18627 1.236133,-0.23707 0.6096,-0.0677 1.439334,-0.0677 1.710266,0 2.8956,0.4064 l -0.5588,2.35373 q -1.3208,-0.2032 -2.218267,-0.2032 -0.745067,0 -1.032933,0.2032 -0.287867,0.2032 -0.372534,0.89747 -0.08467,0.67733 0.1016,0.93133 0.186267,0.23707 0.7112,0.23707 h 2.810934 q 0.06773,-0.8128 0.08467,-1.40547 h 2.912533 q 0,0.7112 -0.0508,1.40547 h 1.303863 z m -4.318,0 h -2.7432 q -0.592667,0 -0.9144,0.27094 -0.321733,0.27093 -0.4064,0.99906 -0.06773,0.59267 0.2032,0.82974 0.287867,0.23706 0.948267,0.23706 0.897466,0 1.540933,-0.33866 0.6604,-0.3556 1.100667,-1.30387 0.118533,-0.23707 0.270933,-0.69427 z"
       style=""
       id="path1730" />
    <path
       d="m 114.1708,200.29731 h -3.89466 q -0.4572,0 -0.6604,0.1524 -0.2032,0.1524 -0.254,0.52494 l -0.18627,1.30386 h 4.08093 l -0.3048,2.4384 h -4.1148 l -0.62653,4.5212 h -3.69147 l 1.28694,-9.16093 q 0.16933,-1.20227 0.9652,-1.89653 0.8128,-0.69427 2.01506,-0.69427 4.1148,0 5.7912,0.254 z"
       style=""
       id="path1732" />
    <path
       d="m 121.93633,200.53438 -0.72814,3.2512 h -0.79586 q -0.8636,0 -2.25214,0.22013 l -0.7112,5.2324 h -3.57293 l 1.18533,-8.46666 h 2.77707 l 0.11853,1.15146 q 1.6764,-1.38853 3.36974,-1.38853 z"
       style=""
       id="path1734" />
    <path
       d="m 130.13497,206.52878 0.23707,2.16747 q -1.60867,0.74506 -4.0132,0.74506 -1.4224,0 -2.37067,-0.28786 -0.94826,-0.28787 -1.45626,-0.88054 -0.508,-0.59266 -0.67734,-1.38853 -0.1524,-0.8128 -0.0339,-1.94733 0.13546,-1.33774 0.52493,-2.21827 0.38947,-0.88053 1.0668,-1.33773 0.69427,-0.47414 1.524,-0.6604 0.84667,-0.18627 2.04893,-0.18627 2.54,0 3.48827,0.77893 0.94827,0.77894 0.7112,2.37067 -0.1524,1.10067 -0.98213,1.54093 -0.8128,0.42334 -2.62467,0.5588 l -2.11667,0.1524 q 0.0169,0.47414 0.27094,0.62654 0.27093,0.1524 0.93133,0.1524 1.84573,0 3.47133,-0.18627 z m -4.45346,-2.31987 0.9652,-0.1016 q 0.6096,-0.0508 0.84666,-0.18626 0.254,-0.1524 0.3048,-0.59267 0.0339,-0.28787 -0.13546,-0.4064 -0.1524,-0.11853 -0.64347,-0.1016 -0.62653,0.0169 -0.89747,0.28787 -0.27093,0.27093 -0.44026,1.10066 z"
       style=""
       id="path1736" />
    <path
       d="m 134.31486,196.89371 h 1.3716 q 1.13453,0 1.016,1.1176 l -0.11853,0.8636 q -0.11854,0.98214 -1.1684,0.98214 h -1.38854 q -1.1176,0 -0.99906,-1.1176 l 0.11853,-0.8636 q 0.1016,-0.98214 1.1684,-0.98214 z m 0.79587,12.3444 h -3.53907 l 1.1684,-8.46666 h 3.53907 z"
       style=""
       id="path1738" />
    <path
       d="m 145.28236,206.52878 0.23707,2.16747 q -1.60867,0.74506 -4.0132,0.74506 -1.4224,0 -2.37067,-0.28786 -0.94826,-0.28787 -1.45626,-0.88054 -0.508,-0.59266 -0.67734,-1.38853 -0.1524,-0.8128 -0.0339,-1.94733 0.13546,-1.33774 0.52493,-2.21827 0.38947,-0.88053 1.0668,-1.33773 0.69427,-0.47414 1.524,-0.6604 0.84667,-0.18627 2.04893,-0.18627 2.54,0 3.48827,0.77893 0.94827,0.77894 0.7112,2.37067 -0.1524,1.10067 -0.98213,1.54093 -0.8128,0.42334 -2.62467,0.5588 l -2.11667,0.1524 q 0.0169,0.47414 0.27094,0.62654 0.27093,0.1524 0.93133,0.1524 1.84573,0 3.47133,-0.18627 z m -4.45346,-2.31987 0.9652,-0.1016 q 0.6096,-0.0508 0.84666,-0.18626 0.254,-0.1524 0.3048,-0.59267 0.0339,-0.28787 -0.13546,-0.4064 -0.1524,-0.11853 -0.64347,-0.1016 -0.62653,0.0169 -0.89747,0.28787 -0.27093,0.27093 -0.44026,1.10066 z"
       style=""
       id="path1740" />
    <path
       d="m 150.86772,206.27478 -1.778,-0.508 q -2.21827,-0.62653 -1.8796,-2.8956 0.16933,-1.18533 1.0668,-1.76107 0.9144,-0.57573 3.03107,-0.57573 2.50613,0 4.2672,0.38947 l -0.28787,2.04893 h -3.23427 q -0.94826,0 -1.20226,0.0339 -0.254,0.0169 -0.27094,0.13546 -0.0339,0.13547 0.13547,0.23707 0.18627,0.0847 0.69427,0.22013 l 1.84573,0.49107 q 2.1844,0.59267 1.9304,2.67547 -0.18627,1.5748 -1.2192,2.11666 -1.016,0.54187 -3.08187,0.54187 -2.25213,0 -4.33493,-0.37253 l 0.28787,-2.04894 h 2.8448 q 1.28693,0 1.6764,-0.0508 0.38946,-0.0508 0.42333,-0.22013 0.0169,-0.11853 -0.1524,-0.2032 -0.16933,-0.0847 -0.762,-0.254 z"
       style=""
       id="path1742" />
    <path
       d="m 163.32669,209.23811 h -3.6576 l 1.64253,-11.684 h 3.6576 z"
       style=""
       id="path1744" />
    <path
       d="m 168.91919,200.77145 0.0847,1.49013 q 0.8128,-0.8128 1.79493,-1.27 0.98213,-0.4572 1.91347,-0.4572 1.10066,0 1.7272,0.64347 0.64346,0.62653 0.47413,1.79493 l -0.88053,6.26533 h -3.57294 l 0.72814,-5.11386 q 0.0508,-0.3556 -0.0508,-0.49107 -0.0847,-0.13547 -0.4064,-0.1016 -0.69427,0.0677 -1.49014,0.67733 l -0.7112,5.0292 h -3.556 l 1.1684,-8.46666 z"
       style=""
       id="path1746" />
    <path
       d="m 180.7749,202.90505 -0.47413,3.31893 q -0.0508,0.33867 0.0339,0.44027 0.1016,0.1016 0.49106,0.1016 h 0.99907 l 0.18627,2.30293 q -1.03294,0.4064 -2.82787,0.4064 -1.30387,0 -2.01507,-0.6604 -0.69426,-0.6604 -0.52493,-1.778 l 0.6096,-4.13173 h -1.45627 l 0.254,-2.04894 1.524,-0.0847 0.32174,-2.21827 h 3.5052 l -0.32174,2.21827 h 2.032 l -0.28786,2.1336 z"
       style=""
       id="path1748" />
    <path
       d="m 191.51831,206.52878 0.23707,2.16747 q -1.60867,0.74506 -4.0132,0.74506 -1.4224,0 -2.37067,-0.28786 -0.94827,-0.28787 -1.45627,-0.88054 -0.508,-0.59266 -0.67733,-1.38853 -0.1524,-0.8128 -0.0339,-1.94733 0.13547,-1.33774 0.52494,-2.21827 0.38946,-0.88053 1.0668,-1.33773 0.69426,-0.47414 1.524,-0.6604 0.84666,-0.18627 2.04893,-0.18627 2.54,0 3.48827,0.77893 0.94826,0.77894 0.7112,2.37067 -0.1524,1.10067 -0.98214,1.54093 -0.8128,0.42334 -2.62466,0.5588 l -2.11667,0.1524 q 0.0169,0.47414 0.27093,0.62654 0.27094,0.1524 0.93134,0.1524 1.84573,0 3.47133,-0.18627 z m -4.45347,-2.31987 0.9652,-0.1016 q 0.6096,-0.0508 0.84667,-0.18626 0.254,-0.1524 0.3048,-0.59267 0.0339,-0.28787 -0.13547,-0.4064 -0.1524,-0.11853 -0.64346,-0.1016 -0.62654,0.0169 -0.89747,0.28787 -0.27093,0.27093 -0.44027,1.10066 z"
       style=""
       id="path1750" />
    <path
       d="m 200.94753,200.53438 -0.72813,3.2512 h -0.79587 q -0.8636,0 -2.25213,0.22013 l -0.7112,5.2324 h -3.57293 l 1.18533,-8.46666 h 2.77707 l 0.11853,1.15146 q 1.6764,-1.38853 3.36973,-1.38853 z"
       style=""
       id="path1752" />
    <path
       d="m 204.47258,200.77145 0.0847,1.49013 q 0.8128,-0.8128 1.79493,-1.27 0.98213,-0.4572 1.91347,-0.4572 1.10066,0 1.7272,0.64347 0.64346,0.62653 0.47413,1.79493 l -0.88053,6.26533 h -3.57294 l 0.72814,-5.11386 q 0.0508,-0.3556 -0.0508,-0.49107 -0.0847,-0.13547 -0.4064,-0.1016 -0.69427,0.0677 -1.49014,0.67733 l -0.7112,5.0292 h -3.556 l 1.1684,-8.46666 z"
       style=""
       id="path1754" />
    <path
       d="m 219.6303,206.52878 0.23706,2.16747 q -1.60866,0.74506 -4.0132,0.74506 -1.4224,0 -2.37066,-0.28786 -0.94827,-0.28787 -1.45627,-0.88054 -0.508,-0.59266 -0.67734,-1.38853 -0.1524,-0.8128 -0.0339,-1.94733 0.13546,-1.33774 0.52493,-2.21827 0.38947,-0.88053 1.0668,-1.33773 0.69427,-0.47414 1.524,-0.6604 0.84667,-0.18627 2.04894,-0.18627 2.54,0 3.48826,0.77893 0.94827,0.77894 0.7112,2.37067 -0.1524,1.10067 -0.98213,1.54093 -0.8128,0.42334 -2.62467,0.5588 l -2.11666,0.1524 q 0.0169,0.47414 0.27093,0.62654 0.27093,0.1524 0.93133,0.1524 1.84574,0 3.47134,-0.18627 z m -4.45347,-2.31987 0.9652,-0.1016 q 0.6096,-0.0508 0.84667,-0.18626 0.254,-0.1524 0.3048,-0.59267 0.0339,-0.28787 -0.13547,-0.4064 -0.1524,-0.11853 -0.64347,-0.1016 -0.62653,0.0169 -0.89746,0.28787 -0.27094,0.27093 -0.44027,1.10066 z"
       style=""
       id="path1756" />
    <path
       d="m 226.31632,202.90505 -0.47414,3.31893 q -0.0508,0.33867 0.0339,0.44027 0.1016,0.1016 0.49107,0.1016 h 0.99906 l 0.18627,2.30293 q -1.03293,0.4064 -2.82787,0.4064 -1.30386,0 -2.01506,-0.6604 -0.69427,-0.6604 -0.52494,-1.778 l 0.6096,-4.13173 h -1.45626 l 0.254,-2.04894 1.524,-0.0847 0.32173,-2.21827 h 3.5052 l -0.32173,2.21827 h 2.032 l -0.28787,2.1336 z"
       style=""
       id="path1758" />
    <path
       d="m 239.78969,199.34905 h -1.35467 q -0.508,0 -0.72813,0.2032 -0.22014,0.2032 -0.3048,0.74506 l -0.0677,0.47414 h 1.9812 l -0.28786,2.1336 h -2.01507 l -1.016,6.87493 q -0.4064,2.6924 -3.21734,2.6924 -0.84666,0 -2.62466,-0.254 l 0.54186,-2.11667 h 0.82974 q 0.52493,0 0.762,-0.2032 0.23706,-0.2032 0.32173,-0.74506 l 0.89747,-6.2484 h -1.3716 l 0.254,-2.04894 1.43933,-0.0847 0.1524,-1.10067 q 0.4064,-2.6924 3.21734,-2.6924 1.8796,0 3.13266,0.254 z"
       style=""
       id="path1760" />
    <path
       d="m 243.90159,199.31518 h -1.3716 q -0.6096,0 -0.508,-0.5588 l 0.18626,-1.23613 q 0.0677,-0.59267 0.6604,-0.59267 h 1.30387 q 0.6096,0 0.508,0.5588 l -0.18627,1.28693 q -0.0677,0.54187 -0.59266,0.54187 z m 3.2004,0 h -1.3716 q -0.6096,0 -0.508,-0.5588 l 0.18626,-1.25307 q 0.0847,-0.57573 0.6096,-0.57573 h 1.35467 q 0.6096,0 0.508,0.5588 l -0.18627,1.27 q -0.0339,0.3048 -0.16933,0.44027 -0.13547,0.11853 -0.42333,0.11853 z m 1.96426,1.45627 -1.1684,8.46666 h -2.77706 l -0.0677,-1.43933 q -1.7272,1.6764 -3.4544,1.6764 -1.3208,0 -1.9304,-0.62653 -0.59266,-0.64347 -0.42333,-1.81187 l 0.8636,-6.26533 h 3.57293 l -0.762,5.26626 q -0.0677,0.4572 0.38947,0.4572 0.6604,0 1.50707,-0.62653 l 0.72813,-5.09693 z"
       style=""
       id="path1762" />
    <path
       d="m 257.43607,200.53438 -0.72813,3.2512 h -0.79587 q -0.8636,0 -2.25213,0.22013 l -0.7112,5.2324 h -3.57293 l 1.18533,-8.46666 h 2.77707 l 0.11853,1.15146 q 1.6764,-1.38853 3.36973,-1.38853 z"
       style=""
       id="path1764" />
    <path
       d="m 266.4536,209.23811 -0.0339,-1.64253 q -1.13454,1.69333 -3.302,1.84573 -1.18534,0.0847 -1.8288,-0.47413 -0.62654,-0.57573 -0.72814,-1.64253 -0.1016,-1.0668 0.1016,-2.55694 0.1524,-0.98213 0.4064,-1.69333 0.254,-0.72813 0.64347,-1.18533 0.4064,-0.4572 0.8128,-0.72814 0.4064,-0.28786 1.04987,-0.42333 0.6604,-0.13547 1.2192,-0.16933 0.5588,-0.0339 1.43933,-0.0339 0.88053,0 2.25213,0.18627 1.3716,0.16933 1.86267,0.3556 l -1.15147,8.16186 z m 0.11854,-6.38386 h -0.77894 q -0.62653,0 -0.98213,0.3556 -0.3556,0.33866 -0.52493,1.45626 -0.23707,1.60867 -0.1016,1.8796 0.0847,0.2032 0.4572,0.16934 0.7112,-0.0508 1.5748,-1.30387 z"
       style=""
       id="path1766" />
    <path
       d="m 275.89022,197.38478 -1.27,8.8392 q -0.0677,0.32173 0.0677,0.44027 0.13546,0.1016 0.59266,0.1016 h 0.67734 l 0.2032,2.30293 q -0.72814,0.4064 -2.42147,0.4064 -1.4224,0 -2.16747,-0.6604 -0.72813,-0.6604 -0.59266,-1.778 l 1.3716,-9.652 z"
       style=""
       id="path1768" />
    <path
       d="m 281.97564,197.38478 -1.27,8.8392 q -0.0677,0.32173 0.0677,0.44027 0.13546,0.1016 0.59266,0.1016 h 0.67734 l 0.2032,2.30293 q -0.72814,0.4064 -2.42147,0.4064 -1.4224,0 -2.16747,-0.6604 -0.72813,-0.6604 -0.59266,-1.778 l 1.3716,-9.652 z"
       style=""
       id="path1770" />
    <path
       d="m 291.36545,206.52878 0.23707,2.16747 q -1.60867,0.74506 -4.0132,0.74506 -1.42241,0 -2.37067,-0.28786 -0.94827,-0.28787 -1.45627,-0.88054 -0.508,-0.59266 -0.67733,-1.38853 -0.1524,-0.8128 -0.0339,-1.94733 0.13547,-1.33774 0.52493,-2.21827 0.38947,-0.88053 1.0668,-1.33773 0.69427,-0.47414 1.524,-0.6604 0.84667,-0.18627 2.04894,-0.18627 2.54,0 3.48827,0.77893 0.94826,0.77894 0.7112,2.37067 -0.1524,1.10067 -0.98214,1.54093 -0.8128,0.42334 -2.62466,0.5588 l -2.11667,0.1524 q 0.0169,0.47414 0.27093,0.62654 0.27094,0.1524 0.93134,0.1524 1.84573,0 3.47133,-0.18627 z m -4.45347,-2.31987 0.9652,-0.1016 q 0.6096,-0.0508 0.84667,-0.18626 0.254,-0.1524 0.3048,-0.59267 0.0339,-0.28787 -0.13547,-0.4064 -0.1524,-0.11853 -0.64346,-0.1016 -0.62654,0.0169 -0.89747,0.28787 -0.27093,0.27093 -0.44027,1.10066 z"
       style=""
       id="path1772" />
  </g>
  <g
     aria-label="Wolf"
     style="font-style:italic;font-variant:normal;font-weight:bold;font-stretch:normal;font-size:15.875px;line-height:1;font-family:'Exo 2';-inkscape-font-specification:'Exo 2, Bold Italic';font-variant-ligatures:normal;font-variant-caps:normal;font-variant-numeric:normal;font-feature-settings:normal;text-align:start;letter-spacing:0px;word-spacing:0px;writing-mode:lr-tb;text-anchor:start;fill:#393536;fill-opacity:1;stroke:none;stroke-width:0.26458335"
     id="text989">
    <path
       d="m 32.199234,218.23653 -3.20675,10.33462 q -0.1905,0.61913 -0.889,0.61913 h -2.286 q -0.3175,0 -0.555625,-0.20638 -0.238125,-0.22225 -0.254,-0.52387 l -0.206375,-7.08025 v -1.397 h -0.301625 q -0.206375,0.87312 -0.365125,1.41287 l -2.174875,7.15963 q -0.1905,0.635 -0.904875,0.635 h -2.301875 q -0.3175,0 -0.5715,-0.20638 -0.238125,-0.20637 -0.238125,-0.508 l -0.333375,-10.23937 h 2.413 v 7.65175 q 0,0.26987 -0.03175,0.85725 -0.01587,0.5715 -0.01587,0.73025 h 0.3175 q 0.07937,-0.33338 0.460375,-1.68275 l 2.111375,-6.858 q 0.206375,-0.6985 0.92075,-0.6985 h 2.047875 q 0.333375,0 0.53975,0.23812 0.22225,0.22225 0.22225,0.55563 l 0.301625,6.87387 q 0.03175,1.03188 0.01588,1.57163 h 0.333375 q 0.238125,-1.0795 0.396875,-1.651 l 2.0955,-7.58825 z"
       style=""
       id="path1775" />
    <path
       d="m 36.487468,221.14165 q 2.174875,0 3.032125,0.98425 0.85725,0.98425 0.53975,3.25438 -0.301625,2.20662 -1.317625,3.1115 -1.000125,0.90487 -3.127375,0.90487 -2.159,0 -3.048,-0.98425 -0.873125,-0.98425 -0.555625,-3.22262 0.3175,-2.2225 1.317625,-3.12738 1.000125,-0.92075 3.159125,-0.92075 z m -0.01588,1.76213 q -0.968375,0 -1.397,0.49212 -0.41275,0.49213 -0.619125,1.98438 -0.1905,1.36525 0.04762,1.80975 0.238125,0.4445 1.158875,0.4445 0.9525,0 1.36525,-0.49213 0.41275,-0.508 0.619125,-1.95262 0.206375,-1.36525 -0.04763,-1.82563 -0.238125,-0.46037 -1.127125,-0.46037 z"
       style=""
       id="path1777" />
    <path
       d="m 44.995476,218.07778 -1.222375,8.60425 q -0.0635,0.42862 0.07938,0.58737 0.15875,0.15875 0.650875,0.15875 h 0.682625 l 0.111125,1.66688 q -0.555625,0.28575 -1.825625,0.28575 -1.095375,0 -1.666875,-0.58738 -0.555625,-0.58737 -0.428625,-1.61925 l 1.285875,-9.09637 z"
       style=""
       id="path1779" />
    <path
       d="m 53.034675,219.47478 h -1.397 q -0.619125,0 -0.904875,0.22225 -0.269875,0.20637 -0.365125,0.8255 l -0.111125,0.84137 h 2.143125 l -0.206375,1.57163 h -2.174875 l -1.000125,6.96912 q -0.333375,2.38125 -2.746375,2.38125 -0.682625,0 -2.174875,-0.17462 l 0.365125,-1.55575 h 1.016 q 0.635,0 0.904875,-0.22225 0.28575,-0.20638 0.381,-0.8255 l 0.936625,-6.57225 H 46.3513 l 0.1905,-1.49225 1.381125,-0.0794 0.174625,-1.22237 q 0.333375,-2.38125 2.746375,-2.38125 1.571625,0 2.57175,0.15875 z"
       style=""
       id="path1781" />
  </g>
</svg>
