<?xml version="1.0" encoding="UTF-8" standalone="no"?>
<svg
   xmlns:dc="http://purl.org/dc/elements/1.1/"
   xmlns:cc="http://creativecommons.org/ns#"
   xmlns:rdf="http://www.w3.org/1999/02/22-rdf-syntax-ns#"
   xmlns:svg="http://www.w3.org/2000/svg"
   xmlns="http://www.w3.org/2000/svg"
   xmlns:sodipodi="http://sodipodi.sourceforge.net/DTD/sodipodi-0.dtd"
   xmlns:inkscape="http://www.inkscape.org/namespaces/inkscape"
   width="1920"
   height="1080"
   viewBox="0 0 507.99999 285.75001"
   version="1.1"
   id="svg8"
   sodipodi:docname="klangerzeugung-vcv-rack.svg"
   inkscape:version="0.92.3 (2405546, 2018-03-11)">
  <sodipodi:namedview
     pagecolor="#ffffff"
     bordercolor="#666666"
     borderopacity="1"
     objecttolerance="10"
     gridtolerance="10"
     guidetolerance="10"
     inkscape:pageopacity="0"
     inkscape:pageshadow="2"
     inkscape:window-width="1869"
     inkscape:window-height="1025"
     id="namedview866"
     showgrid="false"
     inkscape:pagecheckerboard="true"
     showguides="true"
     inkscape:guide-bbox="true"
     inkscape:zoom="0.40842783"
     inkscape:cx="362.98955"
     inkscape:cy="310.1259"
     inkscape:window-x="51"
     inkscape:window-y="27"
     inkscape:window-maximized="1"
     inkscape:current-layer="svg8">
    <sodipodi:guide
       position="-27.02615,57.029757"
       orientation="0,1"
       id="guide983"
       inkscape:locked="false" />
    <sodipodi:guide
       position="16.719567,110.85302"
       orientation="1,0"
       id="guide985"
       inkscape:locked="false" />
  </sodipodi:namedview>
  <defs
     id="defs2">
    <linearGradient
       id="linearGradient30"
       spreadMethod="pad"
       gradientTransform="matrix(0,-46.513853,-46.513853,0,26.250064,37.547485)"
       gradientUnits="userSpaceOnUse"
       y2="0"
       x2="1"
       y1="0"
       x1="0">
      <stop
         id="stop24"
         offset="0"
         style="stop-opacity:1;stop-color:#f14531" />
      <stop
         id="stop26"
         offset="0.330076"
         style="stop-opacity:1;stop-color:#d23128" />
      <stop
         id="stop28"
         offset="1"
         style="stop-opacity:1;stop-color:#98131a" />
    </linearGradient>
  </defs>
  <metadata
     id="metadata5">
    <rdf:RDF>
      <cc:Work
         rdf:about="">
        <dc:format>image/svg+xml</dc:format>
        <dc:type
           rdf:resource="http://purl.org/dc/dcmitype/StillImage" />
        <dc:title></dc:title>
      </cc:Work>
    </rdf:RDF>
  </metadata>
  <path
     inkscape:connector-curvature="0"
     d="m 343.06126,179.78203 26.40885,15.24716 v 30.49431 l -26.40885,15.24716 -26.40885,-15.24716 v -30.49431 z"
     id="path23"
     style="opacity:1;fill:#ffffff;fill-opacity:1;stroke:none;stroke-width:0.69300276;stroke-linecap:butt;stroke-linejoin:miter;stroke-miterlimit:3.79999995;stroke-dasharray:none;stroke-opacity:1;paint-order:markers stroke fill" />
  <rect
     y="179.78218"
     x="0"
     height="60.988667"
     width="343.06125"
     id="rect21"
     style="opacity:1;fill:#ffffff;fill-opacity:1;stroke:none;stroke-width:0.70996273;stroke-linecap:butt;stroke-linejoin:miter;stroke-miterlimit:3.79999995;stroke-dasharray:none;stroke-opacity:1;paint-order:markers stroke fill" />
  <g
     id="g10"
     transform="matrix(0.6594572,0,0,-0.6594572,325.87335,227.63218)">
    <path
       inkscape:connector-curvature="0"
       style="fill:#ffffff;stroke:none;stroke-width:0.99017888px;stroke-linecap:butt;stroke-linejoin:miter;stroke-opacity:1"
       d="M -3.0094223,43.967414 26.133028,61.28313 55.960901,44.322183 56.896678,32.391033 47.187997,24.904821 57.949425,18.705303 55.726956,7.0080987 28.706414,-8.7831285 -5.4494237,6.4232377 Z"
       id="path33" />
    <path
       inkscape:connector-curvature="0"
       id="path32"
       style="fill:url(#linearGradient30);fill-opacity:1;fill-rule:nonzero;stroke:none;stroke-width:0.13202386"
       d="m 26.261813,-13.008806 -0.01189,0.0072 -0.01228,-0.0072 -0.01188,0.02115 -33.7259426,19.4554097 h -0.05724 l 0.01084,39.5468203 33.8140806,19.494239 33.78992,-19.492661 V 30.444071 h -0.06509 l 0.06509,-0.112484 -6.97152,-4.021578 6.97152,-4.021975 -0.0021,-0.0037 0.0021,-0.0011 V 6.5575257 h -0.033 l 0.033,-0.05677 -33.783715,-19.4884177 -0.01188,-0.02115 m 3.360402,41.496813 v 0 l 0.05518,-31.3412863 23.37799,13.3983213 v 7.698707 l -6.976007,4.024087 -7.107108,-4.099869 v 8.083293 l 14.083115,8.124087 v 7.59652 L 26.256672,57.431595 -0.55549667,41.96421 V 10.545041 L 22.62034,-2.8120226 V 24.438571 l -5.585269,-3.230491 -7.002413,4.039665 20.93621,12.112133 7.00545,-4.041778 -8.352094,-4.830093" />
  </g>
  <style
     type="text/css"
     id="style2">
	.st0{fill:#E9502D;}
</style>
  <style
     id="style1648"
     type="text/css">
	.st0{fill:#F14531;}
	.st1{fill:#616364;}
	.st2{fill:#393536;}
</style>
  <g
     aria-label="Klangerzeugung mit VCV Rack"
     style="font-style:italic;font-variant:normal;font-weight:900;font-stretch:normal;font-size:19.75555611px;line-height:1;font-family:'Exo 2';-inkscape-font-specification:'Exo 2, Heavy Italic';font-variant-ligatures:normal;font-variant-caps:normal;font-variant-numeric:normal;font-feature-settings:normal;text-align:start;letter-spacing:0px;word-spacing:0px;writing-mode:lr-tb;text-anchor:start;fill:#616364;fill-opacity:1;stroke:none;stroke-width:0.52786458"
     id="text946">
    <path
       d="m 22.834163,202.46196 -0.01976,0.079 q 0.276578,0.11853 0.592667,0.5334 0.316089,0.39511 0.493889,0.84949 l 2.370666,5.31424 h -4.6228 l -2.113844,-5.6896 h -0.612422 q 0.07902,0.63218 -0.01976,1.32363 l -0.612422,4.36597 h -4.306711 l 1.916288,-13.63133 h 4.306712 l -0.5334,3.77331 q -0.09878,0.75071 -0.316089,1.40265 h 0.651933 l 3.318934,-5.17596 h 4.741333 l -3.812822,5.6896 q -0.5334,0.82973 -1.4224,1.16558 z"
       style=""
       id="path1454" />
    <path
       d="m 33.086679,195.40922 -1.481666,10.3124 q -0.07902,0.37536 0.07902,0.51365 0.158044,0.11853 0.691444,0.11853 h 0.790223 l 0.237066,2.68676 q -0.849489,0.47413 -2.825044,0.47413 -1.659467,0 -2.528712,-0.77047 -0.849488,-0.77046 -0.691444,-2.07433 l 1.6002,-11.26067 z"
       style=""
       id="path1456" />
    <path
       d="m 41.292644,209.23811 -0.03951,-1.91629 q -1.323623,1.97556 -3.852334,2.15336 -1.382889,0.0988 -2.1336,-0.55316 -0.730956,-0.67168 -0.849489,-1.91628 -0.118533,-1.2446 0.118533,-2.98309 0.1778,-1.14583 0.474134,-1.97556 0.296333,-0.84949 0.750711,-1.38289 0.474133,-0.5334 0.948267,-0.84949 0.474133,-0.33584 1.224844,-0.49389 0.770467,-0.15804 1.4224,-0.19755 0.651934,-0.0395 1.679222,-0.0395 1.027289,0 2.627489,0.21731 1.6002,0.19755 2.173112,0.41487 l -1.343378,9.52217 z m 0.138289,-7.44784 h -0.908756 q -0.730956,0 -1.145822,0.41487 -0.414867,0.39511 -0.612423,1.69897 -0.276577,1.87678 -0.118533,2.19287 0.09878,0.23707 0.5334,0.19756 0.829734,-0.0593 1.837267,-1.52118 z"
       style=""
       id="path1458" />
    <path
       d="m 50.820379,199.36034 0.09878,1.73848 q 0.948266,-0.94826 2.094089,-1.48166 1.145822,-0.5334 2.232378,-0.5334 1.284111,0 2.015066,0.75071 0.750711,0.73095 0.553156,2.09409 l -1.027289,7.30955 h -4.168422 l 0.849488,-5.96617 q 0.05927,-0.41487 -0.05927,-0.57292 -0.09878,-0.15804 -0.474134,-0.11853 -0.809977,0.079 -1.738488,0.79022 l -0.829734,5.8674 h -4.148667 l 1.363134,-9.87777 z"
       style=""
       id="path1460" />
    <path
       d="m 58.685865,210.34442 h 2.489201 q 3.042355,0 3.852333,-1.26435 0.256822,-0.37536 0.434622,-1.0668 0.197556,-0.69145 0.335845,-0.96802 -1.343378,2.11384 -3.990623,2.23237 -2.034822,0.0988 -2.686755,-1.26435 -0.632178,-1.36313 -0.217311,-3.99062 0.158044,-0.98778 0.375355,-1.73849 0.237067,-0.77047 0.493889,-1.28411 0.276578,-0.5334 0.671689,-0.889 0.395111,-0.3556 0.750711,-0.55316 0.3556,-0.19755 0.908756,-0.29633 0.572911,-0.11854 1.027289,-0.13829 0.454377,-0.0395 1.165577,-0.0395 1.837267,0 3.516489,0.19755 1.679223,0.19756 2.469445,0.43463 l -1.086556,7.74417 q -0.197555,1.50143 -0.671689,2.58798 -0.454377,1.08656 -1.027289,1.69898 -0.572911,0.61242 -1.402644,0.96802 -0.809978,0.3556 -1.540933,0.45438 -0.7112,0.0988 -1.659467,0.0988 -2.923822,0 -4.405489,-0.69145 z m 7.191023,-8.55415 h -0.948267 q -0.928511,0 -1.264355,0.41487 -0.316089,0.41486 -0.5334,1.69897 -0.138289,0.77047 -0.1778,1.2446 -0.03951,0.47414 0.01976,0.75071 0.05927,0.27658 0.197556,0.37536 0.138289,0.079 0.414866,0.0198 0.928511,-0.1778 1.876778,-1.54094 z"
       style=""
       id="path1462" />
    <path
       d="m 80.697259,206.07722 0.276578,2.52872 q -1.876778,0.86924 -4.682067,0.86924 -1.659466,0 -2.765778,-0.33584 -1.106311,-0.33585 -1.698977,-1.02729 -0.592667,-0.69145 -0.790223,-1.61996 -0.1778,-0.94827 -0.03951,-2.27189 0.158045,-1.56069 0.612423,-2.58798 0.454377,-1.02728 1.2446,-1.56068 0.809977,-0.55316 1.778,-0.77047 0.987777,-0.21731 2.390422,-0.21731 2.963333,0 4.069644,0.90875 1.106312,0.90876 0.829734,2.76578 -0.1778,1.28411 -1.145822,1.79776 -0.948267,0.49389 -3.062112,0.65193 l -2.469444,0.1778 q 0.01976,0.55316 0.316089,0.73096 0.316089,0.1778 1.086555,0.1778 2.153356,0 4.049889,-0.21732 z m -5.195711,-2.70651 1.126067,-0.11853 q 0.7112,-0.0593 0.987778,-0.21731 0.296333,-0.1778 0.3556,-0.69145 0.03951,-0.33584 -0.158045,-0.47413 -0.1778,-0.13829 -0.750711,-0.11853 -0.730956,0.0197 -1.047044,0.33584 -0.316089,0.31609 -0.513645,1.28411 z"
       style=""
       id="path1464" />
    <path
       d="m 91.698021,199.08376 -0.849489,3.79306 h -0.928511 q -1.007534,0 -2.627489,0.25683 l -0.829734,6.10446 h -4.168422 l 1.382889,-9.87777 h 3.239911 l 0.138289,1.34337 q 1.9558,-1.61995 3.931356,-1.61995 z"
       style=""
       id="path1466" />
    <path
       d="m 101.32237,202.02734 -5.07718,4.54377 h 4.50427 l -0.3556,2.667 h -9.443159 l 0.335844,-2.667 h -0.01976 l 5.096933,-4.54377 h -4.286956 l 0.3556,-2.667 h 9.206093 l -0.33585,2.667 z"
       style=""
       id="path1468" />
    <path
       d="m 111.79683,206.07722 0.27658,2.52872 q -1.87678,0.86924 -4.68207,0.86924 -1.65947,0 -2.76578,-0.33584 -1.10631,-0.33585 -1.69897,-1.02729 -0.59267,-0.69145 -0.79023,-1.61996 -0.1778,-0.94827 -0.0395,-2.27189 0.15805,-1.56069 0.61242,-2.58798 0.45438,-1.02728 1.2446,-1.56068 0.80998,-0.55316 1.778,-0.77047 0.98778,-0.21731 2.39043,-0.21731 2.96333,0 4.06964,0.90875 1.10631,0.90876 0.82974,2.76578 -0.1778,1.28411 -1.14583,1.79776 -0.94826,0.49389 -3.06211,0.65193 l -2.46944,0.1778 q 0.0198,0.55316 0.31609,0.73096 0.31608,0.1778 1.08655,0.1778 2.15336,0 4.04989,-0.21732 z m -5.19571,-2.70651 1.12607,-0.11853 q 0.7112,-0.0593 0.98777,-0.21731 0.29634,-0.1778 0.3556,-0.69145 0.0395,-0.33584 -0.15804,-0.47413 -0.1778,-0.13829 -0.75071,-0.11853 -0.73096,0.0197 -1.04705,0.33584 -0.31609,0.31609 -0.51364,1.28411 z"
       style=""
       id="path1470" />
    <path
       d="m 125.1485,199.36034 -1.36314,9.87777 h -3.23991 l -0.079,-1.67922 q -2.01507,1.9558 -4.03013,1.9558 -1.54094,0 -2.25214,-0.73095 -0.69144,-0.75072 -0.49389,-2.11385 l 1.00754,-7.30955 h 4.16842 l -0.889,6.14397 q -0.079,0.5334 0.45438,0.5334 0.77046,0 1.75824,-0.73095 l 0.84949,-5.94642 z"
       style=""
       id="path1472" />
    <path
       d="m 125.74672,210.34442 h 2.4892 q 3.04236,0 3.85233,-1.26435 0.25683,-0.37536 0.43463,-1.0668 0.19755,-0.69145 0.33584,-0.96802 -1.34338,2.11384 -3.99062,2.23237 -2.03482,0.0988 -2.68676,-1.26435 -0.63217,-1.36313 -0.21731,-3.99062 0.15805,-0.98778 0.37536,-1.73849 0.23706,-0.77047 0.49389,-1.28411 0.27657,-0.5334 0.67169,-0.889 0.39511,-0.3556 0.75071,-0.55316 0.3556,-0.19755 0.90875,-0.29633 0.57291,-0.11854 1.02729,-0.13829 0.45438,-0.0395 1.16558,-0.0395 1.83727,0 3.51649,0.19755 1.67922,0.19756 2.46944,0.43463 l -1.08655,7.74417 q -0.19756,1.50143 -0.67169,2.58798 -0.45438,1.08656 -1.02729,1.69898 -0.57291,0.61242 -1.40265,0.96802 -0.80997,0.3556 -1.54093,0.45438 -0.7112,0.0988 -1.65947,0.0988 -2.92382,0 -4.40548,-0.69145 z m 7.19102,-8.55415 h -0.94826 q -0.92851,0 -1.26436,0.41487 -0.31609,0.41486 -0.5334,1.69897 -0.13829,0.77047 -0.1778,1.2446 -0.0395,0.47414 0.0198,0.75071 0.0593,0.27658 0.19755,0.37536 0.13829,0.079 0.41487,0.0198 0.92851,-0.1778 1.87678,-1.54094 z"
       style=""
       id="path1474" />
    <path
       d="m 149.45709,199.36034 -1.36313,9.87777 h -3.23992 l -0.079,-1.67922 q -2.01506,1.9558 -4.03013,1.9558 -1.54093,0 -2.25213,-0.73095 -0.69145,-0.75072 -0.49389,-2.11385 l 1.00753,-7.30955 h 4.16842 l -0.889,6.14397 q -0.079,0.5334 0.45438,0.5334 0.77047,0 1.75824,-0.73095 l 0.84949,-5.94642 z"
       style=""
       id="path1476" />
    <path
       d="m 154.42129,199.36034 0.0988,1.73848 q 0.94827,-0.94826 2.09409,-1.48166 1.14582,-0.5334 2.23238,-0.5334 1.28411,0 2.01506,0.75071 0.75072,0.73095 0.55316,2.09409 l -1.02729,7.30955 h -4.16842 l 0.84949,-5.96617 q 0.0593,-0.41487 -0.0593,-0.57292 -0.0988,-0.15804 -0.47413,-0.11853 -0.80998,0.079 -1.73849,0.79022 l -0.82973,5.8674 h -4.14867 l 1.36313,-9.87777 z"
       style=""
       id="path1478" />
    <path
       d="m 162.28678,210.34442 h 2.4892 q 3.04235,0 3.85233,-1.26435 0.25682,-0.37536 0.43462,-1.0668 0.19756,-0.69145 0.33585,-0.96802 -1.34338,2.11384 -3.99063,2.23237 -2.03482,0.0988 -2.68675,-1.26435 -0.63218,-1.36313 -0.21731,-3.99062 0.15804,-0.98778 0.37535,-1.73849 0.23707,-0.77047 0.49389,-1.28411 0.27658,-0.5334 0.67169,-0.889 0.39511,-0.3556 0.75071,-0.55316 0.3556,-0.19755 0.90876,-0.29633 0.57291,-0.11854 1.02729,-0.13829 0.45437,-0.0395 1.16557,-0.0395 1.83727,0 3.51649,0.19755 1.67922,0.19756 2.46945,0.43463 l -1.08656,7.74417 q -0.19755,1.50143 -0.67169,2.58798 -0.45438,1.08656 -1.02729,1.69898 -0.57291,0.61242 -1.40264,0.96802 -0.80998,0.3556 -1.54093,0.45438 -0.7112,0.0988 -1.65947,0.0988 -2.92382,0 -4.40549,-0.69145 z m 7.19102,-8.55415 h -0.94827 q -0.92851,0 -1.26435,0.41487 -0.31609,0.41486 -0.5334,1.69897 -0.13829,0.77047 -0.1778,1.2446 -0.0395,0.47414 0.0198,0.75071 0.0593,0.27658 0.19756,0.37536 0.13829,0.079 0.41486,0.0198 0.92851,-0.1778 1.87678,-1.54094 z"
       style=""
       id="path1480" />
    <path
       d="m 183.01283,199.36034 0.11853,1.40264 q 1.73849,-1.67922 3.59551,-1.67922 2.05458,0 2.50896,1.4224 1.6002,-1.4224 3.35845,-1.4224 1.46191,0 2.15335,0.75071 0.69145,0.75071 0.49389,2.09409 l -1.02729,7.30955 h -4.10915 l 0.84948,-6.14397 q 0.079,-0.51365 -0.37535,-0.51365 -0.57291,0 -1.4224,0.59267 l -0.84949,6.06495 h -3.97087 l 0.84949,-6.14397 q 0.0988,-0.51365 -0.37535,-0.51365 -0.59267,0 -1.44216,0.55316 l -0.82973,6.10446 h -4.12891 l 1.38288,-9.87777 z"
       style=""
       id="path1482" />
    <path
       d="m 199.16824,194.83631 h 1.6002 q 1.32362,0 1.18534,1.30387 l -0.13829,1.00753 q -0.13829,1.14583 -1.36314,1.14583 h -1.61995 q -1.30387,0 -1.16558,-1.30387 l 0.13829,-1.00753 q 0.11853,-1.14583 1.36313,-1.14583 z m 0.92851,14.4018 h -4.12891 l 1.36314,-9.87777 h 4.12891 z"
       style=""
       id="path1484" />
    <path
       d="m 208.11134,201.84954 -0.55316,3.87208 q -0.0593,0.39512 0.0395,0.51365 0.11854,0.11853 0.57291,0.11853 h 1.16558 l 0.21731,2.68676 q -1.20509,0.47413 -3.29918,0.47413 -1.52117,0 -2.35091,-0.77047 -0.80997,-0.77046 -0.61242,-2.07433 l 0.7112,-4.82035 h -1.69898 l 0.29634,-2.39043 1.778,-0.0988 0.37535,-2.58798 h 4.0894 l -0.37535,2.58798 h 2.37066 l -0.33584,2.4892 z"
       style=""
       id="path1486" />
    <path
       d="m 228.5179,195.60678 -5.07718,12.56453 q -0.41487,1.0668 -1.50142,1.0668 h -3.7338 q -0.5334,0 -0.92852,-0.33584 -0.37535,-0.3556 -0.43462,-0.889 l -1.54093,-12.40649 h 4.30671 l 0.47413,8.7122 q 0.0395,0.61242 0,1.778 h 0.51365 q 0.13829,-0.80998 0.45438,-1.69898 l 2.96333,-8.79122 z"
       style=""
       id="path1488" />
    <path
       d="m 237.92742,205.70187 0.15804,3.14113 q -2.03482,0.63218 -4.72158,0.63218 -3.45722,0 -4.70182,-1.6002 -1.2446,-1.61996 -0.69144,-5.61058 0.29633,-2.09409 0.75071,-3.39795 0.47413,-1.30387 1.30386,-2.09409 0.82974,-0.80998 1.9558,-1.10631 1.14583,-0.29634 2.90407,-0.29634 2.52871,0 4.48451,0.55316 l -0.49389,3.10162 q -2.88431,-0.0395 -4.20793,-0.0395 -0.75071,0 -1.12607,0.23707 -0.37535,0.21731 -0.63217,0.98777 -0.25683,0.75072 -0.47414,2.37067 -0.29633,2.01507 -0.11853,2.64725 0.1778,0.63217 1.2446,0.63217 2.68675,0 4.36598,-0.15804 z"
       style=""
       id="path1490" />
    <path
       d="m 253.36668,195.60678 -5.07718,12.56453 q -0.41486,1.0668 -1.50142,1.0668 h -3.7338 q -0.5334,0 -0.92851,-0.33584 -0.37536,-0.3556 -0.43462,-0.889 l -1.54094,-12.40649 h 4.30672 l 0.47413,8.7122 q 0.0395,0.61242 0,1.778 h 0.51364 q 0.13829,-0.80998 0.45438,-1.69898 l 2.96333,-8.79122 z"
       style=""
       id="path1492" />
    <path
       d="m 256.1624,209.23811 1.91629,-13.63133 q 1.97556,-0.19756 5.5118,-0.19756 2.98309,0 4.30671,0.98778 1.32363,0.96802 1.00754,3.31894 -0.1778,1.32362 -0.86925,2.1336 -0.67169,0.79022 -2.21262,0.94826 l -0.0198,0.13829 q 1.61995,0.23707 1.79775,2.19287 l 0.51365,4.10915 h -4.42525 l -0.3556,-4.12891 q -0.0197,-0.55315 -0.1778,-0.69144 -0.15804,-0.15805 -0.61242,-0.15805 h -1.50142 l -0.69145,4.9784 z m 5.31425,-8.001 h 1.48167 q 0.86924,0 1.20508,-0.29633 0.33585,-0.29633 0.47414,-1.26436 0.0988,-0.7112 -0.13829,-0.96802 -0.21731,-0.27658 -0.94827,-0.27658 h -1.67922 z"
       style=""
       id="path1494" />
    <path
       d="m 276.31431,209.23811 -0.0395,-1.91629 q -1.32362,1.97556 -3.85234,2.15336 -1.38288,0.0988 -2.1336,-0.55316 -0.73095,-0.67168 -0.84948,-1.91628 -0.11854,-1.2446 0.11853,-2.98309 0.1778,-1.14583 0.47413,-1.97556 0.29634,-0.84949 0.75071,-1.38289 0.47414,-0.5334 0.94827,-0.84949 0.47413,-0.33584 1.22484,-0.49389 0.77047,-0.15804 1.4224,-0.19755 0.65194,-0.0395 1.67923,-0.0395 1.02729,0 2.62749,0.21731 1.6002,0.19755 2.17311,0.41487 l -1.34338,9.52217 z m 0.13829,-7.44784 h -0.90876 q -0.73095,0 -1.14582,0.41487 -0.41487,0.39511 -0.61242,1.69897 -0.27658,1.87678 -0.11854,2.19287 0.0988,0.23707 0.5334,0.19756 0.82974,-0.0593 1.83727,-1.52118 z"
       style=""
       id="path1496" />
    <path
       d="m 290.46485,206.05747 0.29634,2.62749 q -1.65947,0.79022 -4.34622,0.79022 -2.70652,0 -3.97087,-1.26436 -1.2446,-1.28411 -0.84949,-4.0894 0.37536,-2.70651 1.6002,-3.87208 1.2446,-1.16558 3.97087,-1.16558 2.72626,0 4.52402,0.77046 l -0.55316,2.52872 h -3.47697 q -0.86925,0 -1.22485,0.39511 -0.3556,0.39511 -0.51364,1.46191 -0.1778,1.20509 0.0593,1.58044 0.25683,0.37536 1.16558,0.37536 2.07433,0 3.31893,-0.13829 z"
       style=""
       id="path1498" />
    <path
       d="m 299.41719,199.36034 h 4.2672 q -0.67168,3.00284 -3.3782,4.78084 0.73096,0.51364 1.10632,1.36313 l 1.79775,3.7338 h -4.24744 l -1.67923,-3.65477 q -0.43462,0.1778 -0.889,0.29633 0,0.25682 -0.0395,0.61242 l -0.39511,2.74602 h -4.14866 l 1.93604,-13.82889 h 4.14867 l -0.75071,5.37352 q -0.19756,1.20508 -0.84949,2.41017 1.16557,-0.63217 2.01506,-1.65946 0.84949,-1.04705 1.10631,-2.17311 z"
       style=""
       id="path1500" />
  </g>
  <g
     aria-label="Andreas Pfau"
     style="font-style:italic;font-variant:normal;font-weight:bold;font-stretch:normal;font-size:15.875px;line-height:1;font-family:'Exo 2';-inkscape-font-specification:'Exo 2, Bold Italic';font-variant-ligatures:normal;font-variant-caps:normal;font-variant-numeric:normal;font-feature-settings:normal;text-align:start;letter-spacing:0px;word-spacing:0px;writing-mode:lr-tb;text-anchor:start;fill:#393536;fill-opacity:1;stroke:none;stroke-width:0.26458335"
     id="text989">
    <path
       d="m 23.213984,226.33278 h -3.77825 l -1.17475,2.8575 h -2.524125 l 4.60375,-10.36638 q 0.22225,-0.58737 0.873125,-0.58737 h 2.286 q 0.301625,0 0.523875,0.20637 0.238125,0.1905 0.254,0.47625 l 1.7145,10.27113 h -2.413 z m -0.254,-1.92088 -0.428625,-3.31787 q -0.04763,-0.34925 -0.07937,-1.06363 h -0.460375 q -0.28575,0.80963 -0.381,1.04775 l -1.381125,3.33375 z"
       style=""
       id="path1503" />
    <path
       d="m 29.857423,221.3639 v 1.55575 q 1.825625,-1.778 3.571875,-1.778 1.000125,0 1.539875,0.58738 0.53975,0.5715 0.381,1.63512 l -0.8255,5.82613 h -2.333625 l 0.714375,-5.12763 q 0.07937,-0.55562 -0.03175,-0.74612 -0.111125,-0.20638 -0.492125,-0.1905 -0.889,0.0159 -2.44475,1.23825 l -0.66675,4.826 h -2.3495 l 1.095375,-7.82638 z"
       style=""
       id="path1505" />
    <path
       d="m 45.44196,218.07778 -1.571625,11.1125 h -1.8415 v -1.42875 q -1.5875,1.61925 -3.254375,1.61925 -1.317625,0 -1.87325,-1.00013 -0.555625,-1.00012 -0.254,-3.25437 0.174625,-1.25413 0.492125,-2.06375 0.3175,-0.80963 0.79375,-1.2065 0.492125,-0.41275 1.000125,-0.55563 0.523875,-0.15875 1.23825,-0.15875 1.254125,0 2.524125,0.20638 0.03175,-0.98425 0.111125,-1.53988 l 0.28575,-1.73037 z m -3.032125,4.71487 H 41.15571 q -1.158875,0 -1.539875,0.41275 -0.381,0.39688 -0.587375,1.95263 -0.1905,1.31762 -0.07938,1.79387 0.111125,0.46038 0.682625,0.4445 0.5715,-0.0159 1.0795,-0.28575 0.523875,-0.28575 1.222375,-0.90487 z"
       style=""
       id="path1507" />
    <path
       d="m 52.503111,221.14165 -0.523875,2.17488 h -0.5715 q -0.492125,0 -1.04775,0.22225 -0.53975,0.20637 -1.571625,0.74612 l -0.66675,4.90538 h -2.3495 l 1.095375,-7.82638 h 1.825625 v 1.47638 q 1.793875,-1.69863 3.33375,-1.69863 z"
       style=""
       id="path1509" />
    <path
       d="m 59.629745,227.3329 0.15875,1.49225 q -1.317625,0.55563 -3.444875,0.55563 -2.238375,0 -3.07975,-1.04775 -0.841375,-1.04775 -0.587375,-3.22263 0.28575,-2.286 1.30175,-3.12737 1.016,-0.84138 3.2385,-0.84138 2.06375,0 2.794,0.68263 0.746125,0.68262 0.555625,2.01612 -0.15875,1.11125 -0.904875,1.5875 -0.746125,0.47625 -2.301875,0.58738 l -2.31775,0.17462 q 0.01587,0.77788 0.381,1.04775 0.381,0.26988 1.190625,0.26988 1.539875,0 3.01625,-0.17463 z m -4.445,-2.52412 1.825625,-0.17463 q 0.635,-0.0476 0.92075,-0.254 0.301625,-0.20637 0.365125,-0.762 0.04763,-0.52387 -0.206375,-0.65087 -0.238125,-0.127 -1.031875,-0.11113 -0.92075,0 -1.30175,0.39688 -0.365125,0.381 -0.5715,1.55575 z"
       style=""
       id="path1511" />
    <path
       d="m 68.814177,229.19028 h -1.825625 l 0.01588,-1.41288 q -1.2065,1.55575 -3.20675,1.60338 -1.476375,0.0476 -2.00025,-0.9525 -0.508,-1.016 -0.174625,-3.302 0.15875,-1.0795 0.4445,-1.80975 0.28575,-0.74613 0.635,-1.17475 0.34925,-0.42863 0.904875,-0.65088 0.555625,-0.22225 1.063625,-0.28575 0.523875,-0.0635 1.317625,-0.0635 0.841375,0 2.016125,0.14288 1.17475,0.14287 1.87325,0.33337 z m -1.444625,-6.31825 h -1.2065 q -1.143,0 -1.55575,0.39687 -0.41275,0.39688 -0.619125,1.88913 -0.206375,1.50812 -0.09525,1.93675 0.111125,0.41275 0.682625,0.381 1.04775,-0.0159 2.3495,-1.47638 z"
       style=""
       id="path1513" />
    <path
       d="m 74.653697,226.3804 -1.889125,-0.77787 q -0.9525,-0.381 -1.3335,-0.96838 -0.381,-0.58737 -0.269875,-1.47637 0.127,-1.0795 0.936625,-1.55575 0.8255,-0.47625 2.57175,-0.46038 2.159,0.0317 3.6195,0.3175 l -0.22225,1.49225 q -3.048,-0.0476 -3.095625,-0.0476 -0.92075,0 -1.222375,0.0794 -0.301625,0.0635 -0.34925,0.33338 -0.03175,0.26987 0.142875,0.41275 0.1905,0.127 0.714375,0.33337 l 1.920875,0.762 q 0.968375,0.381 1.36525,0.92075 0.396875,0.53975 0.28575,1.44463 -0.09525,0.6985 -0.381,1.143 -0.269875,0.4445 -0.79375,0.66675 -0.523875,0.22225 -1.127125,0.28575 -0.60325,0.0794 -1.539875,0.0794 -1.42875,0 -3.444875,-0.28575 l 0.22225,-1.50812 q 0.5715,0.0317 2.492375,0.0317 1.36525,0 1.80975,-0.0952 0.4445,-0.0952 0.508,-0.41275 0.03175,-0.23813 -0.127,-0.34925 -0.142875,-0.11113 -0.587375,-0.28575 -0.127,-0.0476 -0.206375,-0.0794 z"
       style=""
       id="path1515" />
    <path
       d="m 82.594917,229.19028 1.539875,-10.95375 q 1.4605,-0.14288 4.03225,-0.14288 2.206625,0 3.032125,0.8255 0.8255,0.80963 0.53975,2.84163 -0.28575,2.0955 -1.158875,2.794 -0.873125,0.6985 -2.95275,0.6985 -1.095375,0 -2.047875,-0.14288 l -0.5715,4.07988 z m 3.222625,-5.79438 h 1.651 q 0.98425,0 1.349375,-0.34925 0.381,-0.34925 0.53975,-1.4605 0.142875,-0.9525 -0.127,-1.28587 -0.269875,-0.34925 -1.127125,-0.34925 l -1.793875,0.0159 z"
       style=""
       id="path1517" />
    <path
       d="m 99.04737,219.47478 h -1.397 q -0.619125,0 -0.904875,0.22225 -0.269875,0.20637 -0.365125,0.8255 l -0.111125,0.84137 h 2.143125 l -0.206375,1.57163 H 96.03112 l -1.000125,6.96912 q -0.333375,2.38125 -2.746375,2.38125 -0.682625,0 -2.174875,-0.17462 l 0.365125,-1.55575 h 1.016 q 0.635,0 0.904875,-0.22225 0.28575,-0.20638 0.381,-0.8255 l 0.936625,-6.57225 h -1.349375 l 0.1905,-1.49225 1.381125,-0.0794 0.174625,-1.22237 q 0.333375,-2.38125 2.746375,-2.38125 1.571625,0 2.57175,0.15875 z"
       style=""
       id="path1519" />
    <path
       d="m 105.89718,229.19028 h -1.82562 l 0.0159,-1.41288 q -1.2065,1.55575 -3.20675,1.60338 -1.47637,0.0476 -2.000245,-0.9525 -0.508,-1.016 -0.174625,-3.302 0.15875,-1.0795 0.4445,-1.80975 0.28575,-0.74613 0.635,-1.17475 0.34925,-0.42863 0.90487,-0.65088 0.55563,-0.22225 1.06363,-0.28575 0.52387,-0.0635 1.31762,-0.0635 0.84138,0 2.01613,0.14288 1.17475,0.14287 1.87325,0.33337 z m -1.44462,-6.31825 h -1.2065 q -1.143,0 -1.55575,0.39687 -0.41275,0.39688 -0.61913,1.88913 -0.20637,1.50812 -0.0952,1.93675 0.11113,0.41275 0.68263,0.381 1.04775,-0.0159 2.3495,-1.47638 z"
       style=""
       id="path1521" />
    <path
       d="m 116.29283,221.3639 -1.0795,7.82638 h -1.80975 v -1.47638 q -1.74625,1.68275 -3.38138,1.68275 -1.12712,0 -1.651,-0.58737 -0.508,-0.58738 -0.34925,-1.61925 l 0.80963,-5.82613 h 2.3495 l -0.74613,5.19113 q -0.0635,0.47625 0.0635,0.68262 0.14288,0.1905 0.52388,0.1905 0.508,0 0.98425,-0.26987 0.49212,-0.26988 1.30175,-0.9525 l 0.66675,-4.84188 z"
       style=""
       id="path1523" />
  </g>
</svg>
