<?xml version="1.0" encoding="UTF-8" standalone="no"?>
<svg
   xmlns:dc="http://purl.org/dc/elements/1.1/"
   xmlns:cc="http://creativecommons.org/ns#"
   xmlns:rdf="http://www.w3.org/1999/02/22-rdf-syntax-ns#"
   xmlns:svg="http://www.w3.org/2000/svg"
   xmlns="http://www.w3.org/2000/svg"
   xmlns:sodipodi="http://sodipodi.sourceforge.net/DTD/sodipodi-0.dtd"
   xmlns:inkscape="http://www.inkscape.org/namespaces/inkscape"
   width="1920"
   height="1080"
   viewBox="0 0 507.99999 285.75001"
   version="1.1"
   id="svg8"
   sodipodi:docname="platinenentwurf-kicad.svg"
   inkscape:version="0.92.3 (2405546, 2018-03-11)">
  <sodipodi:namedview
     pagecolor="#ffffff"
     bordercolor="#666666"
     borderopacity="1"
     objecttolerance="10"
     gridtolerance="10"
     guidetolerance="10"
     inkscape:pageopacity="0"
     inkscape:pageshadow="2"
     inkscape:window-width="1869"
     inkscape:window-height="1025"
     id="namedview866"
     showgrid="false"
     inkscape:pagecheckerboard="true"
     showguides="true"
     inkscape:guide-bbox="true"
     inkscape:zoom="0.40842783"
     inkscape:cx="-214.35101"
     inkscape:cy="364.29827"
     inkscape:window-x="51"
     inkscape:window-y="27"
     inkscape:window-maximized="1"
     inkscape:current-layer="svg8">
    <sodipodi:guide
       position="-27.02615,57.029757"
       orientation="0,1"
       id="guide983"
       inkscape:locked="false" />
    <sodipodi:guide
       position="16.719567,110.85302"
       orientation="1,0"
       id="guide985"
       inkscape:locked="false" />
  </sodipodi:namedview>
  <defs
     id="defs2">
    <linearGradient
       id="linearGradient30"
       spreadMethod="pad"
       gradientTransform="matrix(0,-46.513853,-46.513853,0,26.250064,37.547485)"
       gradientUnits="userSpaceOnUse"
       y2="0"
       x2="1"
       y1="0"
       x1="0">
      <stop
         id="stop24"
         offset="0"
         style="stop-opacity:1;stop-color:#f14531" />
      <stop
         id="stop26"
         offset="0.330076"
         style="stop-opacity:1;stop-color:#d23128" />
      <stop
         id="stop28"
         offset="1"
         style="stop-opacity:1;stop-color:#98131a" />
    </linearGradient>
  </defs>
  <metadata
     id="metadata5">
    <rdf:RDF>
      <cc:Work
         rdf:about="">
        <dc:format>image/svg+xml</dc:format>
        <dc:type
           rdf:resource="http://purl.org/dc/dcmitype/StillImage" />
        <dc:title></dc:title>
      </cc:Work>
    </rdf:RDF>
  </metadata>
  <path
     inkscape:connector-curvature="0"
     d="m 343.06126,179.78203 26.40885,15.24716 v 30.49431 l -26.40885,15.24716 -26.40885,-15.24716 v -30.49431 z"
     id="path23"
     style="opacity:1;fill:#ffffff;fill-opacity:1;stroke:none;stroke-width:0.69300276;stroke-linecap:butt;stroke-linejoin:miter;stroke-miterlimit:3.79999995;stroke-dasharray:none;stroke-opacity:1;paint-order:markers stroke fill" />
  <rect
     y="179.78218"
     x="0"
     height="60.988667"
     width="343.06125"
     id="rect21"
     style="opacity:1;fill:#ffffff;fill-opacity:1;stroke:none;stroke-width:0.70996273;stroke-linecap:butt;stroke-linejoin:miter;stroke-miterlimit:3.79999995;stroke-dasharray:none;stroke-opacity:1;paint-order:markers stroke fill" />
  <g
     id="g10"
     transform="matrix(0.6594572,0,0,-0.6594572,325.87335,227.63218)">
    <path
       inkscape:connector-curvature="0"
       style="fill:#ffffff;stroke:none;stroke-width:0.99017888px;stroke-linecap:butt;stroke-linejoin:miter;stroke-opacity:1"
       d="M -3.0094223,43.967414 26.133028,61.28313 55.960901,44.322183 56.896678,32.391033 47.187997,24.904821 57.949425,18.705303 55.726956,7.0080987 28.706414,-8.7831285 -5.4494237,6.4232377 Z"
       id="path33" />
    <path
       inkscape:connector-curvature="0"
       id="path32"
       style="fill:url(#linearGradient30);fill-opacity:1;fill-rule:nonzero;stroke:none;stroke-width:0.13202386"
       d="m 26.261813,-13.008806 -0.01189,0.0072 -0.01228,-0.0072 -0.01188,0.02115 -33.7259426,19.4554097 h -0.05724 l 0.01084,39.5468203 33.8140806,19.494239 33.78992,-19.492661 V 30.444071 h -0.06509 l 0.06509,-0.112484 -6.97152,-4.021578 6.97152,-4.021975 -0.0021,-0.0037 0.0021,-0.0011 V 6.5575257 h -0.033 l 0.033,-0.05677 -33.783715,-19.4884177 -0.01188,-0.02115 m 3.360402,41.496813 v 0 l 0.05518,-31.3412863 23.37799,13.3983213 v 7.698707 l -6.976007,4.024087 -7.107108,-4.099869 v 8.083293 l 14.083115,8.124087 v 7.59652 L 26.256672,57.431595 -0.55549667,41.96421 V 10.545041 L 22.62034,-2.8120226 V 24.438571 l -5.585269,-3.230491 -7.002413,4.039665 20.93621,12.112133 7.00545,-4.041778 -8.352094,-4.830093" />
  </g>
  <style
     type="text/css"
     id="style2">
	.st0{fill:#E9502D;}
</style>
  <style
     id="style1648"
     type="text/css">
	.st0{fill:#F14531;}
	.st1{fill:#616364;}
	.st2{fill:#393536;}
</style>
  <g
     aria-label="Platinenentwurf mit KiCad"
     style="font-style:italic;font-variant:normal;font-weight:900;font-stretch:normal;font-size:22.57777786px;line-height:1;font-family:'Exo 2';-inkscape-font-specification:'Exo 2, Heavy Italic';font-variant-ligatures:normal;font-variant-caps:normal;font-variant-numeric:normal;font-feature-settings:normal;text-align:start;letter-spacing:0px;word-spacing:0px;writing-mode:lr-tb;text-anchor:start;fill:#616364;fill-opacity:1;stroke:none;stroke-width:0.52786458"
     id="text946">
    <path
       d="m 13.994962,209.23811 2.190045,-15.57866 q 2.257778,-0.22578 6.276622,-0.22578 3.635022,0 4.944533,1.17404 1.309512,1.17405 0.903112,4.31236 -0.4064,2.95769 -1.738489,4.01884 -1.309511,1.06116 -4.425245,1.06116 -1.083733,0 -2.506133,-0.15805 l -0.767645,5.39609 z m 6.096,-8.69244 h 1.6256 q 0.925689,0 1.241778,-0.33867 0.338667,-0.33866 0.519289,-1.64818 0.135467,-0.97084 -0.09031,-1.30951 -0.225778,-0.36124 -1.038578,-0.36124 h -1.738489 z"
       style=""
       id="path2583" />
    <path
       d="m 35.188088,193.43367 -1.693333,11.7856 q -0.09031,0.42898 0.09031,0.58702 0.180622,0.13547 0.790222,0.13547 h 0.903111 l 0.270933,3.07058 q -0.970844,0.54186 -3.228622,0.54186 -1.896533,0 -2.889955,-0.88053 -0.970845,-0.88053 -0.790223,-2.37067 l 1.8288,-12.86933 z"
       style=""
       id="path2585" />
    <path
       d="m 44.566331,209.23811 -0.04516,-2.19004 q -1.512711,2.25778 -4.402667,2.46098 -1.580444,0.11289 -2.4384,-0.63218 -0.835378,-0.76765 -0.970844,-2.19005 -0.135467,-1.4224 0.135466,-3.40924 0.2032,-1.30951 0.541867,-2.25778 0.338667,-0.97084 0.857955,-1.58044 0.541867,-0.6096 1.083734,-0.97085 0.541866,-0.38382 1.399822,-0.56444 0.880533,-0.18062 1.6256,-0.22578 0.745067,-0.0452 1.919111,-0.0452 1.174045,0 3.002845,0.24835 1.8288,0.22578 2.483555,0.47413 l -1.535289,10.88249 z m 0.158045,-8.51182 h -1.038578 q -0.835378,0 -1.309511,0.47413 -0.474134,0.45156 -0.699911,1.94169 -0.316089,2.14489 -0.135467,2.50614 0.112889,0.27093 0.6096,0.22577 0.948267,-0.0677 2.099733,-1.73848 z"
       style=""
       id="path2587" />
    <path
       d="m 57.283973,200.79402 -0.632177,4.42525 q -0.06773,0.45155 0.04516,0.58702 0.135467,0.13547 0.654756,0.13547 h 1.332089 l 0.248355,3.07058 q -1.377244,0.54186 -3.770489,0.54186 -1.738489,0 -2.686755,-0.88053 -0.925689,-0.88053 -0.699912,-2.37067 l 0.8128,-5.50898 h -1.941688 l 0.338666,-2.73191 2.032,-0.11289 0.428978,-2.95768 h 4.6736 l -0.428978,2.95768 h 2.709334 l -0.383823,2.8448 z"
       style=""
       id="path2589" />
    <path
       d="m 63.864337,192.77891 h 1.8288 q 1.512711,0 1.354667,1.49014 l -0.158045,1.15146 q -0.158044,1.30951 -1.557866,1.30951 h -1.851378 q -1.490133,0 -1.332089,-1.49013 l 0.158044,-1.15147 q 0.135467,-1.30951 1.557867,-1.30951 z m 1.061156,16.4592 h -4.718756 l 1.557867,-11.28889 h 4.718755 z"
       style=""
       id="path2591" />
    <path
       d="m 72.256214,197.94922 0.112889,1.98685 q 1.083733,-1.08373 2.393244,-1.69333 1.309511,-0.6096 2.551289,-0.6096 1.467556,0 2.302934,0.85795 0.857955,0.83538 0.632177,2.39325 l -1.174044,8.35377 h -4.763911 l 0.970844,-6.81849 q 0.06773,-0.47413 -0.06773,-0.65475 -0.112889,-0.18062 -0.541867,-0.13547 -0.925689,0.0903 -1.986844,0.90311 l -0.948267,6.7056 h -4.741333 l 1.557866,-11.28889 z"
       style=""
       id="path2593" />
    <path
       d="m 92.466501,205.62567 0.316089,2.88995 q -2.144889,0.99343 -5.350933,0.99343 -1.896533,0 -3.160889,-0.38383 -1.264356,-0.38382 -1.941689,-1.17404 -0.677333,-0.79022 -0.903111,-1.85138 -0.2032,-1.08373 -0.04516,-2.59644 0.180623,-1.78365 0.699912,-2.95769 0.519288,-1.17405 1.4224,-1.78365 0.925689,-0.63217 2.032,-0.88053 1.128889,-0.24835 2.731911,-0.24835 3.386666,0 4.651022,1.03857 1.264356,1.03858 0.948267,3.16089 -0.2032,1.46756 -1.309511,2.05458 -1.083734,0.56444 -3.499556,0.74507 l -2.822222,0.2032 q 0.02258,0.63217 0.361244,0.83537 0.361245,0.2032 1.241778,0.2032 2.460978,0 4.628444,-0.24835 z m -5.937955,-3.09316 1.286933,-0.13546 q 0.8128,-0.0677 1.128889,-0.24836 0.338667,-0.2032 0.4064,-0.79022 0.04516,-0.38382 -0.180622,-0.54187 -0.2032,-0.15804 -0.857956,-0.13546 -0.835377,0.0226 -1.196622,0.38382 -0.361244,0.36124 -0.587022,1.46755 z"
       style=""
       id="path2595" />
    <path
       d="m 99.552395,197.94922 0.112889,1.98685 q 1.083736,-1.08373 2.393246,-1.69333 1.30951,-0.6096 2.55129,-0.6096 1.46755,0 2.30293,0.85795 0.85796,0.83538 0.63218,2.39325 l -1.17405,8.35377 h -4.76391 l 0.97085,-6.81849 q 0.0677,-0.47413 -0.0677,-0.65475 -0.11289,-0.18062 -0.54186,-0.13547 -0.92569,0.0903 -1.986848,0.90311 l -0.948266,6.7056 h -4.741334 l 1.557867,-11.28889 z"
       style=""
       id="path2597" />
    <path
       d="m 119.76268,205.62567 0.31609,2.88995 q -2.14489,0.99343 -5.35093,0.99343 -1.89654,0 -3.16089,-0.38383 -1.26436,-0.38382 -1.94169,-1.17404 -0.67733,-0.79022 -0.90311,-1.85138 -0.2032,-1.08373 -0.0452,-2.59644 0.18063,-1.78365 0.69991,-2.95769 0.51929,-1.17405 1.4224,-1.78365 0.92569,-0.63217 2.032,-0.88053 1.12889,-0.24835 2.73192,-0.24835 3.38666,0 4.65102,1.03857 1.26435,1.03858 0.94826,3.16089 -0.2032,1.46756 -1.30951,2.05458 -1.08373,0.56444 -3.49955,0.74507 l -2.82222,0.2032 q 0.0226,0.63217 0.36124,0.83537 0.36124,0.2032 1.24178,0.2032 2.46098,0 4.62844,-0.24835 z m -5.93795,-3.09316 1.28693,-0.13546 q 0.8128,-0.0677 1.12889,-0.24836 0.33867,-0.2032 0.4064,-0.79022 0.0451,-0.38382 -0.18062,-0.54187 -0.2032,-0.15804 -0.85796,-0.13546 -0.83538,0.0226 -1.19662,0.38382 -0.36125,0.36124 -0.58702,1.46755 z"
       style=""
       id="path2599" />
    <path
       d="m 126.84858,197.94922 0.11288,1.98685 q 1.08374,-1.08373 2.39325,-1.69333 1.30951,-0.6096 2.55129,-0.6096 1.46755,0 2.30293,0.85795 0.85796,0.83538 0.63218,2.39325 l -1.17405,8.35377 h -4.76391 l 0.97085,-6.81849 q 0.0677,-0.47413 -0.0677,-0.65475 -0.11288,-0.18062 -0.54186,-0.13547 -0.92569,0.0903 -1.98685,0.90311 l -0.94826,6.7056 h -4.74134 l 1.55787,-11.28889 z"
       style=""
       id="path2601" />
    <path
       d="m 142.6562,200.79402 -0.63218,4.42525 q -0.0677,0.45155 0.0452,0.58702 0.13547,0.13547 0.65476,0.13547 h 1.33209 l 0.24835,3.07058 q -1.37724,0.54186 -3.77048,0.54186 -1.73849,0 -2.68676,-0.88053 -0.92569,-0.88053 -0.69991,-2.37067 l 0.8128,-5.50898 h -1.94169 l 0.33867,-2.73191 2.032,-0.11289 0.42897,-2.95768 h 4.6736 l -0.42897,2.95768 h 2.70933 l -0.38382,2.8448 z"
       style=""
       id="path2603" />
    <path
       d="m 150.97504,206.303 h 0.13547 q 0.58702,0 0.94826,-1.49013 0.2032,-0.83538 0.4064,-2.05458 0.0903,-0.54187 0.27094,-1.78364 0.18062,-1.26436 0.27093,-1.85138 0.0677,-0.45156 0.4064,-0.8128 0.33867,-0.36125 0.99342,-0.36125 h 3.88338 q 0.54187,0 0.90311,0.33867 0.38382,0.33867 0.45156,0.85796 v 7.15715 h 0.15804 q 0.0903,0 0.15805,-0.0226 0.0903,-0.0226 0.15804,-0.0677 0.0677,-0.0677 0.11289,-0.11289 0.0452,-0.0677 0.0903,-0.18062 0.0452,-0.13547 0.0677,-0.2032 0.0452,-0.0903 0.0677,-0.24836 0.0452,-0.18062 0.0677,-0.27093 0.0226,-0.11289 0.0677,-0.31609 0.0452,-0.2032 0.0677,-0.33866 0.13546,-0.58703 0.45155,-2.57387 0.27094,-1.78365 0.42898,-4.01885 h 4.69618 q -0.29351,2.61903 -0.76765,4.65103 -0.54186,2.34809 -1.10631,3.74791 -0.65475,1.6256 -1.67075,2.25778 -0.99342,0.63217 -3.29636,0.63217 h -1.73849 q -0.56444,0 -0.94826,-0.36124 -0.38383,-0.38382 -0.33867,-0.90311 v -7.22489 h -0.27093 q -0.13547,1.17404 -0.42898,2.77707 -0.29351,1.6256 -0.51929,2.50613 -0.24836,0.90311 -0.6096,1.51271 -0.33867,0.6096 -0.69991,0.94827 -0.36125,0.33866 -0.97085,0.51929 -0.58702,0.15804 -1.06115,0.2032 -0.45156,0.0226 -1.28693,0.0226 h -2.48356 q -0.54187,0 -0.92569,-0.36124 -0.36124,-0.36125 -0.4064,-0.90311 l -0.36124,-10.04711 h 4.80906 z"
       style=""
       id="path2605" />
    <path
       d="m 179.8245,197.94922 -1.55786,11.28889 h -3.70276 l -0.0903,-1.91911 q -2.30293,2.2352 -4.60587,2.2352 -1.76106,0 -2.57386,-0.83538 -0.79023,-0.85795 -0.56445,-2.41582 l 1.15147,-8.35378 h 4.76391 l -1.016,7.02169 q -0.0903,0.6096 0.51929,0.6096 0.88053,0 2.00942,-0.83537 l 0.97085,-6.79592 z"
       style=""
       id="path2607" />
    <path
       d="m 190.98428,197.63314 -0.97085,4.33493 h -1.06115 q -1.15147,0 -3.00285,0.29351 l -0.94827,6.97653 h -4.76391 l 1.58045,-11.28889 h 3.70275 l 0.15805,1.53529 q 2.2352,-1.85137 4.49298,-1.85137 z"
       style=""
       id="path2609" />
    <path
       d="m 201.05785,196.05269 h -1.80622 q -0.67734,0 -0.97085,0.27093 -0.29351,0.27094 -0.4064,0.99343 l -0.0903,0.63217 h 2.6416 l -0.38382,2.8448 h -2.68676 l -1.35466,9.16658 q -0.54187,3.58987 -4.28978,3.58987 -1.12889,0 -3.49956,-0.33867 l 0.72249,-2.82222 h 1.10631 q 0.69991,0 1.016,-0.27093 0.31609,-0.27094 0.42898,-0.99343 l 1.19662,-8.3312 h -1.8288 l 0.33867,-2.73191 1.91911,-0.11289 0.2032,-1.46755 q 0.54187,-3.58987 4.28978,-3.58987 2.50613,0 4.17689,0.33867 z"
       style=""
       id="path2611" />
    <path
       d="m 209.61906,197.94922 0.13547,1.60303 q 1.98684,-1.91911 4.10915,-1.91911 2.34809,0 2.86738,1.6256 1.8288,-1.6256 3.83822,-1.6256 1.67076,0 2.46098,0.85795 0.79022,0.85796 0.56444,2.39325 l -1.17404,8.35377 h -4.69618 l 0.97085,-7.02169 q 0.0903,-0.58702 -0.42898,-0.58702 -0.65476,0 -1.6256,0.67734 l -0.97085,6.93137 h -4.53813 l 0.97085,-7.02169 q 0.11288,-0.58702 -0.42898,-0.58702 -0.67734,0 -1.64818,0.63218 l -0.94827,6.97653 h -4.71875 l 1.58044,-11.28889 z"
       style=""
       id="path2613" />
    <path
       d="m 228.08239,192.77891 h 1.8288 q 1.51271,0 1.35467,1.49014 l -0.15804,1.15146 q -0.15805,1.30951 -1.55787,1.30951 h -1.85138 q -1.49013,0 -1.33209,-1.49013 l 0.15805,-1.15147 q 0.13546,-1.30951 1.55786,-1.30951 z m 1.06116,16.4592 h -4.71876 l 1.55787,-11.28889 h 4.71876 z"
       style=""
       id="path2615" />
    <path
       d="m 238.30307,200.79402 -0.63218,4.42525 q -0.0677,0.45155 0.0452,0.58702 0.13546,0.13547 0.65475,0.13547 h 1.33209 l 0.24836,3.07058 q -1.37725,0.54186 -3.77049,0.54186 -1.73849,0 -2.68676,-0.88053 -0.92569,-0.88053 -0.69991,-2.37067 l 0.8128,-5.50898 h -1.94169 l 0.33867,-2.73191 2.032,-0.11289 0.42898,-2.95768 h 4.6736 l -0.42898,2.95768 h 2.70933 l -0.38382,2.8448 z"
       style=""
       id="path2617" />
    <path
       d="m 256.21606,201.49394 -0.0226,0.0903 q 0.31608,0.13546 0.67733,0.6096 0.36124,0.45155 0.56444,0.97084 l 2.70934,6.07342 h -5.2832 l -2.41583,-6.5024 h -0.69991 q 0.0903,0.72249 -0.0226,1.51271 l -0.69992,4.98969 h -4.92195 l 2.19004,-15.57866 h 4.92196 l -0.6096,4.31235 q -0.11289,0.85796 -0.36125,1.60302 h 0.74507 l 3.79307,-5.91537 h 5.41866 l -4.35751,6.5024 q -0.6096,0.94826 -1.6256,1.33209 z"
       style=""
       id="path2619" />
    <path
       d="m 264.72718,192.77891 h 1.8288 q 1.51271,0 1.35467,1.49014 l -0.15804,1.15146 q -0.15805,1.30951 -1.55787,1.30951 h -1.85138 q -1.49013,0 -1.33209,-1.49013 l 0.15805,-1.15147 q 0.13546,-1.30951 1.55786,-1.30951 z m 1.06116,16.4592 h -4.71876 l 1.55787,-11.28889 h 4.71876 z"
       style=""
       id="path2621" />
    <path
       d="m 280.09559,205.19669 0.18063,3.58987 q -2.32552,0.72249 -5.39609,0.72249 -3.95111,0 -5.37351,-1.8288 -1.4224,-1.85138 -0.79023,-6.41209 0.33867,-2.39325 0.85796,-3.88338 0.54187,-1.49013 1.49013,-2.39324 0.94827,-0.92569 2.2352,-1.26436 1.30951,-0.33867 3.31894,-0.33867 2.88995,0 5.12515,0.63218 l -0.56444,3.54471 q -3.29636,-0.0452 -4.80907,-0.0452 -0.85796,0 -1.28693,0.27093 -0.42898,0.24836 -0.72249,1.12889 -0.29351,0.85795 -0.54187,2.70933 -0.33867,2.30294 -0.13547,3.02542 0.2032,0.72249 1.4224,0.72249 3.07058,0 4.98969,-0.18062 z"
       style=""
       id="path2623" />
    <path
       d="m 289.70279,209.23811 -0.0452,-2.19004 q -1.51271,2.25778 -4.40267,2.46098 -1.58044,0.11289 -2.4384,-0.63218 -0.83537,-0.76765 -0.97084,-2.19005 -0.13547,-1.4224 0.13547,-3.40924 0.2032,-1.30951 0.54186,-2.25778 0.33867,-0.97084 0.85796,-1.58044 0.54187,-0.6096 1.08373,-0.97085 0.54187,-0.38382 1.39982,-0.56444 0.88054,-0.18062 1.6256,-0.22578 0.74507,-0.0452 1.91912,-0.0452 1.17404,0 3.00284,0.24835 1.8288,0.22578 2.48356,0.47413 l -1.53529,10.88249 z m 0.15804,-8.51182 h -1.03858 q -0.83537,0 -1.30951,0.47413 -0.47413,0.45156 -0.69991,1.94169 -0.31609,2.14489 -0.13547,2.50614 0.11289,0.27093 0.6096,0.22577 0.94827,-0.0677 2.09974,-1.73848 z"
       style=""
       id="path2625" />
    <path
       d="m 309.50985,193.43367 -2.2352,15.80444 h -3.74791 l -0.0903,-1.80622 q -2.16747,2.07716 -4.22205,2.07716 -4.17689,0 -3.40924,-6.23147 0.4064,-3.18347 1.6256,-4.40267 1.2192,-1.24177 3.16089,-1.24177 2.12231,0 3.61244,0.29351 0,-1.35467 0.15804,-2.34809 l 0.4064,-2.14489 z m -5.80249,7.06684 h -1.06116 q -1.016,0 -1.39982,0.49671 -0.38382,0.47414 -0.6096,2.14489 -0.22578,1.2192 -0.13547,1.85138 0.0903,0.63218 0.72249,0.58702 0.85796,-0.0452 1.89654,-0.79022 z"
       style=""
       id="path2627" />
  </g>
  <g
     aria-label="Jonas Otto"
     style="font-style:italic;font-variant:normal;font-weight:bold;font-stretch:normal;font-size:15.875px;line-height:1;font-family:'Exo 2';-inkscape-font-specification:'Exo 2, Bold Italic';font-variant-ligatures:normal;font-variant-caps:normal;font-variant-numeric:normal;font-feature-settings:normal;text-align:start;letter-spacing:0px;word-spacing:0px;writing-mode:lr-tb;text-anchor:start;fill:#393536;fill-opacity:1;stroke:none;stroke-width:0.26458335"
     id="text989">
    <path
       d="m 21.975734,218.23653 -1.222375,8.6995 q -0.15875,1.19062 -0.85725,1.82562 -0.682625,0.61913 -1.778,0.61913 -1.285875,0 -2.016125,-0.33338 l 0.41275,-1.60337 h 0.650875 q 1.0795,0 1.2065,-0.889 l 1.17475,-8.3185 z"
       style=""
       id="path2630" />
    <path
       d="m 27.154704,221.14165 q 2.174875,0 3.032125,0.98425 0.85725,0.98425 0.53975,3.25438 -0.301625,2.20662 -1.317625,3.1115 -1.000125,0.90487 -3.127375,0.90487 -2.159,0 -3.048,-0.98425 -0.873125,-0.98425 -0.555625,-3.22262 0.3175,-2.2225 1.317625,-3.12738 1.000125,-0.92075 3.159125,-0.92075 z m -0.01587,1.76213 q -0.968375,0 -1.397,0.49212 -0.41275,0.49213 -0.619125,1.98438 -0.1905,1.36525 0.04763,1.80975 0.238125,0.4445 1.158875,0.4445 0.9525,0 1.36525,-0.49213 0.41275,-0.508 0.619125,-1.95262 0.206375,-1.36525 -0.04763,-1.82563 -0.238125,-0.46037 -1.127125,-0.46037 z"
       style=""
       id="path2632" />
    <path
       d="m 34.694337,221.3639 v 1.55575 q 1.825625,-1.778 3.571875,-1.778 1.000125,0 1.539875,0.58738 0.53975,0.5715 0.381,1.63512 l -0.8255,5.82613 h -2.333625 l 0.714375,-5.12763 q 0.07937,-0.55562 -0.03175,-0.74612 -0.111125,-0.20638 -0.492125,-0.1905 -0.889,0.0159 -2.44475,1.23825 l -0.66675,4.826 h -2.3495 l 1.095375,-7.82638 z"
       style=""
       id="path2634" />
    <path
       d="m 48.691374,229.19028 h -1.825625 l 0.01588,-1.41288 q -1.2065,1.55575 -3.20675,1.60338 -1.476375,0.0476 -2.00025,-0.9525 -0.508,-1.016 -0.174625,-3.302 0.15875,-1.0795 0.4445,-1.80975 0.28575,-0.74613 0.635,-1.17475 0.34925,-0.42863 0.904875,-0.65088 0.555625,-0.22225 1.063625,-0.28575 0.523875,-0.0635 1.317625,-0.0635 0.841375,0 2.016125,0.14288 1.17475,0.14287 1.87325,0.33337 z m -1.444625,-6.31825 h -1.2065 q -1.143,0 -1.55575,0.39687 -0.41275,0.39688 -0.619125,1.88913 -0.206375,1.50812 -0.09525,1.93675 0.111125,0.41275 0.682625,0.381 1.04775,-0.0159 2.3495,-1.47638 z"
       style=""
       id="path2636" />
    <path
       d="m 54.530894,226.3804 -1.889125,-0.77787 q -0.9525,-0.381 -1.3335,-0.96838 -0.381,-0.58737 -0.269875,-1.47637 0.127,-1.0795 0.936625,-1.55575 0.8255,-0.47625 2.57175,-0.46038 2.159,0.0317 3.6195,0.3175 l -0.22225,1.49225 q -3.048,-0.0476 -3.095625,-0.0476 -0.92075,0 -1.222375,0.0794 -0.301625,0.0635 -0.34925,0.33338 -0.03175,0.26987 0.142875,0.41275 0.1905,0.127 0.714375,0.33337 l 1.920875,0.762 q 0.968375,0.381 1.36525,0.92075 0.396875,0.53975 0.28575,1.44463 -0.09525,0.6985 -0.381,1.143 -0.269875,0.4445 -0.79375,0.66675 -0.523875,0.22225 -1.127125,0.28575 -0.60325,0.0794 -1.539875,0.0794 -1.42875,0 -3.444875,-0.28575 l 0.22225,-1.50812 q 0.5715,0.0317 2.492375,0.0317 1.36525,0 1.80975,-0.0952 0.4445,-0.0952 0.508,-0.41275 0.03175,-0.23813 -0.127,-0.34925 -0.142875,-0.11113 -0.587375,-0.28575 -0.127,-0.0476 -0.206375,-0.0794 z"
       style=""
       id="path2638" />
    <path
       d="m 64.48824,219.25253 q 1.17475,-1.22238 3.698875,-1.22238 2.524125,0 3.4925,1.30175 0.968375,1.28588 0.523875,4.47675 -0.428625,3.20675 -1.603375,4.39738 -1.158875,1.19062 -3.667125,1.19062 -2.57175,0 -3.52425,-1.27 -0.9525,-1.27 -0.523875,-4.5085 0.4445,-3.15912 1.603375,-4.36562 z m 3.6195,0.73025 q -1.27,0 -1.80975,0.77787 -0.53975,0.762 -0.873125,3.048 -0.301625,2.14313 0.01588,2.88925 0.3175,0.74613 1.539875,0.74613 1.254125,0 1.80975,-0.77788 0.555625,-0.79375 0.889,-3.048 0.3175,-2.17487 -0.01588,-2.90512 -0.3175,-0.73025 -1.55575,-0.73025 z"
       style=""
       id="path2640" />
    <path
       d="m 77.040404,222.93553 -0.523875,3.7465 q -0.0635,0.4445 0.0635,0.60325 0.142875,0.14287 0.619125,0.14287 h 1.04775 l 0.111125,1.651 q -0.841375,0.30163 -2.19075,0.30163 -1.11125,0 -1.651,-0.60325 -0.53975,-0.61913 -0.381,-1.69863 l 0.60325,-4.14337 h -1.412875 l 0.1905,-1.49225 1.444625,-0.0794 0.3175,-2.19075 h 2.301875 l -0.301625,2.19075 h 2.159 l -0.22225,1.57163 z"
       style=""
       id="path2642" />
    <path
       d="m 83.551634,222.93553 -0.523875,3.7465 q -0.0635,0.4445 0.0635,0.60325 0.142875,0.14287 0.619125,0.14287 h 1.04775 l 0.111125,1.651 q -0.841375,0.30163 -2.19075,0.30163 -1.11125,0 -1.651,-0.60325 -0.53975,-0.61913 -0.381,-1.69863 l 0.60325,-4.14337 h -1.412875 l 0.1905,-1.49225 1.444625,-0.0794 0.3175,-2.19075 h 2.301875 l -0.301625,2.19075 h 2.159 l -0.22225,1.57163 z"
       style=""
       id="path2644" />
    <path
       d="m 90.84074,221.14165 q 2.174875,0 3.032125,0.98425 0.85725,0.98425 0.53975,3.25438 -0.301625,2.20662 -1.317625,3.1115 -1.000125,0.90487 -3.127375,0.90487 -2.159,0 -3.048,-0.98425 -0.873125,-0.98425 -0.555625,-3.22262 0.3175,-2.2225 1.317625,-3.12738 1.000125,-0.92075 3.159125,-0.92075 z m -0.01587,1.76213 q -0.968375,0 -1.397,0.49212 -0.41275,0.49213 -0.619125,1.98438 -0.1905,1.36525 0.04762,1.80975 0.238125,0.4445 1.158875,0.4445 0.9525,0 1.36525,-0.49213 0.41275,-0.508 0.619125,-1.95262 0.206375,-1.36525 -0.04763,-1.82563 -0.238125,-0.46037 -1.127125,-0.46037 z"
       style=""
       id="path2646" />
  </g>
</svg>
