<?xml version="1.0" encoding="UTF-8" standalone="no"?>
<svg
   xmlns:dc="http://purl.org/dc/elements/1.1/"
   xmlns:cc="http://creativecommons.org/ns#"
   xmlns:rdf="http://www.w3.org/1999/02/22-rdf-syntax-ns#"
   xmlns:svg="http://www.w3.org/2000/svg"
   xmlns="http://www.w3.org/2000/svg"
   xmlns:sodipodi="http://sodipodi.sourceforge.net/DTD/sodipodi-0.dtd"
   xmlns:inkscape="http://www.inkscape.org/namespaces/inkscape"
   width="1920"
   height="1080"
   viewBox="0 0 507.99999 285.75001"
   version="1.1"
   id="svg8"
   sodipodi:docname="spieleentwicklung.svg"
   inkscape:version="0.92.3 (2405546, 2018-03-11)">
  <sodipodi:namedview
     pagecolor="#ffffff"
     bordercolor="#666666"
     borderopacity="1"
     objecttolerance="10"
     gridtolerance="10"
     guidetolerance="10"
     inkscape:pageopacity="0"
     inkscape:pageshadow="2"
     inkscape:window-width="1869"
     inkscape:window-height="1025"
     id="namedview866"
     showgrid="false"
     inkscape:pagecheckerboard="true"
     showguides="true"
     inkscape:guide-bbox="true"
     inkscape:zoom="0.81685565"
     inkscape:cx="545.68049"
     inkscape:cy="195.52509"
     inkscape:window-x="51"
     inkscape:window-y="27"
     inkscape:window-maximized="1"
     inkscape:current-layer="svg8">
    <sodipodi:guide
       position="-27.02615,57.029757"
       orientation="0,1"
       id="guide983"
       inkscape:locked="false" />
    <sodipodi:guide
       position="16.719567,110.85302"
       orientation="1,0"
       id="guide985"
       inkscape:locked="false" />
  </sodipodi:namedview>
  <defs
     id="defs2">
    <linearGradient
       id="linearGradient30"
       spreadMethod="pad"
       gradientTransform="matrix(0,-46.513853,-46.513853,0,26.250064,37.547485)"
       gradientUnits="userSpaceOnUse"
       y2="0"
       x2="1"
       y1="0"
       x1="0">
      <stop
         id="stop24"
         offset="0"
         style="stop-opacity:1;stop-color:#f14531" />
      <stop
         id="stop26"
         offset="0.330076"
         style="stop-opacity:1;stop-color:#d23128" />
      <stop
         id="stop28"
         offset="1"
         style="stop-opacity:1;stop-color:#98131a" />
    </linearGradient>
  </defs>
  <metadata
     id="metadata5">
    <rdf:RDF>
      <cc:Work
         rdf:about="">
        <dc:format>image/svg+xml</dc:format>
        <dc:type
           rdf:resource="http://purl.org/dc/dcmitype/StillImage" />
        <dc:title />
      </cc:Work>
    </rdf:RDF>
  </metadata>
  <path
     inkscape:connector-curvature="0"
     d="m 343.06126,179.78203 26.40885,15.24716 v 30.49431 l -26.40885,15.24716 -26.40885,-15.24716 v -30.49431 z"
     id="path23"
     style="opacity:1;fill:#ffffff;fill-opacity:1;stroke:none;stroke-width:0.69300276;stroke-linecap:butt;stroke-linejoin:miter;stroke-miterlimit:3.79999995;stroke-dasharray:none;stroke-opacity:1;paint-order:markers stroke fill" />
  <rect
     y="179.78218"
     x="0"
     height="60.988667"
     width="343.06125"
     id="rect21"
     style="opacity:1;fill:#ffffff;fill-opacity:1;stroke:none;stroke-width:0.70996273;stroke-linecap:butt;stroke-linejoin:miter;stroke-miterlimit:3.79999995;stroke-dasharray:none;stroke-opacity:1;paint-order:markers stroke fill" />
  <g
     id="g10"
     transform="matrix(0.6594572,0,0,-0.6594572,325.87335,227.63218)">
    <path
       inkscape:connector-curvature="0"
       style="fill:#ffffff;stroke:none;stroke-width:0.99017888px;stroke-linecap:butt;stroke-linejoin:miter;stroke-opacity:1"
       d="M -3.0094223,43.967414 26.133028,61.28313 55.960901,44.322183 56.896678,32.391033 47.187997,24.904821 57.949425,18.705303 55.726956,7.0080987 28.706414,-8.7831285 -5.4494237,6.4232377 Z"
       id="path33" />
    <path
       inkscape:connector-curvature="0"
       id="path32"
       style="fill:url(#linearGradient30);fill-opacity:1;fill-rule:nonzero;stroke:none;stroke-width:0.13202386"
       d="m 26.261813,-13.008806 -0.01189,0.0072 -0.01228,-0.0072 -0.01188,0.02115 -33.7259426,19.4554097 h -0.05724 l 0.01084,39.5468203 33.8140806,19.494239 33.78992,-19.492661 V 30.444071 h -0.06509 l 0.06509,-0.112484 -6.97152,-4.021578 6.97152,-4.021975 -0.0021,-0.0037 0.0021,-0.0011 V 6.5575257 h -0.033 l 0.033,-0.05677 -33.783715,-19.4884177 -0.01188,-0.02115 m 3.360402,41.496813 v 0 l 0.05518,-31.3412863 23.37799,13.3983213 v 7.698707 l -6.976007,4.024087 -7.107108,-4.099869 v 8.083293 l 14.083115,8.124087 v 7.59652 L 26.256672,57.431595 -0.55549667,41.96421 V 10.545041 L 22.62034,-2.8120226 V 24.438571 l -5.585269,-3.230491 -7.002413,4.039665 20.93621,12.112133 7.00545,-4.041778 -8.352094,-4.830093" />
  </g>
  <style
     type="text/css"
     id="style2">
	.st0{fill:#E9502D;}
</style>
  <style
     id="style1648"
     type="text/css">
	.st0{fill:#F14531;}
	.st1{fill:#616364;}
	.st2{fill:#393536;}
</style>
  <g
     aria-label="Spieleentwicklung: Einstieg mit PICO-8, PyGame &amp; Godot"
     style="font-style:italic;font-variant:normal;font-weight:900;font-stretch:normal;font-size:14.11111164px;line-height:1;font-family:'Exo 2';-inkscape-font-specification:'Exo 2, Heavy Italic';font-variant-ligatures:normal;font-variant-caps:normal;font-variant-numeric:normal;font-feature-settings:normal;text-align:start;letter-spacing:0px;word-spacing:0px;writing-mode:lr-tb;text-anchor:start;fill:#616364;fill-opacity:1;stroke:none;stroke-width:0.52786458"
     id="text946">
    <path
       d="m 18.177496,193.75118 -1.778,-0.87489 q -1.157111,-0.56444 -1.538111,-1.28411 -0.366889,-0.71967 -0.254,-1.70744 0.183444,-1.56634 1.143,-2.159 0.973666,-0.59267 3.033889,-0.59267 1.975555,0 3.485444,0.508 l -0.268111,1.94733 q -1.721555,-0.0282 -3.414889,-0.0282 -0.493889,0 -0.705555,0.0847 -0.197556,0.0847 -0.254,0.31044 -0.02822,0.16933 0.08467,0.31045 0.127,0.127 0.536222,0.32455 l 1.636889,0.77611 q 1.157112,0.55034 1.524,1.22767 0.381,0.67733 0.254,1.80622 -0.183444,1.66511 -1.058333,2.27189 -0.874889,0.59267 -3.005667,0.59267 -1.876778,0 -3.795889,-0.49389 l 0.282223,-2.13078 q 2.723444,0.0706 3.358444,0.0706 0.635,0 0.889,-0.0847 0.254,-0.0988 0.310445,-0.32456 0.04233,-0.16933 -0.05645,-0.28222 -0.09878,-0.11289 -0.409222,-0.26811 z"
       style=""
       id="path1893" />
    <path
       d="m 25.607878,190.01174 v 1.24177 q 1.354666,-1.41111 2.836333,-1.41111 1.213556,0 1.707445,0.98778 0.508,0.98778 0.268111,2.90689 -0.141111,1.05833 -0.437445,1.778 -0.282222,0.71967 -0.733778,1.08655 -0.437444,0.36689 -0.945444,0.508 -0.493889,0.15523 -1.171222,0.15523 -0.945445,0 -1.947334,-0.18345 0,0.66322 -0.09878,1.31234 l -0.197556,1.21355 h -2.963333 l 1.326444,-9.59555 z m -0.112889,5.461 H 26.1441 q 0.677333,0 0.874889,-0.29634 0.211667,-0.29633 0.366889,-1.35466 0.09878,-0.70556 0.09878,-1.05834 0,-0.35278 -0.09878,-0.49389 -0.08467,-0.15522 -0.310445,-0.15522 -0.592666,0 -1.255889,0.66322 z"
       style=""
       id="path1895" />
    <path
       d="m 33.301741,186.78029 h 1.143 q 0.945445,0 0.846667,0.93133 l -0.09878,0.71967 q -0.09878,0.81845 -0.973666,0.81845 h -1.157111 q -0.931334,0 -0.832556,-0.93134 l 0.09878,-0.71966 q 0.08467,-0.81845 0.973666,-0.81845 z m 0.663223,10.287 h -2.949223 l 0.973667,-7.05555 h 2.949222 z"
       style=""
       id="path1897" />
    <path
       d="m 42.441331,194.80951 0.197556,1.80623 q -1.340556,0.62088 -3.344334,0.62088 -1.185333,0 -1.975555,-0.23988 -0.790223,-0.23989 -1.213556,-0.73378 -0.423333,-0.49389 -0.564444,-1.15711 -0.127,-0.67734 -0.02822,-1.62278 0.112889,-1.11478 0.437445,-1.84856 0.324555,-0.73377 0.889,-1.11477 0.578556,-0.39512 1.27,-0.55034 0.705556,-0.15522 1.707445,-0.15522 2.116666,0 2.906889,0.64911 0.790222,0.64911 0.592666,1.97556 -0.127,0.91722 -0.818444,1.28411 -0.677334,0.35278 -2.187223,0.46566 l -1.763889,0.127 q 0.01411,0.39512 0.225778,0.52212 0.225778,0.127 0.776111,0.127 1.538112,0 2.892778,-0.15523 z m -3.711222,-1.93322 0.804333,-0.0847 q 0.508,-0.0423 0.705556,-0.15522 0.211667,-0.127 0.254,-0.49389 0.02822,-0.23989 -0.112889,-0.33866 -0.127,-0.0988 -0.536222,-0.0847 -0.522111,0.0141 -0.747889,0.23989 -0.225778,0.22578 -0.366889,0.91722 z"
       style=""
       id="path1899" />
    <path
       d="m 47.928349,187.18951 -1.058334,7.366 q -0.05644,0.26811 0.05644,0.36689 0.112889,0.0847 0.493889,0.0847 h 0.564444 l 0.169334,1.91911 q -0.606778,0.33867 -2.017889,0.33867 -1.185334,0 -1.806223,-0.55034 -0.606778,-0.55033 -0.493889,-1.48166 l 1.143,-8.04334 z"
       style=""
       id="path1901" />
    <path
       d="m 55.753181,194.80951 0.197555,1.80623 q -1.340555,0.62088 -3.344333,0.62088 -1.185333,0 -1.975556,-0.23988 -0.790222,-0.23989 -1.213555,-0.73378 -0.423334,-0.49389 -0.564445,-1.15711 -0.127,-0.67734 -0.02822,-1.62278 0.112889,-1.11478 0.437445,-1.84856 0.324555,-0.73377 0.889,-1.11477 0.578555,-0.39512 1.27,-0.55034 0.705555,-0.15522 1.707444,-0.15522 2.116667,0 2.906889,0.64911 0.790222,0.64911 0.592667,1.97556 -0.127,0.91722 -0.818445,1.28411 -0.677333,0.35278 -2.187222,0.46566 l -1.763889,0.127 q 0.01411,0.39512 0.225778,0.52212 0.225778,0.127 0.776111,0.127 1.538111,0 2.892778,-0.15523 z m -3.711222,-1.93322 0.804333,-0.0847 q 0.508,-0.0423 0.705555,-0.15522 0.211667,-0.127 0.254,-0.49389 0.02822,-0.23989 -0.112888,-0.33866 -0.127,-0.0988 -0.536223,-0.0847 -0.522111,0.0141 -0.747889,0.23989 -0.225777,0.22578 -0.366888,0.91722 z"
       style=""
       id="path1903" />
    <path
       d="m 64.07653,194.80951 0.197555,1.80623 q -1.340555,0.62088 -3.344333,0.62088 -1.185333,0 -1.975556,-0.23988 -0.790222,-0.23989 -1.213555,-0.73378 -0.423334,-0.49389 -0.564445,-1.15711 -0.127,-0.67734 -0.02822,-1.62278 0.112889,-1.11478 0.437445,-1.84856 0.324555,-0.73377 0.889,-1.11477 0.578555,-0.39512 1.27,-0.55034 0.705555,-0.15522 1.707444,-0.15522 2.116667,0 2.906889,0.64911 0.790222,0.64911 0.592667,1.97556 -0.127,0.91722 -0.818445,1.28411 -0.677333,0.35278 -2.187222,0.46566 l -1.763889,0.127 q 0.01411,0.39512 0.225778,0.52212 0.225778,0.127 0.776111,0.127 1.538111,0 2.892778,-0.15523 z m -3.711223,-1.93322 0.804334,-0.0847 q 0.508,-0.0423 0.705555,-0.15522 0.211667,-0.127 0.254,-0.49389 0.02822,-0.23989 -0.112888,-0.33866 -0.127,-0.0988 -0.536223,-0.0847 -0.522111,0.0141 -0.747889,0.23989 -0.225777,0.22578 -0.366889,0.91722 z"
       style=""
       id="path1905" />
    <path
       d="m 68.505216,190.01174 0.07055,1.24177 q 0.677334,-0.67733 1.495778,-1.05833 0.818445,-0.381 1.594556,-0.381 0.917222,0 1.439333,0.53622 0.536222,0.52211 0.395111,1.49578 l -0.733777,5.22111 h -2.977445 l 0.606778,-4.26155 q 0.04233,-0.29634 -0.04233,-0.40923 -0.07055,-0.11289 -0.338666,-0.0847 -0.578556,0.0564 -1.241778,0.56444 l -0.592667,4.191 h -2.963333 l 0.973667,-7.05555 z"
       style=""
       id="path1907" />
    <path
       d="m 78.384979,191.78974 -0.395111,2.76577 q -0.04233,0.28223 0.02822,0.36689 0.08467,0.0847 0.409222,0.0847 h 0.832556 l 0.155222,1.91911 q -0.860778,0.33867 -2.356556,0.33867 -1.086555,0 -1.679222,-0.55034 -0.578555,-0.55033 -0.437444,-1.48166 l 0.508,-3.44311 h -1.213556 l 0.211667,-1.70745 1.27,-0.0705 0.268111,-1.84856 h 2.921 l -0.268111,1.84856 h 1.693333 l -0.239889,1.778 z"
       style=""
       id="path1909" />
    <path
       d="m 83.584258,195.23285 h 0.08467 q 0.366889,0 0.592666,-0.93134 0.127,-0.52211 0.254,-1.28411 0.05644,-0.33866 0.169334,-1.11478 0.112889,-0.79022 0.169333,-1.15711 0.04233,-0.28222 0.254,-0.508 0.211667,-0.22577 0.620889,-0.22577 h 2.427111 q 0.338667,0 0.564445,0.21166 0.239889,0.21167 0.282222,0.53622 v 4.47323 h 0.09878 q 0.05644,0 0.09878,-0.0141 0.05644,-0.0141 0.09878,-0.0423 0.04233,-0.0423 0.07056,-0.0705 0.02822,-0.0423 0.05644,-0.11289 0.02822,-0.0847 0.04233,-0.127 0.02822,-0.0565 0.04233,-0.15522 0.02822,-0.11289 0.04233,-0.16934 0.01411,-0.0705 0.04233,-0.19755 0.02822,-0.127 0.04233,-0.21167 0.08467,-0.36689 0.282222,-1.60867 0.169334,-1.11477 0.268111,-2.51177 h 2.935112 q -0.183445,1.63688 -0.479778,2.90688 -0.338667,1.46756 -0.691445,2.34245 -0.409222,1.016 -1.044222,1.41111 -0.620889,0.39511 -2.060222,0.39511 h -1.086556 q -0.352778,0 -0.592667,-0.22578 -0.239889,-0.23989 -0.211666,-0.56444 v -4.51556 H 86.78748 q -0.08467,0.73378 -0.268111,1.73567 -0.183444,1.016 -0.324555,1.56633 -0.155223,0.56445 -0.381,0.94545 -0.211667,0.381 -0.437445,0.59266 -0.225778,0.21167 -0.606778,0.32456 -0.366888,0.0988 -0.663222,0.127 -0.282222,0.0141 -0.804333,0.0141 h -1.552222 q -0.338667,0 -0.578556,-0.22578 -0.225778,-0.22577 -0.254,-0.56444 l -0.225778,-6.27945 h 3.005667 z"
       style=""
       id="path1911" />
    <path
       d="m 95.561507,186.78029 h 1.143 q 0.945445,0 0.846667,0.93133 l -0.09878,0.71967 q -0.09878,0.81845 -0.973667,0.81845 h -1.157111 q -0.931333,0 -0.832555,-0.93134 l 0.09878,-0.71966 q 0.08467,-0.81845 0.973667,-0.81845 z m 0.663222,10.287 h -2.949222 l 0.973667,-7.05555 h 2.949222 z"
       style=""
       id="path1913" />
    <path
       d="m 104.10843,194.7954 0.21166,1.87678 q -1.18533,0.56444 -3.10444,0.56444 -1.933222,0 -2.836333,-0.90311 -0.889,-0.91722 -0.606778,-2.921 0.268111,-1.93322 1.143,-2.76577 0.889,-0.83256 2.836331,-0.83256 1.94734,0 3.23145,0.55033 l -0.39511,1.80623 h -2.48356 q -0.62089,0 -0.87489,0.28222 -0.254,0.28222 -0.36689,1.04422 -0.127,0.86078 0.0423,1.12889 0.18344,0.26811 0.83255,0.26811 1.48167,0 2.37067,-0.0988 z"
       style=""
       id="path1915" />
    <path
       d="m 110.50297,190.01174 h 3.048 q -0.47978,2.14488 -2.413,3.41488 0.52211,0.36689 0.79022,0.97367 l 1.28411,2.667 h -3.03389 l -1.19944,-2.61055 q -0.31045,0.127 -0.635,0.21166 0,0.18345 -0.0282,0.43745 l -0.28223,1.96144 h -2.96333 l 1.38289,-9.87778 h 2.96333 l -0.53622,3.83823 q -0.14111,0.86077 -0.60678,1.72155 0.83256,-0.45155 1.43934,-1.18533 0.60677,-0.74789 0.79022,-1.55222 z"
       style=""
       id="path1917" />
    <path
       d="m 118.01537,187.18951 -1.05833,7.366 q -0.0564,0.26811 0.0564,0.36689 0.11289,0.0847 0.49389,0.0847 h 0.56445 l 0.16933,1.91911 q -0.60678,0.33867 -2.01789,0.33867 -1.18533,0 -1.80622,-0.55034 -0.60678,-0.55033 -0.49389,-1.48166 l 1.143,-8.04334 z"
       style=""
       id="path1919" />
    <path
       d="m 127.13644,190.01174 -0.97366,7.05555 h -2.31422 l -0.0565,-1.19944 q -1.43933,1.397 -2.87867,1.397 -1.10066,0 -1.60866,-0.52211 -0.49389,-0.53623 -0.35278,-1.50989 l 0.71967,-5.22111 h 2.97744 l -0.635,4.38855 q -0.0564,0.381 0.32456,0.381 0.55033,0 1.25589,-0.52211 l 0.60677,-4.24744 z"
       style=""
       id="path1921" />
    <path
       d="m 130.6823,190.01174 0.0705,1.24177 q 0.67734,-0.67733 1.49578,-1.05833 0.81845,-0.381 1.59456,-0.381 0.91722,0 1.43933,0.53622 0.53622,0.52211 0.39511,1.49578 l -0.73378,5.22111 h -2.97744 l 0.60678,-4.26155 q 0.0423,-0.29634 -0.0423,-0.40923 -0.0705,-0.11289 -0.33866,-0.0847 -0.57856,0.0564 -1.24178,0.56444 l -0.59267,4.191 h -2.96333 l 0.97367,-7.05555 z"
       style=""
       id="path1923" />
    <path
       d="m 136.30051,197.85751 h 1.778 q 2.17311,0 2.75166,-0.90311 0.18345,-0.26811 0.31045,-0.762 0.14111,-0.49389 0.23989,-0.69144 -0.95956,1.50989 -2.85045,1.59455 -1.45344,0.0706 -1.91911,-0.90311 -0.45156,-0.97366 -0.15522,-2.85044 0.11289,-0.70556 0.26811,-1.24178 0.16933,-0.55033 0.35278,-0.91722 0.19755,-0.381 0.47977,-0.635 0.28223,-0.254 0.53623,-0.39511 0.254,-0.14111 0.64911,-0.21167 0.40922,-0.0847 0.73378,-0.0988 0.32455,-0.0282 0.83255,-0.0282 1.31233,0 2.51178,0.14111 1.19944,0.14111 1.76389,0.31045 l -0.77611,5.53155 q -0.14111,1.07245 -0.47978,1.84856 -0.32456,0.77611 -0.73378,1.21355 -0.40922,0.43745 -1.00189,0.69145 -0.57855,0.254 -1.10066,0.32455 -0.508,0.0706 -1.18534,0.0706 -2.08844,0 -3.14678,-0.49389 z m 5.13644,-6.11011 h -0.67733 q -0.66323,0 -0.90311,0.29634 -0.22578,0.29633 -0.381,1.21355 -0.0988,0.55033 -0.127,0.889 -0.0282,0.33867 0.0141,0.53622 0.0423,0.19756 0.14111,0.26811 0.0988,0.0565 0.29633,0.0141 0.66322,-0.127 1.34056,-1.10067 z"
       style=""
       id="path1925" />
    <path
       d="m 146.5196,190.54796 h 0.56444 q 0.508,0 0.77612,0.28222 0.26811,0.26811 0.19755,0.79022 l -0.0847,0.57856 q -0.0705,0.508 -0.33866,0.73378 -0.254,0.22577 -0.79022,0.22577 h -0.56445 q -1.10067,0 -0.97367,-1.07244 l 0.0706,-0.57856 q 0.14111,-0.95955 1.143,-0.95955 z m -0.55033,3.89466 h 0.56444 q 0.508,0 0.77611,0.28223 0.26811,0.26811 0.19756,0.79022 l -0.0847,0.57855 q -0.0705,0.508 -0.33867,0.73378 -0.254,0.22578 -0.79022,0.22578 h -0.56444 q -1.10067,0 -0.97367,-1.07244 l 0.0706,-0.57856 q 0.14111,-0.95956 1.143,-0.95956 z"
       style=""
       id="path1927" />
    <path
       d="m 21.973385,203.72774 h -3.386667 q -0.366889,0 -0.522111,0.127 -0.155222,0.127 -0.197556,0.43744 l -0.127,0.889 h 3.513667 l -0.254,2.032 h -3.541889 l -0.155222,1.12889 q -0.08467,0.55033 0.522111,0.55033 h 3.386667 l -0.05645,2.17311 q -1.255888,0.16934 -4.769555,0.16934 -1.185334,0 -1.763889,-0.73378 -0.578556,-0.73378 -0.423334,-1.91911 l 0.705556,-5.03767 q 0.141111,-1.00189 0.790222,-1.58044 0.649111,-0.57856 1.707445,-0.57856 3.499555,0 4.910667,0.19756 z"
       style=""
       id="path1929" />
    <path
       d="m 24.427175,200.8914 h 1.143 q 0.945445,0 0.846667,0.93134 l -0.09878,0.71966 q -0.09878,0.81845 -0.973666,0.81845 h -1.157112 q -0.931333,0 -0.832555,-0.93134 l 0.09878,-0.71966 q 0.08467,-0.81845 0.973666,-0.81845 z m 0.663223,10.287 h -2.949223 l 0.973667,-7.05555 h 2.949222 z"
       style=""
       id="path1931" />
    <path
       d="m 29.672099,204.12285 0.07056,1.24177 q 0.677333,-0.67733 1.495778,-1.05833 0.818444,-0.381 1.594555,-0.381 0.917223,0 1.439334,0.53622 0.536222,0.52211 0.395111,1.49578 l -0.733778,5.22111 H 30.95621 l 0.606778,-4.26155 q 0.04233,-0.29634 -0.04233,-0.40923 -0.07056,-0.11288 -0.338667,-0.0847 -0.578555,0.0564 -1.241778,0.56444 l -0.592666,4.191 H 26.38421 l 0.973667,-7.05555 z"
       style=""
       id="path1933" />
    <path
       d="m 38.634638,208.70896 -1.481667,-0.42333 q -1.848555,-0.52212 -1.566333,-2.41301 0.141111,-0.98777 0.889,-1.46755 0.762,-0.47978 2.525889,-0.47978 2.088445,0 3.556,0.32456 l -0.239889,1.70744 h -2.695222 q -0.790222,0 -1.001889,0.0282 -0.211667,0.0141 -0.225778,0.11289 -0.02822,0.11289 0.112889,0.19756 0.155222,0.0705 0.578556,0.18344 l 1.538111,0.40922 q 1.820333,0.49389 1.608667,2.22956 -0.155223,1.31233 -1.016,1.76389 -0.846667,0.45156 -2.568223,0.45156 -1.876778,0 -3.612444,-0.31045 l 0.239889,-1.70744 h 2.370666 q 1.072445,0 1.397,-0.0423 0.324556,-0.0423 0.352778,-0.18344 0.01411,-0.0988 -0.127,-0.16933 -0.141111,-0.0706 -0.635,-0.21167 z"
       style=""
       id="path1935" />
    <path
       d="m 47.296436,205.90085 -0.395111,2.76578 q -0.04233,0.28222 0.02822,0.36688 0.08467,0.0847 0.409222,0.0847 h 0.832556 l 0.155222,1.91911 q -0.860778,0.33867 -2.356556,0.33867 -1.086555,0 -1.679222,-0.55033 -0.578555,-0.55034 -0.437444,-1.48167 l 0.508,-3.44311 h -1.213556 l 0.211667,-1.70745 1.27,-0.0705 0.268111,-1.84856 h 2.921 l -0.268111,1.84856 h 1.693333 l -0.239889,1.778 z"
       style=""
       id="path1937" />
    <path
       d="m 51.409163,200.8914 h 1.143 q 0.945445,0 0.846667,0.93134 l -0.09878,0.71966 q -0.09878,0.81845 -0.973666,0.81845 h -1.157112 q -0.931333,0 -0.832555,-0.93134 l 0.09878,-0.71966 q 0.08467,-0.81845 0.973666,-0.81845 z m 0.663223,10.287 h -2.949223 l 0.973667,-7.05555 h 2.949222 z"
       style=""
       id="path1939" />
    <path
       d="m 60.548755,208.92063 0.197556,1.80622 q -1.340556,0.62089 -3.344334,0.62089 -1.185333,0 -1.975555,-0.23989 -0.790223,-0.23989 -1.213556,-0.73378 -0.423333,-0.49389 -0.564445,-1.15711 -0.127,-0.67733 -0.02822,-1.62278 0.112889,-1.11478 0.437445,-1.84856 0.324555,-0.73377 0.889,-1.11477 0.578555,-0.39511 1.27,-0.55034 0.705555,-0.15522 1.707444,-0.15522 2.116667,0 2.906889,0.64911 0.790223,0.64911 0.592667,1.97556 -0.127,0.91722 -0.818445,1.28411 -0.677333,0.35278 -2.187222,0.46567 l -1.763889,0.127 q 0.01411,0.39511 0.225778,0.52211 0.225778,0.127 0.776111,0.127 1.538111,0 2.892778,-0.15522 z m -3.711222,-1.93323 0.804333,-0.0847 q 0.508,-0.0423 0.705556,-0.15523 0.211666,-0.127 0.254,-0.49389 0.02822,-0.23988 -0.112889,-0.33866 -0.127,-0.0988 -0.536222,-0.0847 -0.522112,0.0141 -0.747889,0.23989 -0.225778,0.22578 -0.366889,0.91722 z"
       style=""
       id="path1941" />
    <path
       d="m 61.858882,211.96863 h 1.778 q 2.173111,0 2.751666,-0.90312 0.183445,-0.26811 0.310445,-0.762 0.141111,-0.49388 0.239889,-0.69144 -0.959556,1.50989 -2.850445,1.59456 -1.453444,0.0705 -1.919111,-0.90312 -0.451556,-0.97366 -0.155222,-2.85044 0.112889,-0.70556 0.268111,-1.24178 0.169333,-0.55033 0.352778,-0.91722 0.197555,-0.381 0.479778,-0.635 0.282222,-0.254 0.536222,-0.39511 0.254,-0.14111 0.649111,-0.21167 0.409222,-0.0847 0.733778,-0.0988 0.324555,-0.0282 0.832555,-0.0282 1.312334,0 2.511778,0.14111 1.199445,0.14111 1.763889,0.31045 l -0.776111,5.53155 q -0.141111,1.07245 -0.479778,1.84856 -0.324555,0.77611 -0.733778,1.21355 -0.409222,0.43745 -1.001889,0.69145 -0.578555,0.254 -1.100666,0.32455 -0.508,0.0706 -1.185334,0.0706 -2.088444,0 -3.146778,-0.49389 z m 5.136444,-6.11012 h -0.677333 q -0.663222,0 -0.903111,0.29634 -0.225778,0.29633 -0.381,1.21355 -0.09878,0.55034 -0.127,0.889 -0.02822,0.33867 0.01411,0.53623 0.04233,0.19755 0.141111,0.26811 0.09878,0.0564 0.296333,0.0141 0.663222,-0.127 1.340556,-1.10067 z"
       style=""
       id="path1943" />
    <path
       d="m 76.663202,204.12285 0.08467,1.00189 q 1.241778,-1.19945 2.568223,-1.19945 1.467555,0 1.792111,1.016 1.143,-1.016 2.398889,-1.016 1.044222,0 1.538111,0.53622 0.493889,0.53623 0.352778,1.49578 l -0.733778,5.22111 h -2.935111 l 0.606777,-4.38855 q 0.05644,-0.36689 -0.268111,-0.36689 -0.409222,0 -1.016,0.42333 l -0.606778,4.33211 h -2.836333 l 0.606778,-4.38855 q 0.07055,-0.36689 -0.268111,-0.36689 -0.423334,0 -1.030111,0.39511 l -0.592667,4.36033 h -2.949222 l 0.987777,-7.05555 z"
       style=""
       id="path1945" />
    <path
       d="m 88.202788,200.8914 h 1.143 q 0.945445,0 0.846667,0.93134 l -0.09878,0.71966 q -0.09878,0.81845 -0.973667,0.81845 h -1.157111 q -0.931333,0 -0.832555,-0.93134 l 0.09878,-0.71966 q 0.08467,-0.81845 0.973667,-0.81845 z m 0.663222,10.287 h -2.949222 l 0.973667,-7.05555 h 2.949222 z"
       style=""
       id="path1947" />
    <path
       d="m 94.590709,205.90085 -0.395111,2.76578 q -0.04233,0.28222 0.02822,0.36688 0.08467,0.0847 0.409223,0.0847 h 0.832555 l 0.155222,1.91911 q -0.860777,0.33867 -2.356555,0.33867 -1.086556,0 -1.679222,-0.55033 -0.578556,-0.55034 -0.437445,-1.48167 l 0.508,-3.44311 h -1.213555 l 0.211666,-1.70745 1.27,-0.0705 0.268111,-1.84856 h 2.921 l -0.268111,1.84856 h 1.693334 l -0.239889,1.778 z"
       style=""
       id="path1949" />
    <path
       d="m 99.450444,211.1784 1.368776,-9.73666 q 1.41111,-0.14112 3.92289,-0.14112 2.27189,0 3.09033,0.73378 0.81845,0.73378 0.56445,2.69522 -0.254,1.84856 -1.08656,2.51178 -0.81844,0.66322 -2.76578,0.66322 -0.67733,0 -1.56633,-0.0988 l -0.47978,3.37255 z m 3.809996,-5.43278 h 1.016 q 0.57856,0 0.77611,-0.21166 0.21167,-0.21167 0.32456,-1.03011 0.0847,-0.60678 -0.0564,-0.81845 -0.14112,-0.22578 -0.64912,-0.22578 H 103.585 Z"
       style=""
       id="path1951" />
    <path
       d="m 111.52492,211.1784 h -3.048 l 1.36878,-9.73666 h 3.048 z"
       style=""
       id="path1953" />
    <path
       d="m 120.54568,208.65251 0.11288,2.24367 q -1.45344,0.45156 -3.37255,0.45156 -2.46945,0 -3.35845,-1.143 -0.889,-1.15711 -0.49388,-4.00756 0.21166,-1.49578 0.53622,-2.42711 0.33866,-0.93133 0.93133,-1.49578 0.59267,-0.57855 1.397,-0.79022 0.81845,-0.21167 2.07433,-0.21167 1.80623,0 3.20323,0.39511 l -0.35278,2.21545 q -2.06022,-0.0282 -3.00567,-0.0282 -0.53622,0 -0.80433,0.16933 -0.26811,0.15522 -0.45156,0.70555 -0.18344,0.53623 -0.33866,1.69334 -0.21167,1.43933 -0.0847,1.89089 0.127,0.45155 0.889,0.45155 1.91911,0 3.11856,-0.11289 z"
       style=""
       id="path1955" />
    <path
       d="m 126.72281,201.24418 q 1.00189,0 1.70745,0.15522 0.70555,0.14111 1.25589,0.508 0.55033,0.35278 0.80433,0.94545 0.26811,0.59266 0.36689,1.48166 0.0988,0.87489 -0.0988,2.08845 -0.19755,1.50989 -0.56444,2.46944 -0.36689,0.95956 -0.98778,1.50989 -0.62089,0.55034 -1.42522,0.762 -0.80434,0.21167 -2.00378,0.21167 -1.73567,0 -2.667,-0.45156 -0.91722,-0.46566 -1.25589,-1.59455 -0.32456,-1.12889 -0.0423,-3.13267 0.21166,-1.49578 0.56444,-2.44122 0.35278,-0.95956 0.95956,-1.50989 0.62089,-0.56445 1.41111,-0.77611 0.79022,-0.22578 1.97555,-0.22578 z m 0.889,2.77989 q -0.15522,-0.508 -0.91722,-0.508 -0.762,0 -1.08655,0.55033 -0.31045,0.53622 -0.59267,2.35656 -0.254,1.67922 -0.0988,2.18722 0.16933,0.49389 0.93133,0.49389 0.79023,0 1.10067,-0.53622 0.31045,-0.55034 0.59267,-2.37067 0.23989,-1.66511 0.0706,-2.17311 z"
       style=""
       id="path1957" />
    <path
       d="m 135.65823,208.41263 h -4.10633 l 0.254,-1.72156 h 4.10633 z"
       style=""
       id="path1959" />
    <path
       d="m 138.91525,206.15485 0.0141,-0.0565 q -1.524,-0.254 -1.25589,-2.34244 0.16934,-1.35467 1.00189,-1.93322 0.84667,-0.57856 2.85045,-0.57856 2.17311,0 2.96333,0.66322 0.79022,0.66322 0.57856,2.07434 -0.29634,1.91911 -1.87678,2.11666 l -0.0141,0.0565 q 1.82033,0.19755 1.46755,2.70933 -0.127,0.94545 -0.508,1.46756 -0.36688,0.52211 -1.19944,0.79022 -0.83256,0.26811 -2.286,0.26811 -2.37067,0 -3.23145,-0.66322 -0.84666,-0.66322 -0.69144,-2.08845 0.11289,-1.03011 0.62089,-1.72155 0.52211,-0.69145 1.56633,-0.762 z m 2.61056,-2.93511 q -0.60678,0 -0.84667,0.22577 -0.22578,0.21167 -0.32455,0.94545 -0.0565,0.49389 0.0847,0.64911 0.15522,0.15522 0.762,0.15522 0.60678,0 0.81845,-0.18344 0.21166,-0.19756 0.31044,-0.84667 0.0847,-0.59267 -0.0705,-0.762 -0.15523,-0.18344 -0.73378,-0.18344 z m -0.60678,3.83822 q -0.635,0 -0.90311,0.22578 -0.26811,0.22577 -0.35278,1.016 -0.0705,0.56444 0.11289,0.762 0.19756,0.18344 0.87489,0.18344 0.62089,0 0.87489,-0.21167 0.254,-0.22577 0.35278,-0.95955 0.0847,-0.635 -0.0988,-0.81845 -0.18345,-0.19755 -0.86078,-0.19755 z"
       style=""
       id="path1961" />
    <path
       d="m 146.77183,208.56785 h 0.508 q 0.56445,0 0.79022,0.254 0.22578,0.23989 0.15523,0.81844 l -0.127,0.90311 q -0.11289,0.74789 -0.46567,1.58045 -0.35278,0.84666 -0.80433,1.38289 l -1.19945,-0.45156 q 0.22578,-0.508 0.60678,-1.93322 -0.45156,0.0141 -0.62089,-0.19756 -0.16933,-0.22577 -0.11289,-0.70555 l 0.0988,-0.64911 q 0.0847,-0.56445 0.35278,-0.77611 0.26811,-0.22578 0.81844,-0.22578 z"
       style=""
       id="path1963" />
    <path
       d="m 152.22931,211.1784 1.36878,-9.73666 q 1.41111,-0.14112 3.92289,-0.14112 2.27189,0 3.09033,0.73378 0.81845,0.73378 0.56445,2.69522 -0.254,1.84856 -1.08656,2.51178 -0.81844,0.66322 -2.76578,0.66322 -0.67733,0 -1.56633,-0.0988 l -0.47978,3.37255 z m 3.81,-5.43278 h 1.016 q 0.57856,0 0.77611,-0.21166 0.21167,-0.21167 0.32456,-1.03011 0.0847,-0.60678 -0.0564,-0.81845 -0.14112,-0.22578 -0.64912,-0.22578 h -1.08655 z"
       style=""
       id="path1965" />
    <path
       d="m 166.78734,204.12285 h 3.175 q -0.23989,1.73566 -1.07244,3.90878 -0.83256,2.17311 -1.38289,3.03388 -2.04611,3.20323 -5.48923,3.01978 l -0.18344,-1.59455 q 0.18344,-0.0706 0.55033,-0.19756 0.381,-0.11289 0.56445,-0.18344 0.19755,-0.0706 0.47978,-0.19756 0.28222,-0.127 0.508,-0.31044 0.22577,-0.18345 0.43744,-0.42334 h -1.11478 q -0.33866,0 -0.59266,-0.21166 -0.23989,-0.21167 -0.28223,-0.53623 l -0.87489,-6.30766 h 3.24556 l 0.11289,5.05178 q 0,0.22577 0.22578,0.22577 h 0.33866 q 0.889,-1.97555 1.35467,-5.27755 z"
       style=""
       id="path1967" />
    <path
       d="m 176.07378,205.57629 h 2.921 l -0.79022,5.60211 h -2.24367 l -0.11289,-1.12889 q -1.29822,1.32645 -2.85044,1.32645 -3.28789,0 -2.55411,-5.17878 0.21166,-1.50989 0.59266,-2.46944 0.381,-0.95956 1.04422,-1.50989 0.67734,-0.56445 1.53812,-0.762 0.86077,-0.21167 2.159,-0.21167 1.89088,0 3.25966,0.42333 l -0.33866,2.18723 q -2.11667,-0.0282 -3.13267,-0.0282 -0.91722,0 -1.31233,0.53623 -0.381,0.53622 -0.62089,2.06022 -0.22578,1.43933 -0.0706,1.89089 0.15522,0.45155 0.86078,0.45155 0.66322,0 1.27,-0.43744 z"
       style=""
       id="path1969" />
    <path
       d="m 184.4829,211.1784 -0.0282,-1.36877 q -0.94544,1.41111 -2.75166,1.53811 -0.98778,0.0706 -1.524,-0.39511 -0.52212,-0.47978 -0.60678,-1.36878 -0.0847,-0.889 0.0847,-2.13078 0.127,-0.81845 0.33867,-1.41111 0.21167,-0.60678 0.53622,-0.98778 0.33867,-0.381 0.67734,-0.60678 0.33866,-0.23989 0.87489,-0.35278 0.55033,-0.11288 1.016,-0.14111 0.46566,-0.0282 1.19944,-0.0282 0.73378,0 1.87678,0.15522 1.143,0.14111 1.55222,0.29634 l -0.95955,6.80155 z m 0.0988,-5.31989 h -0.64911 q -0.52211,0 -0.81844,0.29634 -0.29634,0.28222 -0.43745,1.21355 -0.19755,1.34056 -0.0847,1.56634 0.0706,0.16933 0.381,0.14111 0.59266,-0.0423 1.31233,-1.08656 z"
       style=""
       id="path1971" />
    <path
       d="m 191.28842,204.12285 0.0847,1.00189 q 1.24178,-1.19945 2.56822,-1.19945 1.46756,0 1.79211,1.016 1.143,-1.016 2.39889,-1.016 1.04422,0 1.53811,0.53622 0.49389,0.53623 0.35278,1.49578 l -0.73378,5.22111 h -2.93511 l 0.60678,-4.38855 q 0.0564,-0.36689 -0.26811,-0.36689 -0.40922,0 -1.016,0.42333 l -0.60678,4.33211 h -2.83633 l 0.60678,-4.38855 q 0.0705,-0.36689 -0.26812,-0.36689 -0.42333,0 -1.03011,0.39511 l -0.59266,4.36033 h -2.94923 l 0.98778,-7.05555 z"
       style=""
       id="path1973" />
    <path
       d="m 207.66812,208.92063 0.19756,1.80622 q -1.34056,0.62089 -3.34434,0.62089 -1.18533,0 -1.97555,-0.23989 -0.79023,-0.23989 -1.21356,-0.73378 -0.42333,-0.49389 -0.56444,-1.15711 -0.127,-0.67733 -0.0282,-1.62278 0.11289,-1.11478 0.43745,-1.84856 0.32455,-0.73377 0.889,-1.11477 0.57855,-0.39511 1.27,-0.55034 0.70556,-0.15522 1.70744,-0.15522 2.11667,0 2.90689,0.64911 0.79023,0.64911 0.59267,1.97556 -0.127,0.91722 -0.81844,1.28411 -0.67734,0.35278 -2.18723,0.46567 l -1.76389,0.127 q 0.0141,0.39511 0.22578,0.52211 0.22578,0.127 0.77611,0.127 1.53811,0 2.89278,-0.15522 z m -3.71122,-1.93323 0.80433,-0.0847 q 0.508,-0.0423 0.70556,-0.15523 0.21166,-0.127 0.254,-0.49389 0.0282,-0.23988 -0.11289,-0.33866 -0.127,-0.0988 -0.53622,-0.0847 -0.52211,0.0141 -0.74789,0.23989 -0.22578,0.22578 -0.36689,0.91722 z"
       style=""
       id="path1975" />
    <path
       d="m 222.2277,207.1144 h -1.07245 q -0.14111,0.74789 -0.45155,1.42523 -1.27,2.83633 -5.22111,2.83633 -2.00378,0 -2.85045,-0.69145 -0.83255,-0.69144 -0.66322,-2.10255 0.127,-1.04422 0.67733,-1.69334 0.55034,-0.66322 1.55223,-0.71966 l 0.0141,-0.0847 q -0.70556,-0.0564 -1.07245,-0.762 -0.35277,-0.70555 -0.19755,-1.59455 0.11289,-0.635 0.381,-1.08656 0.26811,-0.46567 0.60678,-0.73378 0.33866,-0.26811 0.84666,-0.40922 0.52211,-0.15522 1.03011,-0.19756 0.508,-0.0564 1.19945,-0.0564 1.42522,0 2.413,0.33867 l -0.46567,1.96144 q -1.10067,-0.16933 -1.84855,-0.16933 -0.62089,0 -0.86078,0.16933 -0.23989,0.16933 -0.31045,0.74789 -0.0706,0.56444 0.0847,0.77611 0.15522,0.19756 0.59267,0.19756 h 2.34244 q 0.0564,-0.67734 0.0706,-1.17123 h 2.42711 q 0,0.59267 -0.0423,1.17123 h 1.08656 z m -3.59833,0 h -2.286 q -0.49389,0 -0.762,0.22578 -0.26812,0.22578 -0.33867,0.83256 -0.0565,0.49389 0.16933,0.69144 0.23989,0.19756 0.79022,0.19756 0.74789,0 1.28412,-0.28223 0.55033,-0.29633 0.91722,-1.08655 0.0988,-0.19756 0.22578,-0.57856 z"
       style=""
       id="path1977" />
    <path
       d="m 231.66384,205.57629 h 2.921 l -0.79023,5.60211 h -2.24366 l -0.11289,-1.12889 q -1.29822,1.32645 -2.85045,1.32645 -3.28789,0 -2.55411,-5.17878 0.21167,-1.50989 0.59267,-2.46944 0.381,-0.95956 1.04422,-1.50989 0.67733,-0.56445 1.53811,-0.762 0.86078,-0.21167 2.159,-0.21167 1.89089,0 3.25967,0.42333 l -0.33867,2.18723 q -2.11666,-0.0282 -3.13266,-0.0282 -0.91723,0 -1.31234,0.53623 -0.381,0.53622 -0.62089,2.06022 -0.22577,1.43933 -0.0705,1.89089 0.15522,0.45155 0.86078,0.45155 0.66322,0 1.27,-0.43744 z"
       style=""
       id="path1979" />
    <path
       d="m 239.50852,203.92529 q 2.159,0 3.01978,0.889 0.87489,0.889 0.57856,2.96333 -0.28223,1.98967 -1.24178,2.77989 -0.94545,0.79023 -3.048,0.79023 -2.14489,0 -3.03389,-0.87489 -0.889,-0.889 -0.59267,-2.921 0.28223,-2.01789 1.22767,-2.82223 0.95956,-0.80433 3.09033,-0.80433 z m -0.0564,2.00378 q -0.56445,0 -0.79022,0.35278 -0.21167,0.33866 -0.381,1.49577 -0.14111,0.97367 -0.0282,1.27001 0.127,0.29633 0.67734,0.29633 0.53622,0 0.73378,-0.32456 0.21166,-0.33866 0.381,-1.46755 0.15522,-1.00189 0.0423,-1.31234 -0.11289,-0.31044 -0.635,-0.31044 z"
       style=""
       id="path1981" />
    <path
       d="m 252.47994,201.30062 -1.397,9.87778 h -2.34244 l -0.0564,-1.12889 q -1.35466,1.29823 -2.63878,1.29823 -2.61055,0 -2.13077,-3.89467 0.254,-1.98967 1.016,-2.75167 0.762,-0.77611 1.97555,-0.77611 1.32645,0 2.25778,0.18345 0,-0.84667 0.0988,-1.46756 l 0.254,-1.34056 z m -3.62655,4.41678 h -0.66323 q -0.635,0 -0.87488,0.31045 -0.23989,0.29633 -0.381,1.34055 -0.14112,0.762 -0.0847,1.15711 0.0564,0.39512 0.45155,0.36689 0.53623,-0.0282 1.18534,-0.49389 z"
       style=""
       id="path1983" />
    <path
       d="m 256.89936,203.92529 q 2.159,0 3.01978,0.889 0.87489,0.889 0.57856,2.96333 -0.28223,1.98967 -1.24178,2.77989 -0.94545,0.79023 -3.048,0.79023 -2.14489,0 -3.03389,-0.87489 -0.889,-0.889 -0.59267,-2.921 0.28222,-2.01789 1.22767,-2.82223 0.95955,-0.80433 3.09033,-0.80433 z m -0.0564,2.00378 q -0.56445,0 -0.79022,0.35278 -0.21167,0.33866 -0.381,1.49577 -0.14112,0.97367 -0.0282,1.27001 0.127,0.29633 0.67734,0.29633 0.53622,0 0.73377,-0.32456 0.21167,-0.33866 0.381,-1.46755 0.15523,-1.00189 0.0423,-1.31234 -0.11289,-0.31044 -0.635,-0.31044 z"
       style=""
       id="path1985" />
    <path
       d="m 265.32965,205.90085 -0.39511,2.76578 q -0.0423,0.28222 0.0282,0.36688 0.0847,0.0847 0.40922,0.0847 h 0.83256 l 0.15522,1.91911 q -0.86078,0.33867 -2.35656,0.33867 -1.08655,0 -1.67922,-0.55033 -0.57856,-0.55034 -0.43744,-1.48167 l 0.508,-3.44311 h -1.21356 l 0.21167,-1.70745 1.27,-0.0705 0.26811,-1.84856 h 2.921 l -0.26811,1.84856 h 1.69333 l -0.23989,1.778 z"
       style=""
       id="path1987" />
  </g>
  <path
     inkscape:connector-curvature="0"
     id="path883"
     style="font-style:italic;font-variant:normal;font-weight:bold;font-stretch:normal;font-size:medium;line-height:1;font-family:'Exo 2';-inkscape-font-specification:'Exo 2, Bold Italic';font-variant-ligatures:normal;font-variant-caps:normal;font-variant-numeric:normal;font-feature-settings:normal;text-align:start;letter-spacing:0px;word-spacing:0px;writing-mode:lr-tb;text-anchor:start;fill:#393536;fill-opacity:1;stroke:none;stroke-width:0.26458335"
     d="m 18.266071,226.38992 h 5.207 l -0.254,1.85738 h -7.9375 l 0.238125,-1.85738 6.111875,-7.239 h -4.953 l 0.254,-1.85737 h 7.699375 l -0.269875,1.85737 z" />
  <path
     inkscape:connector-curvature="0"
     id="path885"
     style="font-style:italic;font-variant:normal;font-weight:bold;font-stretch:normal;font-size:medium;line-height:1;font-family:'Exo 2';-inkscape-font-specification:'Exo 2, Bold Italic';font-variant-ligatures:normal;font-variant-caps:normal;font-variant-numeric:normal;font-feature-settings:normal;text-align:start;letter-spacing:0px;word-spacing:0px;writing-mode:lr-tb;text-anchor:start;fill:#393536;fill-opacity:1;stroke:none;stroke-width:0.26458335"
     d="m 31.875163,226.38992 0.15875,1.49225 q -1.317625,0.55563 -3.444875,0.55563 -2.238375,0 -3.07975,-1.04775 -0.841375,-1.04775 -0.587375,-3.22263 0.28575,-2.286 1.30175,-3.12737 1.016,-0.84138 3.2385,-0.84138 2.06375,0 2.794,0.68263 0.746125,0.68262 0.555625,2.01612 -0.15875,1.11125 -0.904875,1.5875 -0.746125,0.47625 -2.301875,0.58738 l -2.31775,0.17462 q 0.01588,0.77788 0.381,1.04775 0.381,0.26988 1.190625,0.26988 1.539875,0 3.01625,-0.17463 z m -4.445,-2.52412 1.825625,-0.17463 q 0.635,-0.0476 0.92075,-0.254 0.301625,-0.20637 0.365125,-0.762 0.04763,-0.52387 -0.206375,-0.65087 -0.238125,-0.127 -1.031875,-0.11113 -0.92075,0 -1.30175,0.39688 -0.365125,0.381 -0.5715,1.55575 z" />
  <path
     inkscape:connector-curvature="0"
     id="path887"
     style="font-style:italic;font-variant:normal;font-weight:bold;font-stretch:normal;font-size:medium;line-height:1;font-family:'Exo 2';-inkscape-font-specification:'Exo 2, Bold Italic';font-variant-ligatures:normal;font-variant-caps:normal;font-variant-numeric:normal;font-feature-settings:normal;text-align:start;letter-spacing:0px;word-spacing:0px;writing-mode:lr-tb;text-anchor:start;fill:#393536;fill-opacity:1;stroke:none;stroke-width:0.26458335"
     d="M 43.917095,217.29355 42.37722,228.2473 h -2.413 l 0.682625,-4.87363 H 36.85272 l -0.6985,4.87363 h -2.428875 l 1.539875,-10.95375 h 2.428875 l -0.587375,4.191 h 3.81 l 0.587375,-4.191 z" />
  <path
     inkscape:connector-curvature="0"
     id="path889"
     style="font-style:italic;font-variant:normal;font-weight:bold;font-stretch:normal;font-size:medium;line-height:1;font-family:'Exo 2';-inkscape-font-specification:'Exo 2, Bold Italic';font-variant-ligatures:normal;font-variant-caps:normal;font-variant-numeric:normal;font-feature-settings:normal;text-align:start;letter-spacing:0px;word-spacing:0px;writing-mode:lr-tb;text-anchor:start;fill:#393536;fill-opacity:1;stroke:none;stroke-width:0.26458335"
     d="M 51.911645,228.2473 H 50.08602 l 0.01588,-1.41288 q -1.2065,1.55575 -3.20675,1.60338 -1.476375,0.0476 -2.00025,-0.9525 -0.508,-1.016 -0.174625,-3.302 0.15875,-1.0795 0.4445,-1.80975 0.28575,-0.74613 0.635,-1.17475 0.34925,-0.42863 0.904875,-0.65088 0.555625,-0.22225 1.063625,-0.28575 0.523875,-0.0635 1.317625,-0.0635 0.841375,0 2.016125,0.14288 1.17475,0.14287 1.87325,0.33337 z m -1.444625,-6.31825 h -1.2065 q -1.143,0 -1.55575,0.39687 -0.41275,0.39688 -0.619125,1.88913 -0.206375,1.50812 -0.09525,1.93675 0.111125,0.41275 0.682625,0.381 1.04775,-0.0159 2.3495,-1.47638 z" />
  <path
     inkscape:connector-curvature="0"
     id="path891"
     style="font-style:italic;font-variant:normal;font-weight:bold;font-stretch:normal;font-size:medium;line-height:1;font-family:'Exo 2';-inkscape-font-specification:'Exo 2, Bold Italic';font-variant-ligatures:normal;font-variant-caps:normal;font-variant-numeric:normal;font-feature-settings:normal;text-align:start;letter-spacing:0px;word-spacing:0px;writing-mode:lr-tb;text-anchor:start;fill:#393536;fill-opacity:1;stroke:none;stroke-width:0.26458335"
     d="m 54.861915,225.85017 h 0.523875 q 0.460375,0 0.635,0.20638 0.174625,0.1905 0.111125,0.65087 l -0.142875,1.016 q -0.206375,1.524 -1.158875,2.88925 l -1.031875,-0.36512 q 0.428625,-1.23825 0.60325,-2.04788 -0.73025,0.0476 -0.650875,-0.71437 l 0.127,-0.84138 q 0.07937,-0.46037 0.28575,-0.61912 0.22225,-0.17463 0.6985,-0.17463 z" />
  <path
     inkscape:connector-curvature="0"
     id="path893"
     style="font-style:italic;font-variant:normal;font-weight:bold;font-stretch:normal;font-size:medium;line-height:1;font-family:'Exo 2';-inkscape-font-specification:'Exo 2, Bold Italic';font-variant-ligatures:normal;font-variant-caps:normal;font-variant-numeric:normal;font-feature-settings:normal;text-align:start;letter-spacing:0px;word-spacing:0px;writing-mode:lr-tb;text-anchor:start;fill:#393536;fill-opacity:1;stroke:none;stroke-width:0.26458335"
     d="m 67.100548,222.64342 -0.01588,0.0635 q 0.381,0.3175 0.714375,1.00013 l 2.270125,4.54025 h -2.667 l -2.25425,-4.826 h -0.904875 q 0.04762,0.52387 -0.03175,1.09537 l -0.523875,3.73063 h -2.428875 l 1.539875,-10.95375 h 2.428875 l -0.460375,3.22262 q -0.07937,0.60325 -0.254,1.17475 h 0.889 l 3.27025,-4.39737 h 2.794 l -3.413125,4.5085 q -0.381,0.52387 -0.9525,0.84137 z" />
  <path
     inkscape:connector-curvature="0"
     id="path895"
     style="font-style:italic;font-variant:normal;font-weight:bold;font-stretch:normal;font-size:medium;line-height:1;font-family:'Exo 2';-inkscape-font-specification:'Exo 2, Bold Italic';font-variant-ligatures:normal;font-variant-caps:normal;font-variant-numeric:normal;font-feature-settings:normal;text-align:start;letter-spacing:0px;word-spacing:0px;writing-mode:lr-tb;text-anchor:start;fill:#393536;fill-opacity:1;stroke:none;stroke-width:0.26458335"
     d="m 72.09894,225.85017 h 0.587375 q 0.904875,0 0.777875,0.85725 l -0.111125,0.762 q -0.09525,0.77788 -0.889,0.77788 H 71.87669 q -0.889,0 -0.79375,-0.87313 l 0.111125,-0.762 q 0.111125,-0.762 0.904875,-0.762 z" />
  <path
     inkscape:connector-curvature="0"
     id="path897"
     style="font-style:italic;font-variant:normal;font-weight:bold;font-stretch:normal;font-size:medium;line-height:1;font-family:'Exo 2';-inkscape-font-specification:'Exo 2, Bold Italic';font-variant-ligatures:normal;font-variant-caps:normal;font-variant-numeric:normal;font-feature-settings:normal;text-align:start;letter-spacing:0px;word-spacing:0px;writing-mode:lr-tb;text-anchor:start;fill:#393536;fill-opacity:1;stroke:none;stroke-width:0.26458335"
     d="m 75.087161,228.2473 1.539875,-10.95375 q 1.4605,-0.14288 4.03225,-0.14288 2.206625,0 3.032125,0.8255 0.8255,0.80963 0.53975,2.84163 -0.28575,2.0955 -1.158875,2.794 -0.873125,0.6985 -2.95275,0.6985 -1.095375,0 -2.047875,-0.14288 l -0.5715,4.07988 z m 3.222625,-5.79438 h 1.651 q 0.98425,0 1.349375,-0.34925 0.381,-0.34925 0.53975,-1.4605 0.142875,-0.9525 -0.127,-1.28587 -0.269875,-0.34925 -1.127125,-0.34925 l -1.793875,0.0159 z" />
  <path
     inkscape:connector-curvature="0"
     id="path899"
     style="font-style:italic;font-variant:normal;font-weight:bold;font-stretch:normal;font-size:medium;line-height:1;font-family:'Exo 2';-inkscape-font-specification:'Exo 2, Bold Italic';font-variant-ligatures:normal;font-variant-caps:normal;font-variant-numeric:normal;font-feature-settings:normal;text-align:start;letter-spacing:0px;word-spacing:0px;writing-mode:lr-tb;text-anchor:start;fill:#393536;fill-opacity:1;stroke:none;stroke-width:0.26458335"
     d="m 91.349114,220.19867 -0.523875,2.17488 h -0.5715 q -0.492125,0 -1.04775,0.22225 -0.53975,0.20637 -1.571625,0.74612 l -0.66675,4.90538 h -2.3495 l 1.095375,-7.82638 h 1.825625 v 1.47638 q 1.793875,-1.69863 3.33375,-1.69863 z" />
  <path
     inkscape:connector-curvature="0"
     id="path901"
     style="font-style:italic;font-variant:normal;font-weight:bold;font-stretch:normal;font-size:medium;line-height:1;font-family:'Exo 2';-inkscape-font-specification:'Exo 2, Bold Italic';font-variant-ligatures:normal;font-variant-caps:normal;font-variant-numeric:normal;font-feature-settings:normal;text-align:start;letter-spacing:0px;word-spacing:0px;writing-mode:lr-tb;text-anchor:start;fill:#393536;fill-opacity:1;stroke:none;stroke-width:0.26458335"
     d="m 95.299261,225.43742 -1.889125,-0.77787 q -0.9525,-0.381 -1.3335,-0.96838 -0.381,-0.58737 -0.269875,-1.47637 0.127,-1.0795 0.936625,-1.55575 0.8255,-0.47625 2.57175,-0.46038 2.159,0.0318 3.6195,0.3175 l -0.22225,1.49225 q -3.048,-0.0476 -3.095625,-0.0476 -0.92075,0 -1.222375,0.0794 -0.301625,0.0635 -0.34925,0.33338 -0.03175,0.26987 0.142875,0.41275 0.1905,0.127 0.714375,0.33337 l 1.920875,0.762 q 0.968375,0.381 1.36525,0.92075 0.396875,0.53975 0.28575,1.44463 -0.09525,0.6985 -0.381,1.143 -0.269875,0.4445 -0.79375,0.66675 -0.523875,0.22225 -1.127125,0.28575 -0.60325,0.0794 -1.539875,0.0794 -1.42875,0 -3.444875,-0.28575 l 0.22225,-1.50812 q 0.5715,0.0317 2.492375,0.0317 1.36525,0 1.80975,-0.0952 0.4445,-0.0952 0.508,-0.41275 0.03175,-0.23813 -0.127,-0.34925 -0.142875,-0.11113 -0.587375,-0.28575 -0.127,-0.0476 -0.206375,-0.0794 z" />
  <path
     inkscape:connector-curvature="0"
     id="path903"
     style="font-style:italic;font-variant:normal;font-weight:bold;font-stretch:normal;font-size:medium;line-height:1;font-family:'Exo 2';-inkscape-font-specification:'Exo 2, Bold Italic';font-variant-ligatures:normal;font-variant-caps:normal;font-variant-numeric:normal;font-feature-settings:normal;text-align:start;letter-spacing:0px;word-spacing:0px;writing-mode:lr-tb;text-anchor:start;fill:#393536;fill-opacity:1;stroke:none;stroke-width:0.26458335"
     d="m 101.92608,216.96017 h 0.98425 q 0.74613,0 0.66675,0.73025 l -0.11112,0.85725 q -0.0952,0.635 -0.762,0.635 h -1.00013 q -0.73025,0 -0.635,-0.73025 l 0.11113,-0.84137 q 0.0635,-0.65088 0.74612,-0.65088 z m 0.127,11.28713 h -2.333624 l 1.095374,-7.82638 h 2.33363 z" />
  <path
     inkscape:connector-curvature="0"
     id="path905"
     style="font-style:italic;font-variant:normal;font-weight:bold;font-stretch:normal;font-size:medium;line-height:1;font-family:'Exo 2';-inkscape-font-specification:'Exo 2, Bold Italic';font-variant-ligatures:normal;font-variant-caps:normal;font-variant-numeric:normal;font-feature-settings:normal;text-align:start;letter-spacing:0px;word-spacing:0px;writing-mode:lr-tb;text-anchor:start;fill:#393536;fill-opacity:1;stroke:none;stroke-width:0.26458335"
     d="m 110.75878,220.19867 -0.52387,2.17488 h -0.5715 q -0.49213,0 -1.04775,0.22225 -0.53975,0.20637 -1.57163,0.74612 l -0.66675,4.90538 h -2.3495 l 1.09538,-7.82638 h 1.82562 v 1.47638 q 1.79388,-1.69863 3.33375,-1.69863 z" />
  <path
     inkscape:connector-curvature="0"
     id="path907"
     style="font-style:italic;font-variant:normal;font-weight:bold;font-stretch:normal;font-size:medium;line-height:1;font-family:'Exo 2';-inkscape-font-specification:'Exo 2, Bold Italic';font-variant-ligatures:normal;font-variant-caps:normal;font-variant-numeric:normal;font-feature-settings:normal;text-align:start;letter-spacing:0px;word-spacing:0px;writing-mode:lr-tb;text-anchor:start;fill:#393536;fill-opacity:1;stroke:none;stroke-width:0.26458335"
     d="m 110.98252,225.85017 h 0.52388 q 0.46037,0 0.635,0.20638 0.17462,0.1905 0.11112,0.65087 l -0.14287,1.016 q -0.20638,1.524 -1.15888,2.88925 l -1.03187,-0.36512 q 0.42862,-1.23825 0.60325,-2.04788 -0.73025,0.0476 -0.65088,-0.71437 l 0.127,-0.84138 q 0.0794,-0.46037 0.28575,-0.61912 0.22225,-0.17463 0.6985,-0.17463 z" />
  <path
     inkscape:connector-curvature="0"
     id="path909"
     style="font-style:italic;font-variant:normal;font-weight:bold;font-stretch:normal;font-size:medium;line-height:1;font-family:'Exo 2';-inkscape-font-specification:'Exo 2, Bold Italic';font-variant-ligatures:normal;font-variant-caps:normal;font-variant-numeric:normal;font-feature-settings:normal;text-align:start;letter-spacing:0px;word-spacing:0px;writing-mode:lr-tb;text-anchor:start;fill:#393536;fill-opacity:1;stroke:none;stroke-width:0.26458335"
     d="m 126.35746,219.26205 h -3.27025 l -1.25413,8.98525 h -2.42887 l 1.27,-8.98525 h -3.25438 l 0.26988,-1.9685 h 8.93762 z" />
  <path
     inkscape:connector-curvature="0"
     id="path911"
     style="font-style:italic;font-variant:normal;font-weight:bold;font-stretch:normal;font-size:medium;line-height:1;font-family:'Exo 2';-inkscape-font-specification:'Exo 2, Bold Italic';font-variant-ligatures:normal;font-variant-caps:normal;font-variant-numeric:normal;font-feature-settings:normal;text-align:start;letter-spacing:0px;word-spacing:0px;writing-mode:lr-tb;text-anchor:start;fill:#393536;fill-opacity:1;stroke:none;stroke-width:0.26458335"
     d="m 129.4697,220.19867 q 2.17488,0 3.03213,0.98425 0.85725,0.98425 0.53975,3.25438 -0.30163,2.20662 -1.31763,3.1115 -1.00012,0.90487 -3.12737,0.90487 -2.159,0 -3.048,-0.98425 -0.87313,-0.98425 -0.55563,-3.22262 0.3175,-2.2225 1.31763,-3.12738 1.00012,-0.92075 3.15912,-0.92075 z m -0.0159,1.76213 q -0.96838,0 -1.397,0.49212 -0.41275,0.49213 -0.61913,1.98438 -0.1905,1.36525 0.0476,1.80975 0.23812,0.4445 1.15887,0.4445 0.9525,0 1.36525,-0.49213 0.41275,-0.508 0.61913,-1.95262 0.20637,-1.36525 -0.0476,-1.82563 -0.23812,-0.46037 -1.12712,-0.46037 z" />
  <path
     inkscape:connector-curvature="0"
     id="path913"
     style="font-style:italic;font-variant:normal;font-weight:bold;font-stretch:normal;font-size:medium;line-height:1;font-family:'Exo 2';-inkscape-font-specification:'Exo 2, Bold Italic';font-variant-ligatures:normal;font-variant-caps:normal;font-variant-numeric:normal;font-feature-settings:normal;text-align:start;letter-spacing:0px;word-spacing:0px;writing-mode:lr-tb;text-anchor:start;fill:#393536;fill-opacity:1;stroke:none;stroke-width:0.26458335"
     d="m 136.99346,220.42092 v 1.41288 q 0.85725,-0.85725 1.5875,-1.23825 0.74612,-0.39688 1.55575,-0.39688 0.85725,0 1.34937,0.381 0.49213,0.381 0.5715,1.0795 1.47638,-1.4605 2.95275,-1.4605 1.0795,0 1.57163,0.60325 0.508,0.58738 0.36512,1.61925 l -0.80962,5.82613 h -2.33363 l 0.73025,-5.19113 q 0.0635,-0.49212 -0.0794,-0.68262 -0.14288,-0.1905 -0.49213,-0.1905 -0.39687,0 -0.84137,0.254 -0.4445,0.254 -1.2065,0.93662 l -0.68263,4.87363 h -2.25425 l 0.71438,-5.19113 q 0.0794,-0.47625 -0.0476,-0.66675 -0.127,-0.20637 -0.508,-0.20637 -0.41275,0 -0.87312,0.254 -0.4445,0.23812 -1.17475,0.87312 l -0.68263,4.93713 h -2.33362 l 1.09537,-7.82638 z" />
</svg>
