<?xml version="1.0" encoding="UTF-8" standalone="no"?>
<svg
   xmlns:dc="http://purl.org/dc/elements/1.1/"
   xmlns:cc="http://creativecommons.org/ns#"
   xmlns:rdf="http://www.w3.org/1999/02/22-rdf-syntax-ns#"
   xmlns:svg="http://www.w3.org/2000/svg"
   xmlns="http://www.w3.org/2000/svg"
   width="1920"
   height="1080"
   viewBox="0 0 507.99999 285.75001"
   version="1.1"
   id="svg8">
  <defs
     id="defs2">
    <linearGradient
       id="linearGradient30"
       spreadMethod="pad"
       gradientTransform="matrix(0,-46.513853,-46.513853,0,26.250064,37.547485)"
       gradientUnits="userSpaceOnUse"
       y2="0"
       x2="1"
       y1="0"
       x1="0">
      <stop
         id="stop24"
         offset="0"
         style="stop-opacity:1;stop-color:#f14531" />
      <stop
         id="stop26"
         offset="0.330076"
         style="stop-opacity:1;stop-color:#d23128" />
      <stop
         id="stop28"
         offset="1"
         style="stop-opacity:1;stop-color:#98131a" />
    </linearGradient>
  </defs>
  <metadata
     id="metadata5">
    <rdf:RDF>
      <cc:Work
         rdf:about="">
        <dc:format>image/svg+xml</dc:format>
        <dc:type
           rdf:resource="http://purl.org/dc/dcmitype/StillImage" />
        <dc:title></dc:title>
      </cc:Work>
    </rdf:RDF>
  </metadata>
  <g
     id="layer1"
     transform="matrix(1.4406772,0,0,1.4406772,0,-122.3098)">
    <path
       style="opacity:1;fill:#ffffff;fill-opacity:1;stroke:none;stroke-width:0.4810257;stroke-linecap:butt;stroke-linejoin:miter;stroke-miterlimit:3.79999995;stroke-dasharray:none;stroke-opacity:1;paint-order:markers stroke fill"
       id="path23"
       d="m 238.125,209.68738 18.33086,10.58333 v 21.16665 L 238.125,252.02069 219.79414,241.43736 v -21.16665 z" />
    <rect
       style="opacity:1;fill:#ffffff;fill-opacity:1;stroke:none;stroke-width:0.49279791;stroke-linecap:butt;stroke-linejoin:miter;stroke-miterlimit:3.79999995;stroke-dasharray:none;stroke-opacity:1;paint-order:markers stroke fill"
       id="rect21"
       width="238.125"
       height="42.333332"
       x="0"
       y="209.68748" />
    <g
       id="g4610"
       transform="translate(-36.512517)">
      <g
         id="text1746"
         style="font-style:normal;font-weight:normal;font-size:22.48618698px;line-height:125%;font-family:sans-serif;letter-spacing:0px;word-spacing:0px;fill:#616364;fill-opacity:1;stroke:none;stroke-width:0.56215465px;stroke-linecap:butt;stroke-linejoin:miter;stroke-opacity:1"
         transform="scale(1.0103642,0.98974209)"
         aria-label="Stromzähler auslesen">
        <path
           id="path844"
           style="font-style:italic;font-variant:normal;font-weight:800;font-stretch:normal;font-size:19.48802948px;font-family:'Exo 2';-inkscape-font-specification:'Exo 2 Ultra-Bold Italic';letter-spacing:-0.18978161px;fill:#616364;fill-opacity:1;stroke-width:0.56215465px"
           d="m 50.811807,228.39569 -2.455492,-1.20826 q -1.598018,-0.77952 -2.124195,-1.77341 -0.506689,-0.99389 -0.350784,-2.35805 0.253344,-2.16318 1.57853,-2.98167 1.344674,-0.8185 4.189926,-0.8185 2.728325,0 4.813544,0.70157 l -0.370273,2.68935 q -2.377539,-0.039 -4.716103,-0.039 -0.682081,0 -0.974401,0.11693 -0.272833,0.11693 -0.350785,0.42874 -0.03898,0.23385 0.116928,0.42873 0.175392,0.17539 0.740545,0.44823 l 2.260612,1.07184 q 1.598018,0.76003 2.104707,1.69546 0.526177,0.93542 0.350784,2.49446 -0.253344,2.29959 -1.461602,3.13758 -1.208258,0.81849 -4.15095,0.81849 -2.591908,0 -5.24228,-0.68208 l 0.389761,-2.94269 q 3.761189,0.0974 4.638151,0.0974 0.876961,0 1.227745,-0.11693 0.350785,-0.13641 0.428737,-0.44822 0.05846,-0.23386 -0.07795,-0.38976 -0.136416,-0.15591 -0.565153,-0.37027 z" />
        <path
           id="path846"
           style="font-style:italic;font-variant:normal;font-weight:800;font-stretch:normal;font-size:19.48802948px;font-family:'Exo 2';-inkscape-font-specification:'Exo 2 Ultra-Bold Italic';letter-spacing:-0.18978161px;fill:#616364;fill-opacity:1;stroke-width:0.56215465px"
           d="m 62.41227,225.68685 -0.545665,3.81965 q -0.05846,0.38976 0.03898,0.50669 0.116929,0.11693 0.565153,0.11693 h 1.149794 l 0.214368,2.65037 q -1.18877,0.46771 -3.254501,0.46771 -1.500578,0 -2.319075,-0.76003 -0.799009,-0.76003 -0.604129,-2.04624 l 0.701569,-4.75508 h -1.675971 l 0.292321,-2.35805 1.753923,-0.0974 0.370272,-2.55293 h 4.034022 l -0.370272,2.55293 h 2.338563 l -0.331296,2.45549 z" />
        <path
           id="path848"
           style="font-style:italic;font-variant:normal;font-weight:800;font-stretch:normal;font-size:19.48802948px;font-family:'Exo 2';-inkscape-font-specification:'Exo 2 Ultra-Bold Italic';letter-spacing:-0.18978161px;fill:#616364;fill-opacity:1;stroke-width:0.56215465px"
           d="m 73.934778,222.95853 -0.837985,3.7417 h -0.915938 q -0.993889,0 -2.591908,0.25334 l -0.818497,6.0218 h -4.111974 l 1.364162,-9.74401 h 3.196037 l 0.136416,1.32518 q 1.929315,-1.59801 3.878118,-1.59801 z" />
        <path
           id="path850"
           style="font-style:italic;font-variant:normal;font-weight:800;font-stretch:normal;font-size:19.48802948px;font-family:'Exo 2';-inkscape-font-specification:'Exo 2 Ultra-Bold Italic';letter-spacing:-0.18978161px;fill:#616364;fill-opacity:1;stroke-width:0.56215465px"
           d="m 79.591399,222.95853 q 2.981668,0 4.170438,1.22774 1.208258,1.22775 0.799009,4.09249 -0.38976,2.74781 -1.714946,3.83914 -1.305698,1.09133 -4.209415,1.09133 -2.96218,0 -4.189926,-1.20826 -1.227746,-1.22775 -0.818497,-4.03402 0.38976,-2.78679 1.695458,-3.89761 1.325186,-1.11081 4.267879,-1.11081 z m -0.07795,2.7673 q -0.779521,0 -1.091329,0.4872 -0.292321,0.46771 -0.526177,2.06573 -0.19488,1.34467 -0.03898,1.75392 0.175392,0.40925 0.935425,0.40925 0.740545,0 1.013378,-0.44823 0.29232,-0.46771 0.526177,-2.02675 0.214368,-1.38365 0.05846,-1.81239 -0.155904,-0.42873 -0.876962,-0.42873 z" />
        <path
           id="path852"
           style="font-style:italic;font-variant:normal;font-weight:800;font-stretch:normal;font-size:19.48802948px;font-family:'Exo 2';-inkscape-font-specification:'Exo 2 Ultra-Bold Italic';letter-spacing:-0.18978161px;fill:#616364;fill-opacity:1;stroke-width:0.56215465px"
           d="m 89.613343,223.23136 0.116928,1.38365 q 1.714947,-1.65648 3.546821,-1.65648 2.026755,0 2.47498,1.40313 1.57853,-1.40313 3.312965,-1.40313 1.442113,0 2.124193,0.74054 0.68208,0.74055 0.4872,2.06573 l -1.01337,7.21057 h -4.053515 l 0.837986,-6.06077 q 0.07795,-0.50669 -0.370273,-0.50669 -0.565153,0 -1.403138,0.58464 l -0.837985,5.98282 h -3.917094 l 0.837985,-6.06077 q 0.09744,-0.50669 -0.370273,-0.50669 -0.58464,0 -1.422626,0.54566 l -0.818497,6.0218 h -4.072998 l 1.364162,-9.74401 z" />
        <path
           id="path854"
           style="font-style:italic;font-variant:normal;font-weight:800;font-stretch:normal;font-size:19.48802948px;font-family:'Exo 2';-inkscape-font-specification:'Exo 2 Ultra-Bold Italic';letter-spacing:-0.18978161px;fill:#616364;fill-opacity:1;stroke-width:0.56215465px"
           d="m 112.08812,225.86224 -5.00843,4.48225 h 4.44327 l -0.35078,2.63088 h -9.31528 l 0.3313,-2.63088 h -0.0195 l 5.02791,-4.48225 h -4.2289 l 0.35078,-2.63088 h 9.08142 l -0.33129,2.63088 z" />
        <path
           id="path856"
           style="font-style:italic;font-variant:normal;font-weight:800;font-stretch:normal;font-size:19.48802948px;font-family:'Exo 2';-inkscape-font-specification:'Exo 2 Ultra-Bold Italic';letter-spacing:-0.18978161px;fill:#616364;fill-opacity:1;stroke-width:0.56215465px"
           d="m 118.21239,221.76976 h -1.57853 q -0.70157,0 -0.58464,-0.64311 l 0.21437,-1.42263 q 0.078,-0.68208 0.76003,-0.68208 h 1.50058 q 0.70157,0 0.58464,0.64311 l -0.21437,1.48109 q -0.078,0.62362 -0.68208,0.62362 z m 3.68324,0 h -1.57853 q -0.70157,0 -0.58465,-0.64311 l 0.21437,-1.44211 q 0.0974,-0.6626 0.70157,-0.6626 h 1.55904 q 0.70157,0 0.58465,0.64311 l -0.21437,1.4616 q -0.039,0.35078 -0.19488,0.50669 -0.15591,0.13642 -0.4872,0.13642 z m -2.47498,11.20561 -0.039,-1.89034 q -1.3057,1.94881 -3.80017,2.1242 -1.36416,0.0974 -2.1047,-0.54567 -0.72106,-0.66259 -0.83799,-1.89034 -0.11693,-1.22774 0.11693,-2.94269 0.17539,-1.1303 0.46771,-1.9488 0.29232,-0.83799 0.74055,-1.36416 0.46771,-0.52618 0.93542,-0.83799 0.46772,-0.33129 1.20826,-0.4872 0.76003,-0.1559 1.40314,-0.19488 0.6431,-0.039 1.65648,-0.039 1.01338,0 2.59191,0.21436 1.57853,0.19488 2.14368,0.40925 l -1.32518,9.39323 z m 0.13641,-7.34698 h -0.89645 q -0.72105,0 -1.1303,0.40924 -0.40925,0.38976 -0.60413,1.67597 -0.27283,1.85137 -0.11693,2.16318 0.0974,0.23385 0.52618,0.19488 0.81849,-0.0585 1.81238,-1.50058 z" />
        <path
           id="path858"
           style="font-style:italic;font-variant:normal;font-weight:800;font-stretch:normal;font-size:19.48802948px;font-family:'Exo 2';-inkscape-font-specification:'Exo 2 Ultra-Bold Italic';letter-spacing:-0.18978161px;fill:#616364;fill-opacity:1;stroke-width:0.56215465px"
           d="m 130.08568,219.33375 -0.40925,2.98167 q -0.1559,1.14979 -0.56515,2.31908 1.92931,-1.67597 3.70272,-1.67597 1.48109,0 2.18266,0.74054 0.70157,0.72106 0.50669,2.06573 l -1.01338,7.21057 h -4.09248 l 0.85747,-6.06077 q 0.0585,-0.31181 -0.0195,-0.40925 -0.0779,-0.0974 -0.35078,-0.0974 -0.87696,0 -1.90983,0.79901 l -0.79901,5.76845 h -4.09248 l 1.90982,-13.64162 z" />
        <path
           id="path860"
           style="font-style:italic;font-variant:normal;font-weight:800;font-stretch:normal;font-size:19.48802948px;font-family:'Exo 2';-inkscape-font-specification:'Exo 2 Ultra-Bold Italic';letter-spacing:-0.18978161px;fill:#616364;fill-opacity:1;stroke-width:0.56215465px"
           d="m 141.95898,219.33375 -1.4616,10.17275 q -0.078,0.37028 0.078,0.50669 0.1559,0.11693 0.68208,0.11693 h 0.77952 l 0.23386,2.65037 q -0.83799,0.46771 -2.78679,0.46771 -1.637,0 -2.49447,-0.76003 -0.83798,-0.76003 -0.68208,-2.04624 l 1.57853,-11.10818 z" />
        <path
           id="path862"
           style="font-style:italic;font-variant:normal;font-weight:800;font-stretch:normal;font-size:19.48802948px;font-family:'Exo 2';-inkscape-font-specification:'Exo 2 Ultra-Bold Italic';letter-spacing:-0.18978161px;fill:#616364;fill-opacity:1;stroke-width:0.56215465px"
           d="m 152.6045,229.85729 0.27283,2.49447 q -1.85136,0.85747 -4.61866,0.85747 -1.637,0 -2.72833,-0.3313 -1.09133,-0.33129 -1.67597,-1.01338 -0.58464,-0.68208 -0.77952,-1.59801 -0.17539,-0.93543 -0.039,-2.24113 0.15591,-1.53955 0.60413,-2.55293 0.44823,-1.01338 1.22775,-1.53955 0.79901,-0.54567 1.75392,-0.76004 0.9744,-0.21436 2.35805,-0.21436 2.92321,0 4.01454,0.89644 1.09133,0.89645 0.81849,2.72833 -0.17539,1.26672 -1.1303,1.77341 -0.93543,0.4872 -3.02065,0.6431 l -2.436,0.1754 q 0.0195,0.54566 0.31181,0.72105 0.31181,0.1754 1.07184,0.1754 2.1242,0 3.99505,-0.21437 z m -5.12536,-2.66986 1.11082,-0.11693 q 0.70157,-0.0585 0.9744,-0.21437 0.29232,-0.17539 0.35079,-0.68208 0.039,-0.3313 -0.15591,-0.46771 -0.17539,-0.13642 -0.74054,-0.11693 -0.72106,0.0195 -1.03287,0.3313 -0.31181,0.3118 -0.50669,1.26672 z" />
        <path
           id="path864"
           style="font-style:italic;font-variant:normal;font-weight:800;font-stretch:normal;font-size:19.48802948px;font-family:'Exo 2';-inkscape-font-specification:'Exo 2 Ultra-Bold Italic';letter-spacing:-0.18978161px;fill:#616364;fill-opacity:1;stroke-width:0.56215465px"
           d="m 163.26951,222.95853 -0.83798,3.7417 h -0.91594 q -0.99389,0 -2.59191,0.25334 l -0.8185,6.0218 h -4.11197 l 1.36416,-9.74401 h 3.19604 l 0.13641,1.32518 q 1.92932,-1.59801 3.87812,-1.59801 z" />
        <path
           id="path866"
           style="font-style:italic;font-variant:normal;font-weight:800;font-stretch:normal;font-size:19.48802948px;font-family:'Exo 2';-inkscape-font-specification:'Exo 2 Ultra-Bold Italic';letter-spacing:-0.18978161px;fill:#616364;fill-opacity:1;stroke-width:0.56215465px"
           d="m 173.25752,232.97537 -0.039,-1.89034 q -1.3057,1.94881 -3.80017,2.1242 -1.36416,0.0974 -2.10471,-0.54567 -0.72105,-0.66259 -0.83798,-1.89034 -0.11693,-1.22774 0.11693,-2.94269 0.17539,-1.1303 0.46771,-1.9488 0.29232,-0.83799 0.74054,-1.36416 0.46772,-0.52618 0.93543,-0.83799 0.46771,-0.33129 1.20826,-0.4872 0.76003,-0.1559 1.40314,-0.19488 0.6431,-0.039 1.65648,-0.039 1.01338,0 2.59191,0.21436 1.57853,0.19488 2.14368,0.40925 l -1.32519,9.39323 z m 0.13642,-7.34698 h -0.89645 q -0.72106,0 -1.13031,0.40924 -0.40925,0.38976 -0.60413,1.67597 -0.27283,1.85137 -0.11692,2.16318 0.0974,0.23385 0.52617,0.19488 0.8185,-0.0585 1.81239,-1.50058 z" />
        <path
           id="path868"
           style="font-style:italic;font-variant:normal;font-weight:800;font-stretch:normal;font-size:19.48802948px;font-family:'Exo 2';-inkscape-font-specification:'Exo 2 Ultra-Bold Italic';letter-spacing:-0.18978161px;fill:#616364;fill-opacity:1;stroke-width:0.56215465px"
           d="m 189.51561,223.23136 -1.34467,9.74401 h -3.19604 l -0.0779,-1.65648 q -1.98778,1.92931 -3.97556,1.92931 -1.52007,0 -2.22163,-0.72105 -0.68209,-0.74055 -0.4872,-2.08522 l 0.99388,-7.21057 h 4.11198 l -0.87696,6.06077 q -0.078,0.52618 0.44822,0.52618 0.76004,0 1.73444,-0.72106 l 0.83798,-5.86589 z" />
        <path
           id="path870"
           style="font-style:italic;font-variant:normal;font-weight:800;font-stretch:normal;font-size:19.48802948px;font-family:'Exo 2';-inkscape-font-specification:'Exo 2 Ultra-Bold Italic';letter-spacing:-0.18978161px;fill:#616364;fill-opacity:1;stroke-width:0.56215465px"
           d="m 194.52912,229.56497 -2.04625,-0.58464 q -2.55293,-0.72106 -2.16317,-3.33246 0.19488,-1.36416 1.22775,-2.02675 1.05235,-0.66259 3.48836,-0.66259 2.88422,0 4.91098,0.44822 l -0.3313,2.35805 h -3.72221 q -1.09133,0 -1.38365,0.039 -0.29232,0.0195 -0.31181,0.1559 -0.039,0.15591 0.1559,0.27283 0.21437,0.0974 0.79901,0.25335 l 2.1242,0.56515 q 2.51395,0.68208 2.22163,3.07911 -0.21436,1.81239 -1.40313,2.436 -1.16929,0.62362 -3.54682,0.62362 -2.59191,0 -4.98894,-0.42874 l 0.3313,-2.35805 h 3.27398 q 1.4811,0 1.92932,-0.0585 0.44822,-0.0585 0.4872,-0.25335 0.0195,-0.13641 -0.17539,-0.23385 -0.19488,-0.0974 -0.87696,-0.29232 z" />
        <path
           id="path872"
           style="font-style:italic;font-variant:normal;font-weight:800;font-stretch:normal;font-size:19.48802948px;font-family:'Exo 2';-inkscape-font-specification:'Exo 2 Ultra-Bold Italic';letter-spacing:-0.18978161px;fill:#616364;fill-opacity:1;stroke-width:0.56215465px"
           d="m 206.16853,219.33375 -1.4616,10.17275 q -0.0779,0.37028 0.0779,0.50669 0.15591,0.11693 0.68209,0.11693 h 0.77952 l 0.23385,2.65037 q -0.83798,0.46771 -2.78679,0.46771 -1.63699,0 -2.49446,-0.76003 -0.83799,-0.76003 -0.68208,-2.04624 l 1.57853,-11.10818 z" />
        <path
           id="path874"
           style="font-style:italic;font-variant:normal;font-weight:800;font-stretch:normal;font-size:19.48802948px;font-family:'Exo 2';-inkscape-font-specification:'Exo 2 Ultra-Bold Italic';letter-spacing:-0.18978161px;fill:#616364;fill-opacity:1;stroke-width:0.56215465px"
           d="m 216.81405,229.85729 0.27284,2.49447 q -1.85137,0.85747 -4.61867,0.85747 -1.63699,0 -2.72832,-0.3313 -1.09133,-0.33129 -1.67597,-1.01338 -0.58464,-0.68208 -0.77952,-1.59801 -0.1754,-0.93543 -0.039,-2.24113 0.1559,-1.53955 0.60413,-2.55293 0.44822,-1.01338 1.22775,-1.53955 0.799,-0.54567 1.75392,-0.76004 0.9744,-0.21436 2.35805,-0.21436 2.9232,0 4.01453,0.89644 1.09133,0.89645 0.8185,2.72833 -0.17539,1.26672 -1.13031,1.77341 -0.93542,0.4872 -3.02064,0.6431 l -2.436,0.1754 q 0.0195,0.54566 0.31181,0.72105 0.3118,0.1754 1.07184,0.1754 2.12419,0 3.99504,-0.21437 z m -5.12535,-2.66986 1.11082,-0.11693 q 0.70157,-0.0585 0.9744,-0.21437 0.29232,-0.17539 0.35078,-0.68208 0.039,-0.3313 -0.1559,-0.46771 -0.17539,-0.13642 -0.74054,-0.11693 -0.72106,0.0195 -1.03287,0.3313 -0.31181,0.3118 -0.50669,1.26672 z" />
        <path
           id="path876"
           style="font-style:italic;font-variant:normal;font-weight:800;font-stretch:normal;font-size:19.48802948px;font-family:'Exo 2';-inkscape-font-specification:'Exo 2 Ultra-Bold Italic';letter-spacing:-0.18978161px;fill:#616364;fill-opacity:1;stroke-width:0.56215465px"
           d="m 223.05529,229.56497 -2.04625,-0.58464 q -2.55293,-0.72106 -2.16317,-3.33246 0.19488,-1.36416 1.22775,-2.02675 1.05235,-0.66259 3.48835,-0.66259 2.88423,0 4.91099,0.44822 l -0.3313,2.35805 h -3.72221 q -1.09133,0 -1.38365,0.039 -0.29232,0.0195 -0.31181,0.1559 -0.039,0.15591 0.1559,0.27283 0.21437,0.0974 0.79901,0.25335 l 2.1242,0.56515 q 2.51395,0.68208 2.22163,3.07911 -0.21437,1.81239 -1.40313,2.436 -1.16929,0.62362 -3.54683,0.62362 -2.5919,0 -4.98893,-0.42874 l 0.33129,-2.35805 h 3.27399 q 1.48109,0 1.92932,-0.0585 0.44822,-0.0585 0.4872,-0.25335 0.0195,-0.13641 -0.17539,-0.23385 -0.19488,-0.0974 -0.87696,-0.29232 z" />
        <path
           id="path878"
           style="font-style:italic;font-variant:normal;font-weight:800;font-stretch:normal;font-size:19.48802948px;font-family:'Exo 2';-inkscape-font-specification:'Exo 2 Ultra-Bold Italic';letter-spacing:-0.18978161px;fill:#616364;fill-opacity:1;stroke-width:0.56215465px"
           d="m 238.61181,229.85729 0.27284,2.49447 q -1.85137,0.85747 -4.61867,0.85747 -1.63699,0 -2.72832,-0.3313 -1.09133,-0.33129 -1.67597,-1.01338 -0.58464,-0.68208 -0.77952,-1.59801 -0.1754,-0.93543 -0.039,-2.24113 0.1559,-1.53955 0.60413,-2.55293 0.44822,-1.01338 1.22775,-1.53955 0.799,-0.54567 1.75392,-0.76004 0.9744,-0.21436 2.35805,-0.21436 2.9232,0 4.01453,0.89644 1.09133,0.89645 0.8185,2.72833 -0.17539,1.26672 -1.13031,1.77341 -0.93542,0.4872 -3.02064,0.6431 l -2.436,0.1754 q 0.0195,0.54566 0.31181,0.72105 0.3118,0.1754 1.07184,0.1754 2.12419,0 3.99504,-0.21437 z m -5.12535,-2.66986 1.11082,-0.11693 q 0.70157,-0.0585 0.9744,-0.21437 0.29232,-0.17539 0.35078,-0.68208 0.039,-0.3313 -0.1559,-0.46771 -0.17539,-0.13642 -0.74054,-0.11693 -0.72106,0.0195 -1.03287,0.3313 -0.31181,0.3118 -0.50669,1.26672 z" />
        <path
           id="path880"
           style="font-style:italic;font-variant:normal;font-weight:800;font-stretch:normal;font-size:19.48802948px;font-family:'Exo 2';-inkscape-font-specification:'Exo 2 Ultra-Bold Italic';letter-spacing:-0.18978161px;fill:#616364;fill-opacity:1;stroke-width:0.56215465px"
           d="m 244.54124,223.23136 0.0974,1.71494 q 0.93542,-0.93542 2.06573,-1.4616 1.1303,-0.52617 2.20215,-0.52617 1.26672,0 1.98777,0.74054 0.74055,0.72106 0.54567,2.06573 l -1.01338,7.21057 h -4.11197 l 0.83798,-5.88538 q 0.0585,-0.40925 -0.0585,-0.56516 -0.0974,-0.1559 -0.46771,-0.11692 -0.79901,0.078 -1.71495,0.77952 l -0.8185,5.78794 h -4.09248 l 1.34467,-9.74401 z" />
      </g>
      <g
         id="text1750"
         style="font-style:normal;font-weight:normal;font-size:22.76382256px;line-height:125%;font-family:sans-serif;letter-spacing:0px;word-spacing:0px;fill:#393536;fill-opacity:1;stroke:none;stroke-width:0.56909549px;stroke-linecap:butt;stroke-linejoin:miter;stroke-opacity:1"
         transform="scale(1.0031386,0.9968712)"
         aria-label="Daniel Hirscher">
        <path
           id="path883"
           style="font-style:italic;font-variant:normal;font-weight:bold;font-stretch:normal;font-size:10.62311745px;font-family:'Exo 2';-inkscape-font-specification:'Exo 2 Bold Italic';fill:#393536;fill-opacity:1;stroke-width:0.56909549px"
           d="m 48.062477,244.69986 1.030443,-7.32995 q 1.381005,-0.0956 2.62391,-0.0956 1.211035,0 1.880291,0.33994 0.669257,0.33994 0.902965,1.17917 0.244332,0.83922 0.04249,2.30521 -0.16997,1.18979 -0.435548,1.91216 -0.254955,0.72238 -0.722372,1.12605 -0.456794,0.39306 -1.030442,0.53116 -0.573649,0.12748 -1.519106,0.12748 -1.200412,0 -2.772634,-0.0956 z m 2.48581,-6.15079 -0.701126,4.961 q 0.180593,0 0.50991,0.0106 0.329316,0 0.456794,0 0.509909,0 0.807357,-0.085 0.30807,-0.0956 0.563025,-0.36119 0.254955,-0.2762 0.393055,-0.77548 0.148724,-0.49929 0.265578,-1.32789 0.116854,-0.79674 0.116854,-1.25353 0.01062,-0.4568 -0.1381,-0.733 -0.138101,-0.2762 -0.403679,-0.36118 -0.265578,-0.085 -0.754241,-0.085 z" />
        <path
           id="path885"
           style="font-style:italic;font-variant:normal;font-weight:bold;font-stretch:normal;font-size:10.62311745px;font-family:'Exo 2';-inkscape-font-specification:'Exo 2 Bold Italic';fill:#393536;fill-opacity:1;stroke-width:0.56909549px"
           d="m 60.172826,244.69986 h -1.221659 l 0.01062,-0.94546 q -0.807356,1.04107 -2.145869,1.07294 -0.98795,0.0319 -1.338513,-0.63739 -0.33994,-0.67988 -0.116854,-2.20961 0.106231,-0.72237 0.297447,-1.21103 0.191216,-0.49929 0.424925,-0.78611 0.233708,-0.28683 0.605517,-0.43555 0.371809,-0.14873 0.711749,-0.19122 0.350563,-0.0425 0.881719,-0.0425 0.563025,0 1.349136,0.0956 0.786111,0.0956 1.253528,0.22308 z m -0.966704,-4.228 h -0.807357 q -0.764864,0 -1.041065,0.26558 -0.276201,0.26557 -0.414302,1.26415 -0.1381,1.00919 -0.06374,1.29602 0.07436,0.2762 0.456794,0.25495 0.701126,-0.0106 1.572222,-0.98795 z" />
        <path
           id="path887"
           style="font-style:italic;font-variant:normal;font-weight:bold;font-stretch:normal;font-size:10.62311745px;font-family:'Exo 2';-inkscape-font-specification:'Exo 2 Bold Italic';fill:#393536;fill-opacity:1;stroke-width:0.56909549px"
           d="m 63.402235,239.46266 v 1.04107 q 1.221658,-1.18979 2.390201,-1.18979 0.669257,0 1.030443,0.39305 0.361186,0.38244 0.254954,1.09419 l -0.552402,3.89868 h -1.561598 l 0.47804,-3.43127 q 0.05312,-0.37181 -0.02125,-0.49928 -0.07436,-0.1381 -0.329317,-0.12748 -0.594894,0.0106 -1.63596,0.8286 l -0.446171,3.22943 h -1.572221 l 0.732995,-5.2372 z" />
        <path
           id="path889"
           style="font-style:italic;font-variant:normal;font-weight:bold;font-stretch:normal;font-size:10.62311745px;font-family:'Exo 2';-inkscape-font-specification:'Exo 2 Bold Italic';fill:#393536;fill-opacity:1;stroke-width:0.56909549px"
           d="m 69.287428,237.14682 h 0.658633 q 0.499286,0 0.446171,0.48867 l -0.07436,0.57364 q -0.06374,0.42493 -0.50991,0.42493 h -0.669256 q -0.488663,0 -0.424925,-0.48866 l 0.07436,-0.56303 q 0.04249,-0.43555 0.499287,-0.43555 z m 0.08498,7.55304 h -1.561599 l 0.732995,-5.2372 h 1.561599 z" />
        <path
           id="path891"
           style="font-style:italic;font-variant:normal;font-weight:bold;font-stretch:normal;font-size:10.62311745px;font-family:'Exo 2';-inkscape-font-specification:'Exo 2 Bold Italic';fill:#393536;fill-opacity:1;stroke-width:0.56909549px"
           d="m 75.501948,243.45695 0.106231,0.99858 q -0.881718,0.37181 -2.305216,0.37181 -1.49786,0 -2.060885,-0.70113 -0.563025,-0.70112 -0.393055,-2.15649 0.191216,-1.52973 0.871095,-2.09276 0.67988,-0.56302 2.167116,-0.56302 1.381006,0 1.869669,0.45679 0.499287,0.4568 0.371809,1.34914 -0.106231,0.74362 -0.605517,1.06231 -0.499287,0.31869 -1.540353,0.39306 l -1.550975,0.11685 q 0.01062,0.52053 0.254955,0.70113 0.254955,0.18059 0.796734,0.18059 1.030442,0 2.018392,-0.11686 z m -2.974473,-1.68907 1.221659,-0.11686 q 0.424925,-0.0319 0.616141,-0.16996 0.201839,-0.13811 0.244331,-0.50991 0.03187,-0.35057 -0.1381,-0.43555 -0.159347,-0.085 -0.690503,-0.0744 -0.616141,0 -0.871095,0.26557 -0.244332,0.25496 -0.382433,1.04107 z" />
        <path
           id="path893"
           style="font-style:italic;font-variant:normal;font-weight:bold;font-stretch:normal;font-size:10.62311745px;font-family:'Exo 2';-inkscape-font-specification:'Exo 2 Bold Italic';fill:#393536;fill-opacity:1;stroke-width:0.56909549px"
           d="m 79.251903,237.26368 -0.81798,5.75773 q -0.04249,0.28682 0.05312,0.39305 0.106231,0.10623 0.435548,0.10623 h 0.456794 l 0.07436,1.11543 q -0.371809,0.19122 -1.221658,0.19122 -0.732995,0 -1.115427,-0.39306 -0.371809,-0.39305 -0.286825,-1.08356 l 0.860473,-6.08704 z" />
        <path
           id="path895"
           style="font-style:italic;font-variant:normal;font-weight:bold;font-stretch:normal;font-size:10.62311745px;font-family:'Exo 2';-inkscape-font-specification:'Exo 2 Bold Italic';fill:#393536;fill-opacity:1;stroke-width:0.56909549px"
           d="m 89.067634,237.36991 -1.030442,7.32995 h -1.614714 l 0.456794,-3.2613 h -2.538925 l -0.467417,3.2613 h -1.625337 l 1.030442,-7.32995 h 1.625337 l -0.393055,2.8045 h 2.549548 l 0.393056,-2.8045 z" />
        <path
           id="path897"
           style="font-style:italic;font-variant:normal;font-weight:bold;font-stretch:normal;font-size:10.62311745px;font-family:'Exo 2';-inkscape-font-specification:'Exo 2 Bold Italic';fill:#393536;fill-opacity:1;stroke-width:0.56909549px"
           d="m 90.937284,237.14682 h 0.658633 q 0.499287,0 0.446171,0.48867 l -0.07436,0.57364 q -0.06374,0.42493 -0.50991,0.42493 H 90.78856 q -0.488663,0 -0.424924,-0.48866 l 0.07436,-0.56303 q 0.04249,-0.43555 0.499286,-0.43555 z m 0.08498,7.55304 h -1.561598 l 0.732995,-5.2372 h 1.561598 z" />
        <path
           id="path899"
           style="font-style:italic;font-variant:normal;font-weight:bold;font-stretch:normal;font-size:10.62311745px;font-family:'Exo 2';-inkscape-font-specification:'Exo 2 Bold Italic';fill:#393536;fill-opacity:1;stroke-width:0.56909549px"
           d="m 96.843733,239.31394 -0.350563,1.45537 h -0.382433 q -0.329316,0 -0.701125,0.14872 -0.361186,0.1381 -1.051689,0.49929 l -0.446171,3.28254 h -1.572221 l 0.732995,-5.2372 h 1.221658 v 0.98795 q 1.200413,-1.13667 2.230855,-1.13667 z" />
        <path
           id="path901"
           style="font-style:italic;font-variant:normal;font-weight:bold;font-stretch:normal;font-size:10.62311745px;font-family:'Exo 2';-inkscape-font-specification:'Exo 2 Bold Italic';fill:#393536;fill-opacity:1;stroke-width:0.56909549px"
           d="m 99.478248,242.81957 -1.264151,-0.52053 q -0.637387,-0.25496 -0.892342,-0.64802 -0.254955,-0.39305 -0.180593,-0.98795 0.08499,-0.72237 0.626764,-1.04106 0.552402,-0.31869 1.720945,-0.30807 1.444739,0.0213 2.422069,0.21246 l -0.14872,0.99857 q -2.039641,-0.0319 -2.07151,-0.0319 -0.616141,0 -0.81798,0.0531 -0.201839,0.0425 -0.233709,0.22309 -0.02125,0.18059 0.09561,0.2762 0.127477,0.085 0.47804,0.22308 l 1.2854,0.50991 q 0.64801,0.25496 0.91359,0.61614 0.26557,0.36119 0.19121,0.96671 -0.0637,0.46741 -0.25495,0.76486 -0.1806,0.29745 -0.53116,0.44617 -0.35056,0.14873 -0.75424,0.19122 -0.403679,0.0531 -1.030443,0.0531 -0.956081,0 -2.305217,-0.19121 l 0.148724,-1.0092 q 0.382432,0.0213 1.667829,0.0213 0.913589,0 1.211036,-0.0637 0.297451,-0.0637 0.339941,-0.2762 0.0212,-0.15935 -0.085,-0.23371 -0.0956,-0.0744 -0.393052,-0.19122 -0.08499,-0.0319 -0.1381,-0.0531 z" />
        <path
           id="path903"
           style="font-style:italic;font-variant:normal;font-weight:bold;font-stretch:normal;font-size:10.62311745px;font-family:'Exo 2';-inkscape-font-specification:'Exo 2 Bold Italic';fill:#393536;fill-opacity:1;stroke-width:0.56909549px"
           d="m 106.8188,243.45695 0.10623,1.03045 q -0.80735,0.33994 -2.03964,0.33994 -1.42349,0 -1.98652,-0.65864 -0.56302,-0.65863 -0.35056,-2.15649 0.21246,-1.47661 0.84985,-2.08213 0.63739,-0.61614 2.03964,-0.61614 1.2429,0 2.00777,0.33994 l -0.21247,0.95608 q -1.23228,-0.0213 -1.58284,-0.0213 -0.733,0 -1.05169,0.30807 -0.30807,0.29745 -0.4143,1.18979 -0.11686,0.92421 0.0744,1.20041 0.20184,0.26558 0.90297,0.26558 0.98795,0 1.6572,-0.0956 z" />
        <path
           id="path905"
           style="font-style:italic;font-variant:normal;font-weight:bold;font-stretch:normal;font-size:10.62311745px;font-family:'Exo 2';-inkscape-font-specification:'Exo 2 Bold Italic';fill:#393536;fill-opacity:1;stroke-width:0.56909549px"
           d="m 110.39879,237.26368 -0.25495,1.84842 q -0.0956,0.65863 -0.2762,1.2854 1.21103,-1.08356 2.23085,-1.08356 0.72237,0 1.07294,0.39305 0.36118,0.38244 0.25495,1.09419 l -0.5524,3.89868 h -1.5616 l 0.48867,-3.47376 q 0.0425,-0.35056 -0.0319,-0.46742 -0.0637,-0.11685 -0.29745,-0.11685 -0.35056,0 -0.733,0.20184 -0.37181,0.19121 -0.94545,0.63739 l -0.43555,3.2188 h -1.57222 l 1.04106,-7.43618 z" />
        <path
           id="path907"
           style="font-style:italic;font-variant:normal;font-weight:bold;font-stretch:normal;font-size:10.62311745px;font-family:'Exo 2';-inkscape-font-specification:'Exo 2 Bold Italic';fill:#393536;fill-opacity:1;stroke-width:0.56909549px"
           d="m 118.92914,243.45695 0.10623,0.99858 q -0.88171,0.37181 -2.30521,0.37181 -1.49786,0 -2.06089,-0.70113 -0.56302,-0.70112 -0.39305,-2.15649 0.19121,-1.52973 0.87109,-2.09276 0.67988,-0.56302 2.16712,-0.56302 1.381,0 1.86967,0.45679 0.49928,0.4568 0.37181,1.34914 -0.10623,0.74362 -0.60552,1.06231 -0.49929,0.31869 -1.54035,0.39306 l -1.55098,0.11685 q 0.0106,0.52053 0.25496,0.70113 0.25495,0.18059 0.79673,0.18059 1.03044,0 2.01839,-0.11686 z m -2.97447,-1.68907 1.22166,-0.11686 q 0.42492,-0.0319 0.61614,-0.16996 0.20184,-0.13811 0.24433,-0.50991 0.0319,-0.35057 -0.1381,-0.43555 -0.15935,-0.085 -0.6905,-0.0744 -0.61614,0 -0.8711,0.26557 -0.24433,0.25496 -0.38243,1.04107 z" />
        <path
           id="path909"
           style="font-style:italic;font-variant:normal;font-weight:bold;font-stretch:normal;font-size:10.62311745px;font-family:'Exo 2';-inkscape-font-specification:'Exo 2 Bold Italic';fill:#393536;fill-opacity:1;stroke-width:0.56909549px"
           d="m 124.57002,239.31394 -0.35057,1.45537 h -0.38243 q -0.32932,0 -0.70112,0.14872 -0.36119,0.1381 -1.05169,0.49929 l -0.44617,3.28254 h -1.57223 l 0.733,-5.2372 h 1.22166 v 0.98795 q 1.20041,-1.13667 2.23085,-1.13667 z" />
      </g>
    </g>
    <g
       transform="matrix(0.45774112,0,0,-0.45774112,226.19456,242.90103)"
       id="g10">
      <path
         id="path33"
         d="M -3.0094223,43.967414 26.133028,61.28313 55.960901,44.322183 56.896678,32.391033 47.187997,24.904821 57.949425,18.705303 55.726956,7.0080987 28.706414,-8.7831285 -5.4494237,6.4232377 Z"
         style="fill:#ffffff;stroke:none;stroke-width:0.99017888px;stroke-linecap:butt;stroke-linejoin:miter;stroke-opacity:1" />
      <path
         d="m 26.261813,-13.008806 -0.01189,0.0072 -0.01228,-0.0072 -0.01188,0.02115 -33.7259426,19.4554097 h -0.05724 l 0.01084,39.5468203 33.8140806,19.494239 33.78992,-19.492661 V 30.444071 h -0.06509 l 0.06509,-0.112484 -6.97152,-4.021578 6.97152,-4.021975 -0.0021,-0.0037 0.0021,-0.0011 V 6.5575257 h -0.033 l 0.033,-0.05677 -33.783715,-19.4884177 -0.01188,-0.02115 m 3.360402,41.496813 v 0 l 0.05518,-31.3412863 23.37799,13.3983213 v 7.698707 l -6.976007,4.024087 -7.107108,-4.099869 v 8.083293 l 14.083115,8.124087 v 7.59652 L 26.256672,57.431595 -0.55549667,41.96421 V 10.545041 L 22.62034,-2.8120226 V 24.438571 l -5.585269,-3.230491 -7.002413,4.039665 20.93621,12.112133 7.00545,-4.041778 -8.352094,-4.830093"
         style="fill:url(#linearGradient30);fill-opacity:1;fill-rule:nonzero;stroke:none;stroke-width:0.13202386"
         id="path32" />
    </g>
  </g>
  <style
     type="text/css"
     id="style2">
	.st0{fill:#E9502D;}
</style>
  <style
     id="style1648"
     type="text/css">
	.st0{fill:#F14531;}
	.st1{fill:#616364;}
	.st2{fill:#393536;}
</style>
</svg>
