<?xml version="1.0" encoding="UTF-8" standalone="no"?>
<svg
   xmlns:dc="http://purl.org/dc/elements/1.1/"
   xmlns:cc="http://creativecommons.org/ns#"
   xmlns:rdf="http://www.w3.org/1999/02/22-rdf-syntax-ns#"
   xmlns:svg="http://www.w3.org/2000/svg"
   xmlns="http://www.w3.org/2000/svg"
   xmlns:sodipodi="http://sodipodi.sourceforge.net/DTD/sodipodi-0.dtd"
   xmlns:inkscape="http://www.inkscape.org/namespaces/inkscape"
   width="1920"
   height="1080"
   viewBox="0 0 507.99999 285.75001"
   version="1.1"
   id="svg8"
   sodipodi:docname="web-app-entwicklung-react-redux.svg"
   inkscape:version="0.92.3 (2405546, 2018-03-11)">
  <sodipodi:namedview
     pagecolor="#ffffff"
     bordercolor="#666666"
     borderopacity="1"
     objecttolerance="10"
     gridtolerance="10"
     guidetolerance="10"
     inkscape:pageopacity="0"
     inkscape:pageshadow="2"
     inkscape:window-width="1869"
     inkscape:window-height="1025"
     id="namedview866"
     showgrid="false"
     inkscape:pagecheckerboard="true"
     showguides="true"
     inkscape:guide-bbox="true"
     inkscape:zoom="0.40842783"
     inkscape:cx="416.29066"
     inkscape:cy="482.90259"
     inkscape:window-x="51"
     inkscape:window-y="27"
     inkscape:window-maximized="1"
     inkscape:current-layer="svg8">
    <sodipodi:guide
       position="-27.02615,57.029757"
       orientation="0,1"
       id="guide983"
       inkscape:locked="false" />
    <sodipodi:guide
       position="16.719567,110.85302"
       orientation="1,0"
       id="guide985"
       inkscape:locked="false" />
  </sodipodi:namedview>
  <defs
     id="defs2">
    <linearGradient
       id="linearGradient30"
       spreadMethod="pad"
       gradientTransform="matrix(0,-46.513853,-46.513853,0,26.250064,37.547485)"
       gradientUnits="userSpaceOnUse"
       y2="0"
       x2="1"
       y1="0"
       x1="0">
      <stop
         id="stop24"
         offset="0"
         style="stop-opacity:1;stop-color:#f14531" />
      <stop
         id="stop26"
         offset="0.330076"
         style="stop-opacity:1;stop-color:#d23128" />
      <stop
         id="stop28"
         offset="1"
         style="stop-opacity:1;stop-color:#98131a" />
    </linearGradient>
  </defs>
  <metadata
     id="metadata5">
    <rdf:RDF>
      <cc:Work
         rdf:about="">
        <dc:format>image/svg+xml</dc:format>
        <dc:type
           rdf:resource="http://purl.org/dc/dcmitype/StillImage" />
        <dc:title></dc:title>
      </cc:Work>
    </rdf:RDF>
  </metadata>
  <path
     inkscape:connector-curvature="0"
     d="m 343.06126,179.78203 26.40885,15.24716 v 30.49431 l -26.40885,15.24716 -26.40885,-15.24716 v -30.49431 z"
     id="path23"
     style="opacity:1;fill:#ffffff;fill-opacity:1;stroke:none;stroke-width:0.69300276;stroke-linecap:butt;stroke-linejoin:miter;stroke-miterlimit:3.79999995;stroke-dasharray:none;stroke-opacity:1;paint-order:markers stroke fill" />
  <rect
     y="179.78218"
     x="0"
     height="60.988667"
     width="343.06125"
     id="rect21"
     style="opacity:1;fill:#ffffff;fill-opacity:1;stroke:none;stroke-width:0.70996273;stroke-linecap:butt;stroke-linejoin:miter;stroke-miterlimit:3.79999995;stroke-dasharray:none;stroke-opacity:1;paint-order:markers stroke fill" />
  <g
     id="g10"
     transform="matrix(0.6594572,0,0,-0.6594572,325.87335,227.63218)">
    <path
       inkscape:connector-curvature="0"
       style="fill:#ffffff;stroke:none;stroke-width:0.99017888px;stroke-linecap:butt;stroke-linejoin:miter;stroke-opacity:1"
       d="M -3.0094223,43.967414 26.133028,61.28313 55.960901,44.322183 56.896678,32.391033 47.187997,24.904821 57.949425,18.705303 55.726956,7.0080987 28.706414,-8.7831285 -5.4494237,6.4232377 Z"
       id="path33" />
    <path
       inkscape:connector-curvature="0"
       id="path32"
       style="fill:url(#linearGradient30);fill-opacity:1;fill-rule:nonzero;stroke:none;stroke-width:0.13202386"
       d="m 26.261813,-13.008806 -0.01189,0.0072 -0.01228,-0.0072 -0.01188,0.02115 -33.7259426,19.4554097 h -0.05724 l 0.01084,39.5468203 33.8140806,19.494239 33.78992,-19.492661 V 30.444071 h -0.06509 l 0.06509,-0.112484 -6.97152,-4.021578 6.97152,-4.021975 -0.0021,-0.0037 0.0021,-0.0011 V 6.5575257 h -0.033 l 0.033,-0.05677 -33.783715,-19.4884177 -0.01188,-0.02115 m 3.360402,41.496813 v 0 l 0.05518,-31.3412863 23.37799,13.3983213 v 7.698707 l -6.976007,4.024087 -7.107108,-4.099869 v 8.083293 l 14.083115,8.124087 v 7.59652 L 26.256672,57.431595 -0.55549667,41.96421 V 10.545041 L 22.62034,-2.8120226 V 24.438571 l -5.585269,-3.230491 -7.002413,4.039665 20.93621,12.112133 7.00545,-4.041778 -8.352094,-4.830093" />
  </g>
  <style
     type="text/css"
     id="style2">
	.st0{fill:#E9502D;}
</style>
  <style
     id="style1648"
     type="text/css">
	.st0{fill:#F14531;}
	.st1{fill:#616364;}
	.st2{fill:#393536;}
</style>
  <g
     aria-label="Web-App-Entwicklung mit React und Redux"
     style="font-style:italic;font-variant:normal;font-weight:900;font-stretch:normal;font-size:12.69999981px;line-height:1;font-family:'Exo 2';-inkscape-font-specification:'Exo 2, Heavy Italic';font-variant-ligatures:normal;font-variant-caps:normal;font-variant-numeric:normal;font-feature-settings:normal;text-align:start;letter-spacing:0px;word-spacing:0px;writing-mode:lr-tb;text-anchor:start;fill:#616364;fill-opacity:1;stroke:none;stroke-width:0.52786458"
     id="text946">
    <path
       d="m 26.827607,200.47511 -2.2098,8.0772 q -0.1778,0.6858 -0.9652,0.6858 h -2.3114 q -0.3556,0 -0.6223,-0.2286 -0.2667,-0.2286 -0.254,-0.5588 l 0.0889,-4.6863 q 0.0127,-0.3048 0.0635,-1.3335 h -0.2286 q -0.0889,0.635 -0.254,1.2954 l -1.2573,4.826 q -0.1778,0.6858 -0.9652,0.6858 h -2.3749 q -0.3556,0 -0.6223,-0.2286 -0.254,-0.2286 -0.2286,-0.5588 v -7.9756 h 2.7051 l -0.3429,5.4229 q -0.0127,0.254 -0.0508,0.7747 -0.0381,0.508 -0.0508,0.6858 h 0.2159 q 0.1651,-0.889 0.3556,-1.5748 l 1.2192,-4.5466 q 0.2032,-0.762 0.9779,-0.762 h 1.9177 q 0.3683,0 0.6096,0.254 0.2413,0.2413 0.2413,0.6096 v 4.572 q 0,0.5334 -0.0254,1.4478 h 0.2286 q 0.0762,-0.7493 0.2667,-1.5367 l 1.1684,-5.3467 z"
       style=""
       id="path1249" />
    <path
       d="m 32.70096,207.20611 0.1778,1.6256 q -1.2065,0.5588 -3.0099,0.5588 -1.0668,0 -1.778,-0.2159 -0.7112,-0.2159 -1.0922,-0.6604 -0.381,-0.4445 -0.508,-1.0414 -0.1143,-0.6096 -0.0254,-1.4605 0.1016,-1.0033 0.3937,-1.6637 0.2921,-0.6604 0.8001,-1.0033 0.5207,-0.3556 1.143,-0.4953 0.635,-0.1397 1.5367,-0.1397 1.905,0 2.6162,0.5842 0.7112,0.5842 0.5334,1.778 -0.1143,0.8255 -0.7366,1.1557 -0.6096,0.3175 -1.9685,0.4191 l -1.5875,0.1143 q 0.0127,0.3556 0.2032,0.4699 0.2032,0.1143 0.6985,0.1143 1.3843,0 2.6035,-0.1397 z m -3.3401,-1.7399 0.7239,-0.0762 q 0.4572,-0.0381 0.635,-0.1397 0.1905,-0.1143 0.2286,-0.4445 0.0254,-0.2159 -0.1016,-0.3048 -0.1143,-0.0889 -0.4826,-0.0762 -0.4699,0.0127 -0.6731,0.2159 -0.2032,0.2032 -0.3302,0.8255 z"
       style=""
       id="path1251" />
    <path
       d="m 37.639275,200.34811 -0.2032,1.5621 q -0.1016,0.9271 -0.4191,1.7272 0.9906,-0.9271 2.2479,-0.9271 2.3368,0 1.8288,3.3782 -0.0889,0.5588 -0.2159,0.9906 -0.127,0.4318 -0.4064,0.889 -0.2667,0.4445 -0.6604,0.7493 -0.381,0.2921 -1.016,0.4826 -0.6223,0.1905 -1.4224,0.1905 -0.8763,0 -1.9939,-0.1397 -1.1176,-0.1397 -1.6129,-0.3937 l 1.1938,-8.509 z m -0.6477,4.8133 -0.3556,2.413 q 0.3683,0.0381 0.6096,0.0254 0.508,-0.0254 0.7493,-0.3683 0.2413,-0.3556 0.3937,-1.3335 0.1016,-0.6731 0.0381,-0.889 -0.0508,-0.2286 -0.3556,-0.2286 -0.4699,0 -1.0795,0.381 z"
       style=""
       id="path1253" />
    <path
       d="m 45.605152,206.74891 h -3.6957 l 0.2286,-1.5494 h 3.6957 z"
       style=""
       id="path1255" />
    <path
       d="m 51.673371,207.38391 h -2.3876 l -0.6858,1.8542 h -2.8575 l 3.3782,-8.1026 q 0.254,-0.6604 0.9652,-0.6604 h 2.4892 q 0.3302,0 0.5842,0.2286 0.254,0.2159 0.2921,0.5334 l 1.1303,8.001 h -2.7559 z m -0.1524,-2.0066 -0.1524,-1.8923 q -0.0381,-0.3302 -0.0127,-0.9779 h -0.3556 q -0.0889,0.5207 -0.254,0.9525 l -0.7112,1.9177 z"
       style=""
       id="path1257" />
    <path
       d="m 58.007298,202.88811 v 1.1176 q 1.2192,-1.27 2.5527,-1.27 1.0922,0 1.5367,0.889 0.4572,0.889 0.2413,2.6162 -0.127,0.9525 -0.3937,1.6002 -0.254,0.6477 -0.6604,0.9779 -0.3937,0.3302 -0.8509,0.4572 -0.4445,0.1397 -1.0541,0.1397 -0.8509,0 -1.7526,-0.1651 0,0.5969 -0.0889,1.1811 l -0.1778,1.0922 h -2.667 l 1.1938,-8.636 z m -0.1016,4.9149 h 0.5842 q 0.6096,0 0.7874,-0.2667 0.1905,-0.2667 0.3302,-1.2192 0.0889,-0.635 0.0889,-0.9525 0,-0.3175 -0.0889,-0.4445 -0.0762,-0.1397 -0.2794,-0.1397 -0.5334,0 -1.1303,0.5969 z"
       style=""
       id="path1259" />
    <path
       d="m 65.820775,202.88811 v 1.1176 q 1.2192,-1.27 2.5527,-1.27 1.0922,0 1.5367,0.889 0.4572,0.889 0.2413,2.6162 -0.127,0.9525 -0.3937,1.6002 -0.254,0.6477 -0.6604,0.9779 -0.3937,0.3302 -0.8509,0.4572 -0.4445,0.1397 -1.0541,0.1397 -0.8509,0 -1.7526,-0.1651 0,0.5969 -0.0889,1.1811 l -0.1778,1.0922 h -2.667 l 1.1938,-8.636 z m -0.1016,4.9149 h 0.5842 q 0.6096,0 0.7874,-0.2667 0.1905,-0.2667 0.3302,-1.2192 0.0889,-0.635 0.0889,-0.9525 0,-0.3175 -0.0889,-0.4445 -0.0762,-0.1397 -0.2794,-0.1397 -0.5334,0 -1.1303,0.5969 z"
       style=""
       id="path1261" />
    <path
       d="m 74.701051,206.74891 h -3.6957 l 0.2286,-1.5494 h 3.6957 z"
       style=""
       id="path1263" />
    <path
       d="m 82.864768,202.53251 h -3.048 q -0.330199,0 -0.469899,0.1143 -0.1397,0.1143 -0.1778,0.3937 l -0.1143,0.8001 h 3.162299 l -0.2286,1.8288 h -3.187699 l -0.1397,1.016 q -0.0762,0.4953 0.4699,0.4953 h 3.047999 l -0.0508,1.9558 q -1.1303,0.1524 -4.292599,0.1524 -1.0668,0 -1.5875,-0.6604 -0.5207,-0.6604 -0.381,-1.7272 l 0.635,-4.5339 q 0.127,-0.9017 0.7112,-1.4224 0.5842,-0.5207 1.5367,-0.5207 3.149599,0 4.419599,0.1778 z"
       style=""
       id="path1265" />
    <path
       d="m 85.924082,202.88811 0.0635,1.1176 q 0.6096,-0.6096 1.3462,-0.9525 0.7366,-0.3429 1.4351,-0.3429 0.8255,0 1.2954,0.4826 0.4826,0.4699 0.3556,1.3462 l -0.6604,4.699 h -2.6797 l 0.5461,-3.8354 q 0.0381,-0.2667 -0.0381,-0.3683 -0.0635,-0.1016 -0.3048,-0.0762 -0.5207,0.0508 -1.1176,0.508 l -0.5334,3.7719 h -2.667 l 0.8763,-6.35 z"
       style=""
       id="path1267" />
    <path
       d="m 94.815865,204.48831 -0.3556,2.4892 q -0.0381,0.254 0.0254,0.3302 0.0762,0.0762 0.3683,0.0762 h 0.7493 l 0.1397,1.7272 q -0.7747,0.3048 -2.1209,0.3048 -0.9779,0 -1.5113,-0.4953 -0.5207,-0.4953 -0.3937,-1.3335 l 0.4572,-3.0988 h -1.0922 l 0.1905,-1.5367 1.143,-0.0635 0.2413,-1.6637 h 2.6289 l -0.2413,1.6637 h 1.524 l -0.2159,1.6002 z"
       style=""
       id="path1269" />
    <path
       d="m 99.495219,207.58711 h 0.0762 q 0.3302,0 0.533401,-0.8382 0.1143,-0.4699 0.2286,-1.1557 0.0508,-0.3048 0.1524,-1.0033 0.1016,-0.7112 0.1524,-1.0414 0.0381,-0.254 0.2286,-0.4572 0.1905,-0.2032 0.5588,-0.2032 h 2.1844 q 0.3048,0 0.508,0.1905 0.2159,0.1905 0.254,0.4826 v 4.0259 h 0.0889 q 0.0508,0 0.0889,-0.0127 0.0508,-0.0127 0.0889,-0.0381 0.0381,-0.0381 0.0635,-0.0635 0.0254,-0.0381 0.0508,-0.1016 0.0254,-0.0762 0.0381,-0.1143 0.0254,-0.0508 0.0381,-0.1397 0.0254,-0.1016 0.0381,-0.1524 0.0127,-0.0635 0.0381,-0.1778 0.0254,-0.1143 0.0381,-0.1905 0.0762,-0.3302 0.254,-1.4478 0.1524,-1.0033 0.2413,-2.2606 h 2.6416 q -0.1651,1.4732 -0.4318,2.6162 -0.3048,1.3208 -0.6223,2.1082 -0.3683,0.9144 -0.9398,1.27 -0.5588,0.3556 -1.8542,0.3556 h -0.9779 q -0.3175,0 -0.5334,-0.2032 -0.2159,-0.2159 -0.1905,-0.508 v -4.064 h -0.1524 q -0.0762,0.6604 -0.2413,1.5621 -0.1651,0.9144 -0.2921,1.4097 -0.1397,0.508 -0.3429,0.8509 -0.1905,0.3429 -0.3937,0.5334 -0.2032,0.1905 -0.5461,0.2921 -0.3302,0.0889 -0.596901,0.1143 -0.254,0.0127 -0.7239,0.0127 h -1.397 q -0.3048,0 -0.5207,-0.2032 -0.2032,-0.2032 -0.2286,-0.508 l -0.2032,-5.6515 h 2.7051 z"
       style=""
       id="path1271" />
    <path
       d="m 110.27474,199.97981 h 1.0287 q 0.8509,0 0.762,0.8382 l -0.0889,0.6477 q -0.0889,0.7366 -0.8763,0.7366 h -1.0414 q -0.8382,0 -0.7493,-0.8382 l 0.0889,-0.6477 q 0.0762,-0.7366 0.8763,-0.7366 z m 0.5969,9.2583 h -2.6543 l 0.8763,-6.35 h 2.6543 z"
       style=""
       id="path1273" />
    <path
       d="m 117.96697,207.19341 0.1905,1.6891 q -1.0668,0.508 -2.794,0.508 -1.7399,0 -2.5527,-0.8128 -0.8001,-0.8255 -0.5461,-2.6289 0.2413,-1.7399 1.0287,-2.4892 0.8001,-0.7493 2.5527,-0.7493 1.7526,0 2.9083,0.4953 l -0.3556,1.6256 h -2.2352 q -0.5588,0 -0.7874,0.254 -0.2286,0.254 -0.3302,0.9398 -0.1143,0.7747 0.0381,1.016 0.1651,0.2413 0.7493,0.2413 1.3335,0 2.1336,-0.0889 z"
       style=""
       id="path1275" />
    <path
       d="m 123.72206,202.88811 h 2.7432 q -0.4318,1.9304 -2.1717,3.0734 0.4699,0.3302 0.7112,0.8763 l 1.1557,2.4003 h -2.7305 l -1.0795,-2.3495 q -0.2794,0.1143 -0.5715,0.1905 0,0.1651 -0.0254,0.3937 l -0.254,1.7653 h -2.667 l 1.2446,-8.89 h 2.667 l -0.4826,3.4544 q -0.127,0.7747 -0.5461,1.5494 0.7493,-0.4064 1.2954,-1.0668 0.5461,-0.6731 0.7112,-1.397 z"
       style=""
       id="path1277" />
    <path
       d="m 130.48322,200.34811 -0.9525,6.6294 q -0.0508,0.2413 0.0508,0.3302 0.1016,0.0762 0.4445,0.0762 h 0.508 l 0.1524,1.7272 q -0.5461,0.3048 -1.8161,0.3048 -1.0668,0 -1.6256,-0.4953 -0.5461,-0.4953 -0.4445,-1.3335 l 1.0287,-7.239 z"
       style=""
       id="path1279" />
    <path
       d="m 138.69218,202.88811 -0.8763,6.35 h -2.0828 l -0.0508,-1.0795 q -1.2954,1.2573 -2.5908,1.2573 -0.9906,0 -1.4478,-0.4699 -0.4445,-0.4826 -0.3175,-1.3589 l 0.6477,-4.699 h 2.6797 l -0.5715,3.9497 q -0.0508,0.3429 0.2921,0.3429 0.4953,0 1.1303,-0.4699 l 0.5461,-3.8227 z"
       style=""
       id="path1281" />
    <path
       d="m 141.88346,202.88811 0.0635,1.1176 q 0.6096,-0.6096 1.3462,-0.9525 0.7366,-0.3429 1.4351,-0.3429 0.8255,0 1.2954,0.4826 0.4826,0.4699 0.3556,1.3462 l -0.6604,4.699 h -2.6797 l 0.5461,-3.8354 q 0.0381,-0.2667 -0.0381,-0.3683 -0.0635,-0.1016 -0.3048,-0.0762 -0.5207,0.0508 -1.1176,0.508 l -0.5334,3.7719 h -2.667 l 0.8763,-6.35 z"
       style=""
       id="path1283" />
    <path
       d="m 146.93984,209.94931 h 1.6002 q 1.9558,0 2.4765,-0.8128 0.1651,-0.2413 0.2794,-0.6858 0.127,-0.4445 0.2159,-0.6223 -0.8636,1.3589 -2.5654,1.4351 -1.3081,0.0635 -1.7272,-0.8128 -0.4064,-0.8763 -0.1397,-2.5654 0.1016,-0.635 0.2413,-1.1176 0.1524,-0.4953 0.3175,-0.8255 0.1778,-0.3429 0.4318,-0.5715 0.254,-0.2286 0.4826,-0.3556 0.2286,-0.127 0.5842,-0.1905 0.3683,-0.0762 0.6604,-0.0889 0.2921,-0.0254 0.7493,-0.0254 1.1811,0 2.2606,0.127 1.0795,0.127 1.5875,0.2794 l -0.6985,4.9784 q -0.127,0.9652 -0.4318,1.6637 -0.2921,0.6985 -0.6604,1.0922 -0.3683,0.3937 -0.9017,0.6223 -0.5207,0.2286 -0.9906,0.2921 -0.4572,0.0635 -1.0668,0.0635 -1.8796,0 -2.8321,-0.4445 z m 4.6228,-5.4991 h -0.6096 q -0.5969,0 -0.8128,0.2667 -0.2032,0.2667 -0.3429,1.0922 -0.0889,0.4953 -0.1143,0.8001 -0.0254,0.3048 0.0127,0.4826 0.0381,0.1778 0.127,0.2413 0.0889,0.0508 0.2667,0.0127 0.5969,-0.1143 1.2065,-0.9906 z"
       style=""
       id="path1285" />
    <path
       d="m 160.26372,202.88811 0.0762,0.9017 q 1.1176,-1.0795 2.3114,-1.0795 1.3208,0 1.6129,0.9144 1.0287,-0.9144 2.159,-0.9144 0.9398,0 1.3843,0.4826 0.4445,0.4826 0.3175,1.3462 l -0.6604,4.699 h -2.6416 l 0.5461,-3.9497 q 0.0508,-0.3302 -0.2413,-0.3302 -0.3683,0 -0.9144,0.381 l -0.5461,3.8989 h -2.5527 l 0.5461,-3.9497 q 0.0635,-0.3302 -0.2413,-0.3302 -0.381,0 -0.9271,0.3556 l -0.5334,3.9243 h -2.6543 l 0.889,-6.35 z"
       style=""
       id="path1287" />
    <path
       d="m 170.64935,199.97981 h 1.0287 q 0.8509,0 0.762,0.8382 l -0.0889,0.6477 q -0.0889,0.7366 -0.8763,0.7366 h -1.0414 q -0.8382,0 -0.7493,-0.8382 l 0.0889,-0.6477 q 0.0762,-0.7366 0.8763,-0.7366 z m 0.5969,9.2583 h -2.6543 l 0.8763,-6.35 h 2.6543 z"
       style=""
       id="path1289" />
    <path
       d="m 176.39848,204.48831 -0.3556,2.4892 q -0.0381,0.254 0.0254,0.3302 0.0762,0.0762 0.3683,0.0762 h 0.7493 l 0.1397,1.7272 q -0.7747,0.3048 -2.1209,0.3048 -0.9779,0 -1.5113,-0.4953 -0.5207,-0.4953 -0.3937,-1.3335 l 0.4572,-3.0988 h -1.0922 l 0.1905,-1.5367 1.143,-0.0635 0.2413,-1.6637 h 2.6289 l -0.2413,1.6637 h 1.524 l -0.2159,1.6002 z"
       style=""
       id="path1291" />
    <path
       d="m 180.77225,209.23811 1.2319,-8.763 q 1.27,-0.127 3.5433,-0.127 1.9177,0 2.7686,0.635 0.8509,0.6223 0.6477,2.1336 -0.1143,0.8509 -0.5588,1.3716 -0.4318,0.508 -1.4224,0.6096 l -0.0127,0.0889 q 1.0414,0.1524 1.1557,1.4097 l 0.3302,2.6416 h -2.8448 l -0.2286,-2.6543 q -0.0127,-0.3556 -0.1143,-0.4445 -0.1016,-0.1016 -0.3937,-0.1016 h -0.9652 l -0.4445,3.2004 z m 3.4163,-5.1435 h 0.9525 q 0.5588,0 0.7747,-0.1905 0.2159,-0.1905 0.3048,-0.8128 0.0635,-0.4572 -0.0889,-0.6223 -0.1397,-0.1778 -0.6096,-0.1778 h -1.0795 z"
       style=""
       id="path1293" />
    <path
       d="m 195.56854,207.20611 0.1778,1.6256 q -1.2065,0.5588 -3.0099,0.5588 -1.0668,0 -1.778,-0.2159 -0.7112,-0.2159 -1.0922,-0.6604 -0.381,-0.4445 -0.508,-1.0414 -0.1143,-0.6096 -0.0254,-1.4605 0.1016,-1.0033 0.3937,-1.6637 0.2921,-0.6604 0.8001,-1.0033 0.5207,-0.3556 1.143,-0.4953 0.635,-0.1397 1.5367,-0.1397 1.905,0 2.6162,0.5842 0.7112,0.5842 0.5334,1.778 -0.1143,0.8255 -0.7366,1.1557 -0.6096,0.3175 -1.9685,0.4191 l -1.5875,0.1143 q 0.0127,0.3556 0.2032,0.4699 0.2032,0.1143 0.6985,0.1143 1.3843,0 2.6035,-0.1397 z m -3.3401,-1.7399 0.7239,-0.0762 q 0.4572,-0.0381 0.635,-0.1397 0.1905,-0.1143 0.2286,-0.4445 0.0254,-0.2159 -0.1016,-0.3048 -0.1143,-0.0889 -0.4826,-0.0762 -0.4699,0.0127 -0.6731,0.2159 -0.2032,0.2032 -0.3302,0.8255 z"
       style=""
       id="path1295" />
    <path
       d="m 201.21805,209.23811 -0.0254,-1.2319 q -0.8509,1.27 -2.4765,1.3843 -0.889,0.0635 -1.3716,-0.3556 -0.4699,-0.4318 -0.5461,-1.2319 -0.0762,-0.8001 0.0762,-1.9177 0.1143,-0.7366 0.3048,-1.27 0.1905,-0.5461 0.4826,-0.889 0.3048,-0.3429 0.6096,-0.5461 0.3048,-0.2159 0.7874,-0.3175 0.4953,-0.1016 0.9144,-0.127 0.4191,-0.0254 1.0795,-0.0254 0.6604,0 1.6891,0.1397 1.0287,0.127 1.397,0.2667 l -0.8636,6.1214 z m 0.0889,-4.7879 h -0.5842 q -0.4699,0 -0.7366,0.2667 -0.2667,0.254 -0.3937,1.0922 -0.1778,1.2065 -0.0762,1.4097 0.0635,0.1524 0.3429,0.127 0.5334,-0.0381 1.1811,-0.9779 z"
       style=""
       id="path1297" />
    <path
       d="m 210.31482,207.19341 0.1905,1.6891 q -1.0668,0.508 -2.794,0.508 -1.7399,0 -2.5527,-0.8128 -0.8001,-0.8255 -0.5461,-2.6289 0.2413,-1.7399 1.0287,-2.4892 0.8001,-0.7493 2.5527,-0.7493 1.7526,0 2.9083,0.4953 l -0.3556,1.6256 h -2.2352 q -0.5588,0 -0.7874,0.254 -0.2286,0.254 -0.3302,0.9398 -0.1143,0.7747 0.0381,1.016 0.1651,0.2413 0.7493,0.2413 1.3335,0 2.1336,-0.0889 z"
       style=""
       id="path1299" />
    <path
       d="m 215.16821,204.48831 -0.3556,2.4892 q -0.0381,0.254 0.0254,0.3302 0.0762,0.0762 0.3683,0.0762 h 0.7493 l 0.1397,1.7272 q -0.7747,0.3048 -2.1209,0.3048 -0.9779,0 -1.5113,-0.4953 -0.5207,-0.4953 -0.3937,-1.3335 l 0.4572,-3.0988 h -1.0922 l 0.1905,-1.5367 1.143,-0.0635 0.2413,-1.6637 h 2.6289 l -0.2413,1.6637 h 1.524 l -0.2159,1.6002 z"
       style=""
       id="path1301" />
    <path
       d="m 226.99686,202.88811 -0.8763,6.35 h -2.0828 l -0.0508,-1.0795 q -1.2954,1.2573 -2.5908,1.2573 -0.9906,0 -1.4478,-0.4699 -0.4445,-0.4826 -0.3175,-1.3589 l 0.6477,-4.699 h 2.6797 l -0.5715,3.9497 q -0.0508,0.3429 0.2921,0.3429 0.4953,0 1.1303,-0.4699 l 0.5461,-3.8227 z"
       style=""
       id="path1303" />
    <path
       d="m 230.18814,202.88811 0.0635,1.1176 q 0.6096,-0.6096 1.3462,-0.9525 0.7366,-0.3429 1.4351,-0.3429 0.8255,0 1.2954,0.4826 0.4826,0.4699 0.3556,1.3462 l -0.6604,4.699 h -2.6797 l 0.5461,-3.8354 q 0.0381,-0.2667 -0.0381,-0.3683 -0.0635,-0.1016 -0.3048,-0.0762 -0.5207,0.0508 -1.1176,0.508 l -0.5334,3.7719 h -2.667 l 0.8763,-6.35 z"
       style=""
       id="path1305" />
    <path
       d="m 243.06773,200.34811 -1.2573,8.89 h -2.1082 l -0.0508,-1.016 q -1.2192,1.1684 -2.3749,1.1684 -2.3495,0 -1.9177,-3.5052 0.2286,-1.7907 0.9144,-2.4765 0.6858,-0.6985 1.778,-0.6985 1.1938,0 2.032,0.1651 0,-0.762 0.0889,-1.3208 l 0.2286,-1.2065 z m -3.2639,3.9751 h -0.5969 q -0.5715,0 -0.7874,0.2794 -0.2159,0.2667 -0.3429,1.2065 -0.127,0.6858 -0.0762,1.0414 0.0508,0.3556 0.4064,0.3302 0.4826,-0.0254 1.0668,-0.4445 z"
       style=""
       id="path1307" />
    <path
       d="m 245.71091,209.23811 1.2319,-8.763 q 1.27,-0.127 3.5433,-0.127 1.9177,0 2.7686,0.635 0.8509,0.6223 0.6477,2.1336 -0.1143,0.8509 -0.5588,1.3716 -0.4318,0.508 -1.4224,0.6096 l -0.0127,0.0889 q 1.0414,0.1524 1.1557,1.4097 l 0.3302,2.6416 h -2.8448 l -0.2286,-2.6543 q -0.0127,-0.3556 -0.1143,-0.4445 -0.1016,-0.1016 -0.3937,-0.1016 h -0.9652 l -0.4445,3.2004 z m 3.4163,-5.1435 h 0.9525 q 0.5588,0 0.7747,-0.1905 0.2159,-0.1905 0.3048,-0.8128 0.0635,-0.4572 -0.0889,-0.6223 -0.1397,-0.1778 -0.6096,-0.1778 h -1.0795 z"
       style=""
       id="path1309" />
    <path
       d="m 260.5072,207.20611 0.1778,1.6256 q -1.2065,0.5588 -3.0099,0.5588 -1.0668,0 -1.778,-0.2159 -0.7112,-0.2159 -1.0922,-0.6604 -0.381,-0.4445 -0.508,-1.0414 -0.1143,-0.6096 -0.0254,-1.4605 0.1016,-1.0033 0.3937,-1.6637 0.2921,-0.6604 0.8001,-1.0033 0.5207,-0.3556 1.143,-0.4953 0.635,-0.1397 1.5367,-0.1397 1.905,0 2.6162,0.5842 0.7112,0.5842 0.5334,1.778 -0.1143,0.8255 -0.7366,1.1557 -0.6096,0.3175 -1.9685,0.4191 l -1.5875,0.1143 q 0.0127,0.3556 0.2032,0.4699 0.2032,0.1143 0.6985,0.1143 1.3843,0 2.6035,-0.1397 z m -3.3401,-1.7399 0.7239,-0.0762 q 0.4572,-0.0381 0.635,-0.1397 0.1905,-0.1143 0.2286,-0.4445 0.0254,-0.2159 -0.1016,-0.3048 -0.1143,-0.0889 -0.4826,-0.0762 -0.4699,0.0127 -0.6731,0.2159 -0.2032,0.2032 -0.3302,0.8255 z"
       style=""
       id="path1311" />
    <path
       d="m 269.50953,200.34811 -1.2573,8.89 h -2.1082 l -0.0508,-1.016 q -1.2192,1.1684 -2.3749,1.1684 -2.3495,0 -1.9177,-3.5052 0.2286,-1.7907 0.9144,-2.4765 0.6858,-0.6985 1.778,-0.6985 1.1938,0 2.032,0.1651 0,-0.762 0.0889,-1.3208 l 0.2286,-1.2065 z m -3.2639,3.9751 h -0.5969 q -0.5715,0 -0.7874,0.2794 -0.2159,0.2667 -0.3429,1.2065 -0.127,0.6858 -0.0762,1.0414 0.0508,0.3556 0.4064,0.3302 0.4826,-0.0254 1.0668,-0.4445 z"
       style=""
       id="path1313" />
    <path
       d="m 276.9287,202.88811 -0.8763,6.35 h -2.0828 l -0.0508,-1.0795 q -1.2954,1.2573 -2.5908,1.2573 -0.9906,0 -1.4478,-0.4699 -0.4445,-0.4826 -0.3175,-1.3589 l 0.6477,-4.699 h 2.6797 l -0.5715,3.9497 q -0.0508,0.3429 0.2921,0.3429 0.4953,0 1.1303,-0.4699 l 0.5461,-3.8227 z"
       style=""
       id="path1315" />
    <path
       d="m 282.93937,205.99961 1.3462,3.2385 h -2.5019 l -0.9017,-2.3622 -1.5875,2.3622 h -2.7432 l 2.2987,-3.2385 -1.2319,-3.1115 h 2.4638 l 0.8255,2.2225 1.5113,-2.2225 h 2.667 z"
       style=""
       id="path1317" />
  </g>
  <g
     aria-label="Thomas Kekeisen"
     style="font-style:italic;font-variant:normal;font-weight:bold;font-stretch:normal;font-size:15.875px;line-height:1;font-family:'Exo 2';-inkscape-font-specification:'Exo 2, Bold Italic';font-variant-ligatures:normal;font-variant-caps:normal;font-variant-numeric:normal;font-feature-settings:normal;text-align:start;letter-spacing:0px;word-spacing:0px;writing-mode:lr-tb;text-anchor:start;fill:#393536;fill-opacity:1;stroke:none;stroke-width:0.26458335"
     id="text989">
    <path
       d="m 26.150859,220.20503 h -3.27025 l -1.254125,8.98525 h -2.428875 l 1.27,-8.98525 h -3.254375 l 0.269875,-1.9685 h 8.937625 z"
       style=""
       id="path1320" />
    <path
       d="m 29.98864,218.07778 -0.381,2.76225 q -0.142875,0.98425 -0.41275,1.92087 1.80975,-1.61925 3.33375,-1.61925 1.0795,0 1.603375,0.58738 0.53975,0.5715 0.381,1.63512 l -0.8255,5.82613 H 31.35389 l 0.73025,-5.19113 q 0.0635,-0.52387 -0.04762,-0.6985 -0.09525,-0.17462 -0.4445,-0.17462 -0.523875,0 -1.095375,0.30162 -0.555625,0.28575 -1.412875,0.9525 l -0.650875,4.81013 h -2.3495 l 1.55575,-11.1125 z"
       style=""
       id="path1322" />
    <path
       d="m 40.239177,221.14165 q 2.174875,0 3.032125,0.98425 0.85725,0.98425 0.53975,3.25438 -0.301625,2.20662 -1.317625,3.1115 -1.000125,0.90487 -3.127375,0.90487 -2.159,0 -3.048,-0.98425 -0.873125,-0.98425 -0.555625,-3.22262 0.3175,-2.2225 1.317625,-3.12738 1.000125,-0.92075 3.159125,-0.92075 z m -0.01588,1.76213 q -0.968375,0 -1.397,0.49212 -0.41275,0.49213 -0.619125,1.98438 -0.1905,1.36525 0.04762,1.80975 0.238125,0.4445 1.158875,0.4445 0.9525,0 1.36525,-0.49213 0.41275,-0.508 0.619125,-1.95262 0.206375,-1.36525 -0.04762,-1.82563 -0.238125,-0.46037 -1.127125,-0.46037 z"
       style=""
       id="path1324" />
    <path
       d="m 47.762935,221.3639 v 1.41288 q 0.85725,-0.85725 1.5875,-1.23825 0.746125,-0.39688 1.55575,-0.39688 0.85725,0 1.349375,0.381 0.492125,0.381 0.5715,1.0795 1.476375,-1.4605 2.95275,-1.4605 1.0795,0 1.571625,0.60325 0.508,0.58738 0.365125,1.61925 l -0.809625,5.82613 H 54.57331 l 0.73025,-5.19113 q 0.0635,-0.49212 -0.07937,-0.68262 -0.142875,-0.1905 -0.492125,-0.1905 -0.396875,0 -0.841375,0.254 -0.4445,0.254 -1.2065,0.93662 l -0.682625,4.87363 h -2.25425 l 0.714375,-5.19113 q 0.07937,-0.47625 -0.04763,-0.66675 -0.127,-0.20637 -0.508,-0.20637 -0.41275,0 -0.873125,0.254 -0.4445,0.23812 -1.17475,0.87312 l -0.682625,4.93713 h -2.333625 l 1.095375,-7.82638 z"
       style=""
       id="path1326" />
    <path
       d="m 66.240691,229.19028 h -1.825625 l 0.01588,-1.41288 q -1.2065,1.55575 -3.20675,1.60338 -1.476375,0.0476 -2.00025,-0.9525 -0.508,-1.016 -0.174625,-3.302 0.15875,-1.0795 0.4445,-1.80975 0.28575,-0.74613 0.635,-1.17475 0.34925,-0.42863 0.904875,-0.65088 0.555625,-0.22225 1.063625,-0.28575 0.523875,-0.0635 1.317625,-0.0635 0.841375,0 2.016125,0.14288 1.17475,0.14287 1.87325,0.33337 z m -1.444625,-6.31825 h -1.2065 q -1.143,0 -1.55575,0.39687 -0.41275,0.39688 -0.619125,1.88913 -0.206375,1.50812 -0.09525,1.93675 0.111125,0.41275 0.682625,0.381 1.04775,-0.0159 2.3495,-1.47638 z"
       style=""
       id="path1328" />
    <path
       d="m 72.08021,226.3804 -1.889125,-0.77787 q -0.9525,-0.381 -1.3335,-0.96838 -0.381,-0.58737 -0.269875,-1.47637 0.127,-1.0795 0.936625,-1.55575 0.8255,-0.47625 2.57175,-0.46038 2.159,0.0317 3.6195,0.3175 l -0.22225,1.49225 q -3.048,-0.0476 -3.095625,-0.0476 -0.92075,0 -1.222375,0.0794 -0.301625,0.0635 -0.34925,0.33338 -0.03175,0.26987 0.142875,0.41275 0.1905,0.127 0.714375,0.33337 l 1.920875,0.762 q 0.968375,0.381 1.36525,0.92075 0.396875,0.53975 0.28575,1.44463 -0.09525,0.6985 -0.381,1.143 -0.269875,0.4445 -0.79375,0.66675 -0.523875,0.22225 -1.127125,0.28575 -0.60325,0.0794 -1.539875,0.0794 -1.42875,0 -3.444875,-0.28575 l 0.22225,-1.50812 q 0.5715,0.0317 2.492375,0.0317 1.36525,0 1.80975,-0.0952 0.4445,-0.0952 0.508,-0.41275 0.03175,-0.23813 -0.127,-0.34925 -0.142875,-0.11113 -0.587375,-0.28575 -0.127,-0.0476 -0.206375,-0.0794 z"
       style=""
       id="path1330" />
    <path
       d="m 85.863431,223.5864 -0.01588,0.0635 q 0.381,0.3175 0.714375,1.00013 l 2.270125,4.54025 h -2.667 l -2.25425,-4.826 h -0.904875 q 0.04762,0.52387 -0.03175,1.09537 l -0.523875,3.73063 h -2.428875 l 1.539875,-10.95375 h 2.428875 l -0.460375,3.22262 q -0.07937,0.60325 -0.254,1.17475 h 0.889 l 3.27025,-4.39737 h 2.794 l -3.413125,4.5085 q -0.381,0.52387 -0.9525,0.84137 z"
       style=""
       id="path1332" />
    <path
       d="m 96.712753,227.3329 0.15875,1.49225 q -1.317625,0.55563 -3.444875,0.55563 -2.238375,0 -3.07975,-1.04775 -0.841375,-1.04775 -0.587375,-3.22263 0.28575,-2.286 1.30175,-3.12737 1.016,-0.84138 3.2385,-0.84138 2.06375,0 2.794,0.68263 0.746125,0.68262 0.555625,2.01612 -0.15875,1.11125 -0.904875,1.5875 -0.746125,0.47625 -2.301875,0.58738 l -2.31775,0.17462 q 0.01588,0.77788 0.381,1.04775 0.381,0.26988 1.190625,0.26988 1.539875,0 3.01625,-0.17463 z m -4.445,-2.52412 1.825625,-0.17463 q 0.635,-0.0476 0.92075,-0.254 0.301625,-0.20637 0.365125,-0.762 0.04762,-0.52387 -0.206375,-0.65087 -0.238125,-0.127 -1.031875,-0.11113 -0.92075,0 -1.30175,0.39688 -0.365125,0.381 -0.5715,1.55575 z"
       style=""
       id="path1334" />
    <path
       d="m 104.40493,221.3639 h 2.39713 q -0.58738,2.2225 -2.57175,3.60363 0.36512,0.381 0.65087,0.98425 l 1.44463,3.2385 h -2.44475 l -1.38113,-3.2385 q -0.58737,0.26987 -1.34937,0.5715 l -0.381,2.667 h -2.3495 l 1.55575,-11.1125 h 2.3495 l -0.65088,4.77837 q -0.127,0.93663 -0.5715,1.93675 1.22238,-0.635 2.12725,-1.524 0.92075,-0.90487 1.17475,-1.905 z"
       style=""
       id="path1336" />
    <path
       d="m 114.38609,227.3329 0.15875,1.49225 q -1.31762,0.55563 -3.44487,0.55563 -2.23838,0 -3.07975,-1.04775 -0.84138,-1.04775 -0.58738,-3.22263 0.28575,-2.286 1.30175,-3.12737 1.016,-0.84138 3.2385,-0.84138 2.06375,0 2.794,0.68263 0.74613,0.68262 0.55563,2.01612 -0.15875,1.11125 -0.90488,1.5875 -0.74612,0.47625 -2.30187,0.58738 l -2.31775,0.17462 q 0.0159,0.77788 0.381,1.04775 0.381,0.26988 1.19062,0.26988 1.53988,0 3.01625,-0.17463 z m -4.445,-2.52412 1.82563,-0.17463 q 0.635,-0.0476 0.92075,-0.254 0.30162,-0.20637 0.36512,-0.762 0.0476,-0.52387 -0.20637,-0.65087 -0.23813,-0.127 -1.03188,-0.11113 -0.92075,0 -1.30175,0.39688 -0.36512,0.381 -0.5715,1.55575 z"
       style=""
       id="path1338" />
    <path
       d="m 118.36352,217.90315 h 0.98425 q 0.74613,0 0.66675,0.73025 l -0.11112,0.85725 q -0.0953,0.635 -0.762,0.635 h -1.00013 q -0.73025,0 -0.635,-0.73025 l 0.11113,-0.84137 q 0.0635,-0.65088 0.74612,-0.65088 z m 0.127,11.28713 h -2.33362 l 1.09537,-7.82638 h 2.33363 z"
       style=""
       id="path1340" />
    <path
       d="m 124.4181,226.3804 -1.88912,-0.77787 q -0.9525,-0.381 -1.3335,-0.96838 -0.381,-0.58737 -0.26988,-1.47637 0.127,-1.0795 0.93663,-1.55575 0.8255,-0.47625 2.57175,-0.46038 2.159,0.0317 3.6195,0.3175 l -0.22225,1.49225 q -3.048,-0.0476 -3.09563,-0.0476 -0.92075,0 -1.22237,0.0794 -0.30163,0.0635 -0.34925,0.33338 -0.0317,0.26987 0.14287,0.41275 0.1905,0.127 0.71438,0.33337 l 1.92087,0.762 q 0.96838,0.381 1.36525,0.92075 0.39688,0.53975 0.28575,1.44463 -0.0953,0.6985 -0.381,1.143 -0.26987,0.4445 -0.79375,0.66675 -0.52387,0.22225 -1.12712,0.28575 -0.60325,0.0794 -1.53988,0.0794 -1.42875,0 -3.44487,-0.28575 l 0.22225,-1.50812 q 0.5715,0.0317 2.49237,0.0317 1.36525,0 1.80975,-0.0952 0.4445,-0.0952 0.508,-0.41275 0.0318,-0.23813 -0.127,-0.34925 -0.14287,-0.11113 -0.58737,-0.28575 -0.127,-0.0476 -0.20638,-0.0794 z"
       style=""
       id="path1342" />
    <path
       d="m 135.96617,227.3329 0.15875,1.49225 q -1.31762,0.55563 -3.44487,0.55563 -2.23838,0 -3.07975,-1.04775 -0.84138,-1.04775 -0.58738,-3.22263 0.28575,-2.286 1.30175,-3.12737 1.016,-0.84138 3.2385,-0.84138 2.06375,0 2.794,0.68263 0.74613,0.68262 0.55563,2.01612 -0.15875,1.11125 -0.90488,1.5875 -0.74612,0.47625 -2.30187,0.58738 l -2.31775,0.17462 q 0.0159,0.77788 0.381,1.04775 0.381,0.26988 1.19062,0.26988 1.53988,0 3.01625,-0.17463 z m -4.445,-2.52412 1.82563,-0.17463 q 0.635,-0.0476 0.92075,-0.254 0.30162,-0.20637 0.36512,-0.762 0.0476,-0.52387 -0.20637,-0.65087 -0.23813,-0.127 -1.03188,-0.11113 -0.92075,0 -1.30175,0.39688 -0.36512,0.381 -0.5715,1.55575 z"
       style=""
       id="path1344" />
    <path
       d="m 140.61035,221.3639 v 1.55575 q 1.82563,-1.778 3.57188,-1.778 1.00012,0 1.53987,0.58738 0.53975,0.5715 0.381,1.63512 l -0.8255,5.82613 h -2.33362 l 0.71437,-5.12763 q 0.0794,-0.55562 -0.0318,-0.74612 -0.11112,-0.20638 -0.49212,-0.1905 -0.889,0.0159 -2.44475,1.23825 l -0.66675,4.826 h -2.3495 l 1.09537,-7.82638 z"
       style=""
       id="path1346" />
  </g>
</svg>
